<?xml version="1.0" standalone="no"?>
<!DOCTYPE svg PUBLIC "-//W3C//DTD SVG 1.1//EN" "http://www.w3.org/Graphics/SVG/1.1/DTD/svg11.dtd" >
<svg xmlns="http://www.w3.org/2000/svg" xmlns:xlink="http://www.w3.org/1999/xlink" version="1.1">
<metadata>
Created by FontForge 20201107 at Mon Jul 19 08:19:53 2021
 By Jimmy Wärting
(c)Woodcutter Manero MMXXI
</metadata>
<defs>
<font id="HalloweenMorning" horiz-adv-x="840" >
  <font-face 
    font-family="Halloween Morning"
    font-weight="400"
    font-stretch="normal"
    units-per-em="2048"
    panose-1="2 0 5 0 0 0 0 0 0 0"
    ascent="1638"
    descent="-410"
    x-height="1364"
    cap-height="1426"
    bbox="-50 -397 1672 1686"
    underline-thickness="150"
    underline-position="-292"
    unicode-range="U+001D-F002"
  />
<missing-glyph horiz-adv-x="1024" 
d="M100 0v1434h824v-1434h-824zM150 50h724v1334h-724v-1334zM325 1148q31 28 58 43q53 30 112 30q92 0 148 -47.5t56 -127.5q0 -49 -23 -98.5t-87 -129.5q-63 -80 -99 -132t-36 -99q0 -38 24 -133h-32q-35 97 -35 148q0 76 81.5 218t81.5 217q0 57 -33 90t-91 33
q-38 0 -69 -17q-26 -15 -56 -40v45zM389 334l57 58q11 10 20 10q10 0 22 -11l56 -60q9 -11 9 -20q0 -11 -10 -22l-56 -62q-14 -14 -21 -14q-11 0 -20 10l-61 71q-7 9 -7 18q0 10 11 22z" />
    <glyph glyph-name=".notdef" horiz-adv-x="1024" 
d="M100 0v1434h824v-1434h-824zM150 50h724v1334h-724v-1334zM325 1148q31 28 58 43q53 30 112 30q92 0 148 -47.5t56 -127.5q0 -49 -23 -98.5t-87 -129.5q-63 -80 -99 -132t-36 -99q0 -38 24 -133h-32q-35 97 -35 148q0 76 81.5 218t81.5 217q0 57 -33 90t-91 33
q-38 0 -69 -17q-26 -15 -56 -40v45zM389 334l57 58q11 10 20 10q10 0 22 -11l56 -60q9 -11 9 -20q0 -11 -10 -22l-56 -62q-14 -14 -21 -14q-11 0 -20 10l-61 71q-7 9 -7 18q0 10 11 22z" />
    <glyph glyph-name=".null" horiz-adv-x="0" 
 />
    <glyph glyph-name=".null" horiz-adv-x="0" 
 />
    <glyph glyph-name="nonmarkingreturn" horiz-adv-x="508" 
 />
    <glyph glyph-name="space" unicode=" " horiz-adv-x="508" 
 />
    <glyph glyph-name="space" unicode="&#xa0;" horiz-adv-x="508" 
 />
    <glyph glyph-name="exclam" unicode="!" horiz-adv-x="443" 
d="M256 1368h8q52 0 52 -84v-108q0 -46 -20 -172v-44q24 -119 36 -384v-40q0 -31 -60 -100q0 -38 -68 -52q-68 0 -92 76q0 28 -44 116q-40 161 -68 336v68q20 77 20 96v12q0 58 -4 132q0 69 104 88h60q51 60 76 60zM280 312q76 -80 76 -88q8 -38 8 -60v-16q0 -95 -80 -136
q-18 -12 -64 -12q-127 0 -172 128l-4 48q0 93 52 108q12 9 56 24q21 0 80 -4q10 0 48 8z" />
    <glyph glyph-name="quotedbl" unicode="&#x22;" horiz-adv-x="765" 
d="M175 1660h20q92 0 136 -116q12 -40 12 -92v-36q0 -45 -24 -56q0 -44 -64 -80q-68 -72 -100 -72q-16 4 -16 16q20 46 20 80v24q-5 54 -80 132q-25 0 -44 112q51 88 140 88zM502 1660h20q92 0 136 -116q12 -40 12 -92v-36q0 -45 -24 -56q0 -44 -64 -80q-69 -72 -100 -72
q-16 4 -16 16q20 46 20 80v24q-6 54 -80 132q-26 0 -44 112q51 88 140 88z" />
    <glyph glyph-name="numbersign" unicode="#" horiz-adv-x="1061" 
d="M422 1424q132 -44 132 -108v-16q0 -127 -60 -332h8q97 -8 136 -8h32q67 312 108 312q26 8 36 8h24q9 0 16 -4q16 8 24 8q24 0 28 -48q-44 -195 -76 -276h4q108 12 152 28q36 0 36 -176v-172q0 -5 -20 -20h-20q-20 10 -20 32v124h-72q-5 0 -44 8h-68v-4q-8 -88 -20 -168
q97 4 124 4q56 -23 56 -36v-8q-8 -26 -8 -36v-64q0 -48 -52 -48q0 4 -4 4q-16 -96 -16 -224q0 -2 4 -16q-8 -25 -20 -28h-12q-32 0 -32 36q0 79 8 236h-64v-4q0 -105 -88 -292q-29 -148 -100 -148q-33 -11 -128 -28q-36 5 -36 36v4q52 175 52 180q8 127 24 220h-4
q-26 8 -64 28v-8q4 -171 4 -192q-8 -24 -32 -24q-25 0 -28 32v208q0 8 -8 8q-80 -193 -124 -336q-20 -12 -40 -12h-4q-120 30 -120 92q23 141 60 192q13 14 28 64h-60q-104 11 -104 52q0 25 60 56q31 104 72 104q86 -28 108 -28q20 79 28 148h-16q-172 0 -172 40v4
q15 128 52 128q25 32 68 32q71 -16 128 -16q31 77 68 376q25 64 32 64q4 12 24 12zM378 604h156l80 204h-156q-11 -6 -80 -204z" />
    <glyph glyph-name="dollar" unicode="$" horiz-adv-x="783" 
d="M301 1483q110 0 110 -80q7 -23 7 -40q-7 -33 -7 -37v-13q0 -21 50 -37l77 -50q73 -88 84 -141v-280q-4 -60 -30 -60q-5 0 -24 13q3 121 3 174v90q-21 11 -56 53q-82 50 -97 70v-143q0 -104 -17 -104h-20q-18 0 -20 87q3 37 3 67q-15 -13 -46 -13q-26 0 -41 30h-6v-17
q0 -109 43 -160q0 -31 100 -67q18 -15 74 -30q69 -24 90 -70q20 -61 94 -214q53 -126 53 -227v-54q0 -55 -63 -154v-73l3 -24h-3l3 -6v-47q0 -3 -3 -3q0 -4 3 -4q0 -97 -27 -97h-6q-30 13 -30 47q6 69 6 94v70q-51 -40 -147 -57q14 -83 14 -97v-47q0 -76 -54 -86h-20
q-67 17 -67 66v67q0 38 -6 80h-81q-107 0 -147 107q0 18 -83 211q-9 26 -17 87q15 26 34 26q41 -12 86 -93q94 -54 94 -84q0 -81 50 -93q26 -10 44 -10q6 3 10 3q0 160 23 160q11 7 20 7q90 0 90 -113v-20h4q70 40 70 130q3 39 3 57q0 110 -73 250q-40 59 -47 60l3 -40v-43
q7 -100 7 -104q0 -13 -17 -23h-7q-33 0 -33 47v133q0 31 -50 37h-17q4 -63 7 -63l-3 -17l13 -217q-7 -20 -27 -20q-30 0 -30 110q-8 177 -23 177v30q-167 102 -167 177q-8 0 -17 74v93q0 328 67 328q68 30 123 30v50q6 77 37 77q13 3 27 3z" />
    <glyph glyph-name="percent" unicode="%" horiz-adv-x="681" 
d="M500 1368q88 -25 88 -78v-28q0 -41 -21 -120q0 -75 -3 -276q7 -74 7 -120v-63q0 -39 -29 -39q-24 0 -24 46q-7 58 -7 91v82q0 18 -4 60h-4q0 -17 -63 -198q-7 -55 -7 -106v-32q0 -39 -28 -39q-22 4 -22 18h-7q0 -27 -198 -498q-6 -64 -46 -64h-60q-42 0 -42 32
q35 84 95 279l128 286q53 222 144 537q12 205 39 205q7 0 53 25h11zM175 1315h21q72 0 110 -148q10 -66 10 -117v-18q0 -100 -88 -152q-32 -26 -32 -141q-4 -95 -25 -95h-14q-5 0 -17 17v82q0 24 -4 77q-32 0 -78 103v35q0 29 18 145q-25 19 -25 71q0 84 39 120q44 21 85 21
zM419 393h77q51 0 75 -134q49 -113 49 -156q0 -65 -67 -124l3 -7v-14q-1 -28 -28 -28q-19 0 -21 32q-35 -4 -53 -4h-39q-49 0 -49 142q-22 50 -22 81v25q0 60 36 134l-4 18q7 17 43 35z" />
    <glyph glyph-name="ampersand" unicode="&#x26;" horiz-adv-x="959" 
d="M313 1387h56q176 -37 176 -80q62 -49 88 -120q9 -40 24 -56v-12q0 -3 -8 -32v-20q12 -171 12 -196q0 -100 -24 -100h-20q-5 0 -20 20v80h-4q-4 -49 -100 -228q25 -43 132 -156q40 -57 48 -72l132 144q22 4 32 4q76 -7 76 -52q-8 -13 -12 -44q24 -14 24 -36v-32
q0 -80 -36 -80l-20 8q0 -51 -64 -100q68 -104 80 -116v-36q-8 -68 -8 -76v-56q8 -68 8 -76v-52q-8 -172 -52 -208l-20 -4q-28 12 -28 36v124q0 17 -12 88h-4q-25 -79 -40 -84q-7 -4 -16 -4q-36 7 -36 40v80q0 28 8 44q-32 92 -56 180q-104 -52 -144 -52q-7 4 -16 4h-20v-4
q0 -15 -4 -100q-18 -16 -20 -16h-16q-5 0 -20 20v16q0 23 4 64q-8 13 -8 24v8l4 8q-130 0 -212 144q-32 98 -32 144v28q0 98 84 260v4q-18 38 -156 200q-60 87 -60 160v20q0 113 76 172q150 170 224 176zM249 1099q0 -83 48 -164q0 -23 68 -120l8 -16q88 70 88 204v32
q0 192 -76 192q-136 -14 -136 -128zM365 471q-24 -36 -24 -60q66 -108 92 -108q5 -4 28 -4q36 0 36 8q-126 164 -132 164z" />
    <glyph glyph-name="quotesingle" unicode="'" horiz-adv-x="470" 
d="M175 1660h20q92 0 136 -116q12 -40 12 -92v-36q0 -45 -24 -56q0 -44 -64 -80q-68 -72 -100 -72q-16 4 -16 16q20 46 20 80v24q-5 54 -80 132q-25 0 -44 112q51 88 140 88z" />
    <glyph glyph-name="parenleft" unicode="(" horiz-adv-x="598" 
d="M488 1404q12 -4 12 -8l8 4q23 0 36 -28q0 -5 -12 -80v-52l-60 -52q-52 -67 -52 -84q8 -97 8 -108v-20q0 -36 -36 -36q-32 0 -32 96h-8q-40 -81 -68 -308v-56q13 -179 96 -320q101 -172 160 -172q16 -18 16 -20v-8l-40 -120q-3 -10 -44 -32q-54 4 -80 4h-36
q-60 0 -280 224q-76 122 -76 360v4q0 252 144 448q44 92 148 236q120 128 196 128z" />
    <glyph glyph-name="parenright" unicode=")" horiz-adv-x="549" 
d="M90 1421q183 -48 256 -120q21 0 96 -128q36 -56 56 -252v-20q0 -211 -44 -400q-16 -59 -16 -92q0 -130 8 -344l-16 -12h-12q-32 0 -32 72l-8 156h-4q-93 -316 -316 -316q-15 4 -24 28q0 140 108 232q32 50 32 96v20q0 16 -20 100v32q0 30 96 104q16 67 16 160v28
q0 251 -72 340q-70 62 -132 80q-32 39 -32 120v12q0 9 4 16q-16 24 -16 36q0 37 72 52z" />
    <glyph glyph-name="asterisk" unicode="*" horiz-adv-x="730" 
d="M433 1681q39 0 42 -49q-15 0 -28 -188q4 0 4 -4q35 4 52 4h49q103 0 129 -105q0 -39 -94 -55q-11 0 -87 -18q12 -16 87 -42q57 -58 59 -94v-24q-4 -49 -45 -49v-38q0 -36 14 -227v-18q-9 -17 -28 -17q-45 0 -45 223q-11 94 -32 94q-2 14 -84 60q-50 52 -83 52
q-28 -6 -28 -14v-49q0 -63 -35 -63q-14 5 -21 18q4 35 4 56v10h-4q-113 -84 -160 -84q-74 17 -74 70q0 67 88 94q89 47 90 53v7q-24 0 -66 -7q-58 0 -108 76q-7 14 -7 39v3q12 73 59 73h4q77 -24 181 -38q0 -6 24 -11q7 25 18 178q3 0 3 4l-3 17q0 23 115 63h10z" />
    <glyph glyph-name="plus" unicode="+" horiz-adv-x="761" 
d="M339 1082q26 -8 136 -24q52 -40 52 -64v-204q3 -16 136 -28q17 0 32 -56v-88q-11 -20 -24 -20v-76q-7 -14 -24 -20q-30 0 -36 40v36l-84 -12q-50 4 -56 4l-4 -8v-20q0 -6 8 -64v-64q-4 -48 -40 -48h-96q-136 9 -136 72v52q0 32 -4 84q4 6 4 24h-24v-40q0 -92 8 -136
q-8 -28 -32 -28q-40 0 -40 144q-4 21 -4 48v8q-76 9 -76 76v80q0 80 44 80h124q92 0 92 44q8 56 16 164v24q3 12 28 20z" />
    <glyph glyph-name="comma" unicode="," horiz-adv-x="470" 
d="M188 249h20q92 0 136 -116q12 -40 12 -92v-36q0 -45 -24 -56q0 -44 -64 -80q-68 -72 -100 -72q-16 4 -16 16q20 46 20 80v24q-5 54 -80 132q-25 0 -44 112q51 88 140 88z" />
    <glyph glyph-name="hyphen" unicode="-" horiz-adv-x="730" 
d="M355 875q8 0 108 -16h84q84 0 84 -52q-16 -164 -80 -164q-4 -41 -4 -48l4 -36q0 -56 -36 -56q-17 0 -28 24l4 28q0 14 -4 36q4 21 4 48v8q-8 -4 -12 -4q-18 0 -88 4v-88q-4 -32 -28 -32q-28 0 -32 44v76q-151 -4 -228 -4h-16q-45 0 -52 100v44q15 72 56 72h120
q19 0 64 -8q18 0 56 24h24z" />
    <glyph glyph-name="hyphen" unicode="&#xad;" horiz-adv-x="730" 
d="M355 875q8 0 108 -16h84q84 0 84 -52q-16 -164 -80 -164q-4 -41 -4 -48l4 -36q0 -56 -36 -56q-17 0 -28 24l4 28q0 14 -4 36q4 21 4 48v8q-8 -4 -12 -4q-18 0 -88 4v-88q-4 -32 -28 -32q-28 0 -32 44v76q-151 -4 -228 -4h-16q-45 0 -52 100v44q15 72 56 72h120
q19 0 64 -8q18 0 56 24h24z" />
    <glyph glyph-name="period" unicode="." horiz-adv-x="557" 
d="M220 316h20q156 -18 156 -124q4 -3 4 -36q0 -102 -128 -188l-28 -4q-57 0 -148 148q-8 33 -8 64q0 99 104 136z" />
    <glyph glyph-name="slash" unicode="/" horiz-adv-x="787" 
d="M684 1388h16q104 0 104 -36q0 -9 -40 -92q-12 -27 -12 -172v-136q0 -73 4 -184q0 -26 -36 -32q-7 0 -24 20q-4 145 -4 220v176q-13 0 -16 -84v-56q0 -46 -132 -384l-24 -204q0 -6 4 -48q-5 -16 -20 -24h-24q-16 0 -24 52v24q8 68 8 76v4h-4q-108 -229 -172 -288
q-46 -76 -84 -196q-15 -24 -20 -24h-16q-44 16 -48 16h-76q-44 7 -44 44q15 59 68 176q40 162 224 436q40 83 92 236q120 199 120 240q23 192 64 192q58 30 72 44q27 4 44 4z" />
    <glyph glyph-name="zero" unicode="0" horiz-adv-x="752" 
d="M356 1342q122 0 192 -156q48 -176 84 -176q48 -39 48 -164q-12 -123 -12 -148v-8q0 -22 20 -136v-44q0 -90 -68 -260q-60 -72 -60 -244v-4q12 -107 12 -128v-68q-5 -40 -36 -40h-8q-25 0 -32 112q4 80 4 120q-4 8 -4 12h-8q-16 -112 -36 -112h-8q-16 0 -32 104
q-18 20 -36 20h-8q-62 -16 -80 -16h-16q-92 0 -132 116q-16 66 -64 92q-72 23 -72 180q-4 22 -4 72q45 572 64 572q46 144 84 200q94 104 208 104zM204 570v-96q0 -130 52 -180h12q92 40 136 88q52 103 56 176q8 32 8 76v116q-2 68 -24 76h-4q-32 -36 -36 -36h-12
q-28 0 -32 224q-11 24 -16 24h-24q-27 0 -68 -136q-48 -254 -48 -332z" />
    <glyph glyph-name="one" unicode="1" horiz-adv-x="615" 
d="M493 1344q56 0 56 -148q8 -206 8 -376q0 -21 -20 -32h-12q-32 0 -32 68h-4l-4 -48q0 -20 32 -160v-72q0 -60 20 -384q-36 -132 -36 -236q-7 -120 -40 -120h-4q-19 0 -28 28q16 134 16 184q-40 -21 -40 -68q-11 -24 -16 -24q-10 0 -40 112q-18 12 -80 32q-24 25 -24 68
v132q0 16 12 128v116q0 352 -32 352h-8l-20 -4q-8 -72 -8 -124v-20q0 -6 -16 -16h-24q-6 0 -16 16v112q-32 -12 -40 -12q-48 0 -88 148q0 48 104 140q264 158 368 204q7 4 16 4z" />
    <glyph glyph-name="two" unicode="2" horiz-adv-x="686" 
d="M366 1342q95 0 160 -116q64 -41 64 -196v-100q0 -130 -76 -400v-52q0 -111 164 -244q23 0 40 -72v-12q0 -84 -72 -84q-143 24 -192 24q-70 0 -96 -88q-18 -5 -44 -108l-12 -8h-12q-22 0 -40 160q-10 14 -80 32q-23 27 -28 72v40q0 111 92 232q32 69 48 140q67 95 76 184
q12 25 12 80v40q0 28 -8 76h-4l-4 -28v-124q-10 -20 -32 -20q-16 6 -24 20q0 63 -8 168q-23 -21 -96 -160q-7 0 -20 -8q-28 0 -44 92h-4l-8 -52q8 -153 8 -192q-8 -109 -8 -132l16 -52q0 -26 -36 -32l-16 8q-8 -4 -12 -4q-32 0 -32 60v16q0 81 -8 204q4 132 4 212q4 8 4 12
q-11 0 -16 40v24q0 116 204 300q70 44 140 48z" />
    <glyph glyph-name="three" unicode="3" horiz-adv-x="796" 
d="M176 1377q224 0 352 -196q28 -49 28 -140v-168q0 -42 96 -104q46 -52 76 -164q12 -56 12 -80v-180q0 -109 -140 -224q-45 0 -96 -96q-16 0 -40 -160q-15 -20 -32 -20q-13 0 -60 56q-30 0 -60 64q-12 14 -176 36q-108 32 -108 156q11 100 80 100h4q121 -20 160 -20
q104 0 168 136q8 40 8 72v64q0 124 -172 124q-43 0 -108 -12q-84 20 -84 80v24q33 96 104 96q72 15 72 72q4 15 4 44v16q0 56 -140 80l-4 -8v-28q0 -72 -32 -72q0 -44 -36 -44q-32 0 -32 72q0 171 -16 264q0 84 36 84q88 72 108 72q28 0 28 4z" />
    <glyph glyph-name="four" unicode="4" horiz-adv-x="765" 
d="M60 1366h12q44 0 116 -32l80 32q22 0 32 -36q-4 -138 -4 -216v-148q15 -192 80 -192q36 0 36 112q24 202 24 228q0 240 40 240h16q20 0 96 -68q132 -28 132 -76q0 -19 4 -40q-20 -468 -48 -468q-36 -59 -36 -84v-44q20 -108 20 -436q-9 -60 -28 -60h-4q-16 0 -52 8
q-81 -17 -84 -180q-3 -60 -28 -60q-28 0 -28 172q0 18 -24 116q0 44 4 248q0 48 -52 64q-19 0 -80 36q-31 0 -60 8v-88q-8 -118 -8 -128v-56q0 -21 -16 -28h-24q-24 16 -24 32q0 22 4 76q-12 94 -12 232q4 29 4 32q-60 67 -60 160q-92 226 -92 520q0 124 64 124z" />
    <glyph glyph-name="five" unicode="5" horiz-adv-x="783" 
d="M396 1360l112 -16h112q52 -7 52 -44v-8q0 -18 -16 -36q16 -34 16 -120q-12 -152 -56 -152q-24 10 -24 24q16 139 16 148v4h-4q-14 -76 -60 -76h-12q-39 0 -140 44q-4 0 -12 4q-54 0 -68 -76v-48q0 -66 84 -76q132 -19 212 -80q120 -73 120 -376q0 -116 -96 -228
q-20 -33 -28 -212q-11 -27 -28 -36h-4q-30 0 -56 52q-34 56 -60 56q-69 -20 -120 -20h-28q-37 0 -132 40q-60 0 -160 68q-16 21 -16 44v44q0 120 72 120h20q128 -20 136 -20q140 16 160 100q4 21 4 40v32q-8 92 -68 92q-35 10 -108 44q-21 4 -40 4l-28 -4v-84q0 -29 -32 -40
q-25 8 -28 20v116q-56 16 -56 140q0 128 -16 364q0 132 160 132q138 20 220 20z" />
    <glyph glyph-name="six" unicode="6" horiz-adv-x="703" 
d="M360 1380h4q73 0 104 -152v-4q0 -71 -64 -196q-32 -37 -32 -88v-40q0 -55 100 -76q27 -22 88 -96q100 -55 100 -212v-12q0 -72 -64 -148q-29 -94 -96 -148q-18 0 -36 -172q-11 -27 -28 -36q-32 0 -48 80l-12 8q-41 -4 -48 -4q-18 2 -48 64q-62 30 -156 44
q-124 116 -124 300v64q0 23 44 292q0 124 184 464q20 24 80 40q32 28 52 28zM248 476v-20q0 -84 44 -84h4q26 0 32 84v28q-7 88 -28 88h-4q-48 0 -48 -96z" />
    <glyph glyph-name="seven" unicode="7" horiz-adv-x="659" 
d="M204 1296l320 -48q61 -44 124 -44q36 -17 36 -60v-16q0 -51 -100 -272q-36 -16 -48 -160q-29 -28 -68 -228q-48 -102 -120 -280q-44 -42 -64 -96l-76 -92h-12q-27 0 -44 204q-44 84 -44 108v44q0 26 128 268q60 119 60 184v56q0 62 -100 72q-160 34 -160 80
q-36 40 -36 128v60q0 80 88 80q57 0 116 12z" />
    <glyph glyph-name="eight" unicode="8" horiz-adv-x="734" 
d="M288 1374q96 0 180 -116q60 -34 60 -120v-68q-12 -123 -12 -148v-8q0 -98 72 -148q44 -49 76 -188q20 -113 20 -184q0 -48 -72 -132q-64 -150 -168 -188q-120 -31 -120 -76q-7 -96 -48 -96q-29 0 -44 -88l-16 -12h-16q-26 0 -28 116v84q0 48 -104 156q-68 95 -68 220
q0 77 60 208q36 78 36 132v40q0 46 -44 140q-8 34 -8 60q0 220 40 260q25 20 72 92q82 64 132 64zM248 1090v-40q0 -92 48 -92q25 0 36 48v112q0 24 -28 44h-28q-24 0 -28 -72zM224 438q0 -159 48 -176q0 -11 40 -16q112 0 112 136v52q0 143 -92 184h-12q-92 -27 -92 -124
q-4 -19 -4 -56z" />
    <glyph glyph-name="nine" unicode="9" horiz-adv-x="628" 
d="M304 1372h20q152 0 248 -260q16 -76 16 -136v-16q0 -86 -52 -248q-13 -160 -40 -220q-60 -74 -108 -292q-41 -148 -92 -184q-19 0 -48 -136l-8 -4h-8q-12 4 -12 24q0 40 -4 180q0 31 -72 68q-20 23 -20 40v40q41 185 76 204q44 54 44 112v52q0 42 -92 104
q-80 76 -104 128q-48 62 -48 196v8q0 190 112 252q48 0 108 56q51 32 84 32zM296 996q0 -34 24 -48h16q14 0 20 44v48q0 40 -24 40q-36 -15 -36 -84z" />
    <glyph glyph-name="colon" unicode=":" horiz-adv-x="465" 
d="M154 303h20q156 -18 156 -124q4 -3 4 -36q0 -102 -128 -188l-28 -4q-57 0 -148 148q-8 33 -8 64q0 99 104 136zM149 1009h20q156 -18 156 -124q4 -3 4 -36q0 -102 -128 -188l-28 -4q-57 0 -148 148q-8 33 -8 64q0 99 104 136z" />
    <glyph glyph-name="semicolon" unicode=";" horiz-adv-x="434" 
d="M149 1009h20q156 -18 156 -124q4 -3 4 -36q0 -102 -128 -188l-28 -4q-57 0 -148 148q-8 33 -8 64q0 99 104 136zM188 249h20q92 0 136 -116q12 -40 12 -92v-36q0 -45 -24 -56q0 -44 -64 -80q-68 -72 -100 -72q-16 4 -16 16q20 46 20 80v24q-5 54 -80 132q-25 0 -44 112
q51 88 140 88z" />
    <glyph glyph-name="semicolon" unicode="&#x37e;" horiz-adv-x="434" 
d="M149 1009h20q156 -18 156 -124q4 -3 4 -36q0 -102 -128 -188l-28 -4q-57 0 -148 148q-8 33 -8 64q0 99 104 136zM188 249h20q92 0 136 -116q12 -40 12 -92v-36q0 -45 -24 -56q0 -44 -64 -80q-68 -72 -100 -72q-16 4 -16 16q20 46 20 80v24q-5 54 -80 132q-25 0 -44 112
q51 88 140 88z" />
    <glyph glyph-name="less" unicode="&#x3c;" horiz-adv-x="1382" 
d="M749 1468q259 -50 323 -97q8 -8 155 -86q43 -46 51 -97q-4 -156 -15 -184q15 -101 54 -216q4 -13 4 -32v-62l-18 -252q0 -86 -33 -86h-7q-21 11 -21 40v57h-4q-64 -86 -112 -101q-7 -61 -7 -100v-112q0 -36 4 -108q-16 -14 -18 -14h-7q-33 0 -33 90q-6 38 -11 86
q8 49 8 122q-4 0 -4 4q-25 -9 -65 -14l4 -8v-36q0 -25 -25 -25q-29 0 -29 58q-56 -9 -79 -33l-7 -10v-58q10 -80 10 -97v-36q0 -47 -32 -87q4 -77 4 -108q0 -43 -33 -43q-21 8 -21 29v76q0 26 -11 28h-40q-23 0 -54 -21q4 -20 4 -33l-18 -14h-7q-28 0 -36 47h-8
q-39 0 -39 -51l-18 -14h-11q-32 0 -32 50l-8 -3h-25q-21 0 -61 14q-4 0 -11 -3l-147 36q-36 30 -36 86q8 26 39 76q18 68 18 72q-3 30 -3 50v54q0 10 -18 32h-4v-64q-4 -44 -36 -44t-32 116v7q-4 0 -11 3l3 -25v-75q0 -22 -25 -29q-25 7 -25 21q0 41 -4 152q-8 7 -50 25
q14 -161 14 -223q-7 -17 -14 -18h-22q-19 0 -25 151q0 88 -14 144q0 87 11 209v3q-29 96 -29 141q0 157 183 503q19 13 188 65q140 51 180 51q18 0 36 -18zM475 1029q0 -8 -86 -108q0 -16 -40 -137q2 -36 11 -36q54 27 83 108q43 114 43 130v25l-4 18h-7zM946 1018v-3
q4 -123 4 -137q-4 -68 -22 -68h-17q-22 0 -22 97h-4q0 -72 -57 -177q-15 -14 -22 -14q21 -50 61 -50h15q31 0 39 32q83 111 83 169v18q0 88 -58 133zM551 547h3q90 0 90 18q36 57 36 72v14q-1 8 -18 15q-9 -22 -29 -22q-25 0 -25 25q-15 -24 -39 -47q-18 -38 -18 -75z
M360 165q0 -18 3 -126q-3 -20 -3 -29l18 -10h18q14 57 14 79q0 14 -7 65q14 75 14 93v4q-3 0 -10 3q-44 0 -44 -64q-3 0 -3 -15zM626 18h40q7 0 7 10q0 63 -4 206q-8 0 -14 3q-29 0 -29 -68v-151zM479 43q6 -16 25 -29h3q26 62 26 166v46h-18q-24 0 -33 -147q-3 -19 -3 -36z
M759 205v-33q0 -9 -10 -43v-61h3l11 7h7l25 -7v43q-4 101 -21 101h-7q-8 -1 -8 -7z" />
    <glyph glyph-name="equal" unicode="=" horiz-adv-x="730" 
d="M365 945q8 0 108 -16h84q84 0 84 -52q-16 -164 -80 -164q-4 -41 -4 -48l4 -36q0 -56 -36 -56q-17 0 -28 24l4 28q0 14 -4 36q4 21 4 48v8q-8 -4 -12 -4q-18 0 -88 4v-88q-4 -32 -28 -32q-28 0 -32 44v76q-151 -4 -228 -4h-16q-45 0 -52 100v44q15 72 56 72h120
q19 0 64 -8q18 0 56 24h24zM365 562q8 0 108 -16h84q84 0 84 -52q-16 -164 -80 -164l-60 -4v8q-8 -4 -12 -4q-18 0 -88 4h-60q-151 -4 -228 -4h-16q-45 0 -52 100v44q15 72 56 72h120q18 0 64 -8q17 0 56 24h24z" />
    <glyph glyph-name="greater" unicode="&#x3e;" horiz-adv-x="1382" 
d="M749 1468q259 -50 323 -97q8 -8 155 -86q43 -46 51 -97q-4 -156 -15 -184q15 -101 54 -216q4 -13 4 -32v-62l-18 -252q0 -86 -33 -86h-7q-21 11 -21 40v57h-4q-64 -86 -112 -101q-7 -61 -7 -100v-112q0 -36 4 -108q-16 -14 -18 -14h-7q-33 0 -33 90q-6 38 -11 86
q8 49 8 122q-4 0 -4 4q-25 -9 -65 -14l4 -8v-36q0 -25 -25 -25q-29 0 -29 58q-56 -9 -79 -33l-7 -10v-58q10 -80 10 -97v-36q0 -47 -32 -87q4 -77 4 -108q0 -43 -33 -43q-21 8 -21 29v76q0 26 -11 28h-40q-23 0 -54 -21q4 -20 4 -33l-18 -14h-7q-28 0 -36 47h-8
q-39 0 -39 -51l-18 -14h-11q-32 0 -32 50l-8 -3h-25q-21 0 -61 14q-4 0 -11 -3l-147 36q-36 30 -36 86q8 26 39 76q18 68 18 72q-3 30 -3 50v54q0 10 -18 32h-4v-64q-4 -44 -36 -44t-32 116v7q-4 0 -11 3l3 -25v-75q0 -22 -25 -29q-25 7 -25 21q0 41 -4 152q-8 7 -50 25
q14 -161 14 -223q-7 -17 -14 -18h-22q-19 0 -25 151q0 88 -14 144q0 87 11 209v3q-29 96 -29 141q0 157 183 503q19 13 188 65q140 51 180 51q18 0 36 -18zM475 1029q0 -8 -86 -108q0 -16 -40 -137q2 -36 11 -36q54 27 83 108q43 114 43 130v25l-4 18h-7zM946 1018v-3
q4 -123 4 -137q-4 -68 -22 -68h-17q-22 0 -22 97h-4q0 -72 -57 -177q-15 -14 -22 -14q21 -50 61 -50h15q31 0 39 32q83 111 83 169v18q0 88 -58 133zM551 547h3q90 0 90 18q36 57 36 72v14q-1 8 -18 15q-9 -22 -29 -22q-25 0 -25 25q-15 -24 -39 -47q-18 -38 -18 -75z
M360 165q0 -18 3 -126q-3 -20 -3 -29l18 -10h18q14 57 14 79q0 14 -7 65q14 75 14 93v4q-3 0 -10 3q-44 0 -44 -64q-3 0 -3 -15zM626 18h40q7 0 7 10q0 63 -4 206q-8 0 -14 3q-29 0 -29 -68v-151zM479 43q6 -16 25 -29h3q26 62 26 166v46h-18q-24 0 -33 -147q-3 -19 -3 -36z
M759 205v-33q0 -9 -10 -43v-61h3l11 7h7l25 -7v43q-4 101 -21 101h-7q-8 -1 -8 -7z" />
    <glyph glyph-name="question" unicode="?" horiz-adv-x="637" 
d="M200 1328h8q148 0 296 -76q100 -63 100 -244v-20q0 -126 -112 -168q-14 -12 -40 -12q-48 8 -56 8q-25 0 -100 -200q-47 -280 -72 -280q-7 -20 -20 -20q-78 28 -120 80q-48 78 -48 152v12q0 82 60 184q0 57 140 168q28 32 28 80v4q0 68 -40 68q-63 -4 -92 -4
q-78 67 -92 120v12q0 37 64 120q36 16 96 16zM88 284q152 -51 152 -136q0 -40 16 -56q-34 -92 -120 -92q-94 0 -128 116q-8 39 -8 44q48 124 88 124z" />
    <glyph glyph-name="at" unicode="@" horiz-adv-x="928" 
d="M228 1354h28q159 -32 356 -56q57 0 152 -96q41 -48 64 -216q28 -281 28 -324q0 -135 -40 -256q-4 -20 -4 -52v-136q0 -61 8 -236q-3 -32 -32 -32q-40 0 -40 200q-8 114 -8 192h-28q-70 0 -84 40h-4q-10 -11 -52 -16l4 -48v-16q0 -5 -20 -20h-20q-16 0 -20 60l-20 -4h-84
q-76 0 -104 68q-32 133 -32 204v8q0 88 64 284q66 68 112 68h12q60 0 100 -84q12 -26 12 -56v-112q0 -60 32 -60q28 -16 40 -16q12 20 12 40v36q-23 364 -52 364l-44 12v-48q0 -32 -32 -32q-25 0 -28 32v48q0 32 -84 44q-58 12 -76 12q-100 -15 -100 -100q-4 -20 -4 -52v-40
l-20 -288v-40l32 -380q0 -32 144 -52q151 -40 240 -52q60 -23 60 -68v-140q-20 -172 -72 -172h-8q-38 0 -56 188v72q-4 0 -12 4q-56 0 -244 -68h-36q-125 0 -180 188q-88 493 -88 744v24q0 269 164 408q42 28 64 28zM420 738v-120q0 -63 20 -72q23 0 44 36v68q-7 88 -56 88
h-8z" />
    <glyph glyph-name="A" unicode="A" 
d="M420 1343q20 -11 20 -24h24q31 0 112 -320q69 -208 92 -348q27 -196 56 -196q48 -76 104 -260q60 -118 60 -192q-40 -168 -88 -168q-28 0 -44 124q-4 0 -12 16q-50 -40 -68 -40h-8q-26 0 -60 96q-27 176 -44 176q0 24 -92 44q-17 0 -76 -52h-4q-7 0 -52 48q-28 0 -40 -60
q-52 -136 -52 -184v-120q0 -96 -48 -96q-52 0 -52 240q-11 27 -32 40q-52 0 -52 -20q0 -9 -4 -16q4 -56 4 -96v-36q16 -89 16 -128q0 -35 -20 -44h-12q-22 0 -28 20l4 36q0 21 -16 96q0 69 -4 152q4 28 4 44q-8 13 -8 24v20q24 127 24 152q-8 66 -8 104v12q32 200 48 340
q10 4 96 168q13 0 40 148q128 243 128 264l64 36h28zM428 719q0 -136 -52 -184v-16q30 -36 56 -36h8q64 22 64 36q-8 236 -40 236h-16q-20 -9 -20 -36z" />
    <glyph glyph-name="B" unicode="B" horiz-adv-x="884" 
d="M434 1345q176 -51 176 -232v-12q-16 -142 -16 -188v-12q0 -73 68 -104q121 -105 160 -212q20 -42 24 -84q0 -179 -132 -304q-47 -4 -136 -56l-48 -12q-22 4 -36 4h-4q-47 0 -112 -56q-92 -14 -92 -88q-19 -44 -40 -44q-10 0 -44 32h-8q-12 0 -28 -116q-14 -31 -36 -36
q-32 7 -32 48v20l16 112v68q-36 0 -36 80v68q0 51 8 124q0 47 -32 376q-19 389 -60 428q-24 49 -24 64v36q0 62 176 80q0 7 80 8h32q26 0 52 -4q86 12 124 12zM278 1029v-44q0 -80 48 -80q85 0 124 72q4 41 4 64v16q0 88 -76 88q0 5 -44 12q-56 0 -56 -128zM366 561v-44
q0 -132 28 -132h8q32 0 32 48v56q0 94 -32 116h-4q-32 0 -32 -44zM482 457q7 -60 24 -60h16q44 29 44 96q0 52 -44 52q-34 0 -40 -88z" />
    <glyph glyph-name="C" unicode="C" horiz-adv-x="862" 
d="M558 1352h4q132 -15 132 -124q0 -504 -48 -504q0 -8 -20 -8q-28 10 -28 40l28 284v4q-9 0 -60 20l-8 -4h-32q-100 -20 -100 -56q-64 -84 -64 -200q-11 -27 -24 -32q-10 0 -40 48h-8q-28 0 -28 -128v-64q0 -166 132 -224q26 -8 36 -8h20q76 0 236 104l28 8h8q71 0 84 -120
l4 -40q-9 -141 -52 -164l-116 -56q-11 -8 -80 -12l-24 4q-204 -16 -204 -40q-11 -13 -24 -180q-15 -20 -32 -20h-4q-30 0 -40 164q-33 27 -88 164q-120 118 -164 336q-12 21 -12 56v52q0 149 120 368q25 21 72 128q21 43 128 96q0 6 88 64q24 37 180 44z" />
    <glyph glyph-name="D" unicode="D" horiz-adv-x="858" 
d="M188 1353q59 0 120 -56q71 0 140 -48q49 -19 176 -88q84 0 136 -264q16 -21 20 -188q0 -115 -28 -216q0 -72 -40 -276l4 -16q4 -94 4 -128q0 -36 -32 -36h-8q-25 0 -32 124v16l16 136q-65 -88 -140 -132q-112 -55 -112 -136q-8 -68 -44 -68q-14 2 -48 40q-98 40 -112 40
h-8q-54 -8 -60 -8q0 -248 -32 -248h-12q-32 0 -32 104q0 71 -4 148q-76 8 -76 72q0 9 60 132q24 46 24 156q0 300 -28 300q-20 18 -20 44q0 22 20 200q0 51 -48 148q-12 29 -12 80v28q0 108 48 108q67 32 160 32zM200 1017q0 -165 44 -240q16 -124 24 -416q26 -28 52 -28h36
q148 0 188 148q8 45 8 64v28q0 22 -36 152q0 247 -84 260q-34 0 -128 124q-30 20 -52 20h-4q-48 0 -48 -112z" />
    <glyph glyph-name="E" unicode="E" horiz-adv-x="844" 
d="M584 1395q104 0 104 -80q20 -21 20 -40v-64q0 -34 -12 -116q0 -38 4 -124q-4 -209 -4 -332q0 -21 -20 -32h-20q-22 0 -28 132q4 195 4 260q-52 76 -88 76h-28q-89 -24 -116 -24h-48q-72 0 -72 -92v-8q0 -160 68 -160h12q99 24 104 24q100 -28 100 -96q-32 -60 -32 -140
q0 -112 -44 -112q-24 8 -24 32q8 70 8 88v4q-160 -16 -160 -48q-8 -67 -8 -112q0 -104 44 -104h8l124 20q29 0 76 -40h4q71 72 116 72q17 24 36 24q52 0 52 -220q8 -112 8 -136q0 -14 -4 -68q12 -119 12 -228q0 -24 -28 -24q-32 0 -32 72l-16 112q4 88 4 96q0 15 -88 28
q-104 -12 -140 -12h-88q-80 0 -80 36h-4q-54 -48 -120 -48h-76q-84 15 -84 112v16q0 65 60 200q4 21 4 40v60q0 50 -24 212v188q0 186 -60 260q-8 27 -8 48v52q0 96 168 96q158 20 180 20h36q23 0 136 68q44 12 64 12z" />
    <glyph glyph-name="F" unicode="F" horiz-adv-x="818" 
d="M738 1366q52 0 52 -88q0 -130 -76 -224q-31 -83 -48 -116q-10 -8 -12 -8h-8q-44 8 -44 72q-27 40 -76 40q-156 -19 -156 -28q-16 0 -20 -68v-64q0 -80 84 -80q8 0 56 8q58 0 76 -120q0 -12 -12 -68v-56q0 -240 -36 -240h-20q-7 0 -20 24l4 24q-4 96 -4 152v28q0 8 -8 8
h-40q-60 0 -60 -128v-136q0 -115 -76 -148q-42 -68 -88 -68q-48 0 -48 -68q-11 -27 -36 -44h-8q-36 0 -36 48v64q0 279 36 336q8 56 8 108q0 51 -40 136q0 5 -4 40l24 312q0 53 -36 68q-12 -100 -12 -148v-28q8 -195 24 -408v-16q-4 -132 -28 -132h-20q-20 12 -20 24
q0 76 -16 312q0 20 4 140q-16 132 -28 352v4q0 73 72 144q20 8 28 8q172 -4 264 -4q16 0 72 4v-4l8 4q108 0 324 32z" />
    <glyph glyph-name="G" unicode="G" horiz-adv-x="919" 
d="M420 1352q98 -32 112 -32q19 0 96 28h8q14 0 148 -36q80 -29 80 -88v-240q-12 -248 -48 -248h-8q-32 0 -32 32v8q20 65 20 212v44q0 52 8 72h-4q-48 -25 -48 -40q0 -84 -36 -84q-28 0 -28 28q0 10 4 60h-4q-104 -28 -132 -28l-60 20h-12q-53 -20 -120 -32
q-49 -99 -88 -128q-28 -47 -28 -100v-20q11 -330 44 -364q21 -52 40 -52q25 0 32 104q0 164 88 212q16 4 28 4q58 0 144 -68q10 -20 32 -20h16l28 4v-4q8 4 12 4q80 0 80 -92q0 -113 -84 -192q-88 -129 -164 -192q-44 -21 -44 -80v-24q0 -160 -32 -160h-16q-32 0 -32 200
q-25 48 -112 48q0 3 -40 16v-8q0 -92 12 -192q-8 -36 -36 -36q-32 0 -32 104q0 88 -20 152h-20q-11 0 -24 44q-40 0 -40 52h-4v-16q0 -65 -4 -216q4 -40 4 -60q-11 -60 -28 -60h-20q-4 0 -20 20q0 10 4 60q0 114 -24 388q-4 79 -4 204q-12 56 -12 132q0 351 240 572
q126 84 180 88z" />
    <glyph glyph-name="H" unicode="H" horiz-adv-x="889" 
d="M354 1354h8q20 0 24 -60v-40q0 -73 -12 -344q0 -64 96 -64h4q16 0 24 48q-4 209 -4 332v24q0 100 48 100h8q26 0 84 -20h16q63 16 68 16h8q35 0 44 -56q-4 -154 -4 -240q0 -14 20 -116v-224q0 -234 24 -404q12 -87 12 -152v-32q0 -80 -40 -80q-21 14 -44 64l-12 8h-8
q-100 -14 -100 -36q-15 0 -44 -104l-8 -4h-12q-28 0 -28 228v144q0 55 4 144q-22 88 -36 88q-11 -132 -36 -132h-16q-20 10 -20 32v116h-4q-34 0 -44 -56q4 -310 4 -408q-5 -48 -20 -48h-12q-5 0 -56 60h-16q-44 0 -48 -104q0 -64 -36 -64h-4q-22 0 -40 108q-56 46 -56 140
v252q0 140 -40 160q-4 -167 -4 -208q0 -47 4 -240q0 -96 -40 -96q-28 12 -28 36q4 356 4 388q-10 0 -16 36q4 127 8 152q-8 16 -8 44v16q0 45 80 88q24 44 24 112v20q-24 164 -24 212v40q0 80 60 80q16 0 96 16v-4q4 0 4 4q42 -12 52 -12q65 40 92 40z" />
    <glyph glyph-name="I" unicode="I" horiz-adv-x="439" 
d="M224 1426h12q15 -13 36 -88q68 -41 68 -116l-36 -208q-8 -53 -8 -152v-28q0 -25 44 -92q32 -121 32 -384q16 -95 16 -132q0 -80 -60 -80q-15 0 -80 24h-8q-14 -2 -36 -84q-48 -46 -48 -144q-14 -52 -48 -52q-40 0 -40 240q-5 0 -12 80q12 283 12 348v12q0 38 -44 388
l-24 316q0 68 44 68q27 0 64 -8q75 0 96 60q0 22 20 32z" />
    <glyph glyph-name="J" unicode="J" horiz-adv-x="657" 
d="M432 1314h24q37 0 52 -284q9 0 24 -296q0 -31 48 -96q8 -39 8 -44q-4 -59 -4 -104q0 -24 36 -80q8 -16 8 -44q-32 -232 -64 -232q-28 -31 -28 -76v-16q0 -40 4 -96q-5 -36 -32 -36q-21 26 -48 132l-24 20h-20q-115 -40 -172 -40h-8q-94 32 -104 32q-132 0 -132 76
q4 80 4 140q18 76 76 76q168 0 204 40q24 25 24 96v36q0 94 -20 184h-4l4 -40v-68q0 -17 4 -44q-8 -25 -20 -28h-20q-32 0 -32 264q-7 0 -8 100v68q0 31 -36 180v20q0 21 44 108q14 48 44 48q8 0 108 -60h8q6 0 44 60z" />
    <glyph glyph-name="K" unicode="K" horiz-adv-x="752" 
d="M580 1352q57 0 68 -96v-12q0 -424 -28 -424h-16q-28 0 -28 28v104q0 70 12 144q-61 -47 -96 -228v-72q0 -79 100 -148q80 -65 80 -88q12 0 16 -80q-12 -362 -32 -432v-16q0 -45 4 -116q-8 -25 -20 -28h-20q-14 8 -20 24q-4 99 -4 156v8q0 32 4 84q-24 79 -40 172
q-23 0 -160 164l-24 12q-24 0 -24 -52q16 -229 16 -264v-8q0 -88 -92 -88q-43 0 -116 -40q-48 0 -48 152q-9 36 -16 36h-4q-16 -102 -16 -180q8 -113 8 -144v-28q0 -36 -32 -36h-12q-23 0 -28 136q4 28 4 44v56q0 40 4 120h4q0 4 -4 4q0 5 4 12q0 9 -4 16l24 320
q-4 145 -4 244v204q-40 160 -40 196q0 80 88 80q58 0 112 36q7 4 20 4q35 0 56 -260l16 -24q37 0 128 228q24 80 88 80h72z" />
    <glyph glyph-name="L" unicode="L" horiz-adv-x="695" 
d="M212 1304q7 -4 12 -4q32 4 40 8q45 0 52 -72q-20 -128 -20 -260q4 -519 4 -560q0 -49 184 -72q40 -16 132 -24q48 -14 48 -124v-44q-8 -100 -8 -144v-8q0 -37 4 -104q-9 -24 -32 -24q-36 0 -36 84v60l4 8h-4q-14 -12 -56 -104q-33 -48 -40 -48h-12q-46 0 -56 156
q-32 60 -100 60q-214 0 -292 80q-28 31 -28 60v24q0 85 52 176l-4 8v164q-15 -12 -28 -12q-22 0 -28 32l20 576q-12 62 -12 84q0 25 78.5 42.5t125.5 -18.5z" />
    <glyph glyph-name="M" unicode="M" horiz-adv-x="1012" 
d="M108 1373q32 0 92 -72q14 -17 88 -24q64 -39 64 -112q39 -165 116 -368q36 -108 56 -112h8q9 4 116 228l88 128q11 37 28 204q11 26 24 32h8q29 0 36 -160q16 -80 52 -368q27 -91 40 -336q72 -80 72 -196q0 -77 -68 -116q-14 -11 -36 -160q-2 0 -20 -16q-19 0 -40 112
q-14 20 -28 20q-35 -69 -44 -72h-4q-42 0 -76 300q-4 76 -32 76q-35 0 -72 -84q-10 -95 -68 -184q0 -84 -44 -84q-24 0 -24 232q-21 196 -60 196h-12q-21 0 -32 -148q-71 -248 -96 -260q-7 -4 -16 -4h-12q-59 52 -72 52q-24 -4 -24 -8q0 -107 16 -188v-28q0 -5 -20 -20h-16
q-24 15 -24 40q4 8 4 12q-16 51 -16 172v44q-60 0 -60 84q10 60 56 212q4 14 4 44v96q-11 7 -24 128q20 459 44 684v4q12 20 28 20z" />
    <glyph glyph-name="N" unicode="N" horiz-adv-x="783" 
d="M640 1426q21 -10 40 -64q9 -12 56 -36q12 -20 12 -44q-26 -300 -44 -300q-8 -28 -8 -48v-176q0 -55 -16 -340v-88q-10 -280 -36 -280l-16 -4q-17 5 -24 20v124h-4q-40 -40 -68 -40q-56 0 -108 212q0 39 -68 92l-8 4q-16 -23 -16 -28q4 -138 4 -216v-8q0 -68 -56 -112
q-24 -72 -40 -72h-16q-42 23 -104 124q-43 16 -48 16q-4 -86 -4 -120l4 -136q-17 -16 -32 -16q-18 6 -28 24v244q0 85 -12 168q4 284 12 348q-4 176 -4 316q0 102 8 124q-8 16 -12 64q0 156 64 156q20 4 48 4h68q73 0 168 -332q24 -172 60 -172h12q17 0 40 184
q-4 209 -4 296q7 64 44 64h12q49 -16 60 -16q12 0 48 64h16z" />
    <glyph glyph-name="O" unicode="O" 
d="M402 1364q143 0 288 -228q56 -100 56 -308q36 -118 36 -156q-44 -352 -44 -540v-100q0 -32 -32 -32q-22 0 -28 32q0 38 -4 252q-96 -108 -96 -156q0 -160 -48 -160q-20 0 -44 108q-14 20 -32 20q-99 0 -128 -96q-40 -63 -40 -72q-9 -88 -32 -88h-8q-40 0 -40 132
q0 138 -44 152q-130 141 -144 228q-28 74 -28 240v56q0 155 40 196q32 106 52 252q44 112 124 112q21 0 140 132q28 24 56 24zM330 692h-4q-13 9 -40 88q-7 4 -12 4q-28 0 -60 -132v-48q0 -174 76 -228q32 -40 68 -40h12q76 21 160 116q44 86 44 236q0 163 -52 216
q-21 92 -28 92v-76q0 -34 -8 -188q-2 0 -20 -16h-20q-5 0 -20 20v156q0 40 4 120q-68 -31 -68 -164q-9 -156 -32 -156z" />
    <glyph glyph-name="P" unicode="P" horiz-adv-x="792" 
d="M348 1366h32q5 0 80 -24h16l20 4v-4q19 8 36 8q111 0 204 -168q16 -48 16 -60v-92q0 -32 -60 -188q-9 -39 -52 -116q0 -172 -32 -172h-16q-22 0 -36 152q-10 8 -12 8h-24q-76 -27 -76 -84v-24q0 -134 24 -348v-20q-13 -160 -80 -160q-28 0 -136 -80q-13 -8 -24 -8
q-48 0 -48 84q8 276 8 312l-24 232h-4v-8q4 -246 4 -392v-28q0 -5 -20 -20h-8q-36 0 -36 52q0 78 4 232q-8 76 -8 112q0 38 12 108q-4 60 -4 100v52q-13 0 -28 12v-124q-16 -409 -16 -588v-20q-2 -72 -32 -72q-21 0 -32 32q4 221 16 572q-16 134 -16 160t4 216h4
q-24 39 -24 80q0 59 52 148q137 103 316 124zM312 1038v-4q0 -25 12 -148v-72q0 -48 20 -48q27 0 36 64q-4 27 -4 44v4q8 92 32 92h8q21 -4 24 -4q4 12 24 12q9 0 24 -12q24 71 24 148v20q0 6 -12 12h-8l-20 -4q-15 32 -40 32q-100 -19 -100 -60q-20 -39 -20 -76z" />
    <glyph glyph-name="Q" unicode="Q" horiz-adv-x="884" 
d="M472 1374h16q132 0 212 -112q18 -22 56 -168q36 -25 72 -208q0 -71 4 -84q-4 -20 -8 -88l4 -24q-3 -360 -28 -360q-3 0 -24 -4q-36 0 -36 92h-4q-4 -47 -4 -68v-24q0 -72 56 -188q4 -15 4 -32v-56q0 -50 -84 -116q-8 -4 -12 -4q-53 0 -104 180q-10 8 -16 8
q-35 0 -68 -120q-13 -20 -32 -20q-8 8 -36 60q-7 0 -24 8q-40 -8 -72 -8h-32q-75 0 -132 64q-32 104 -72 104q-52 0 -108 196q-20 80 -20 124v208q24 190 76 276q71 43 96 120q32 74 112 156q98 88 208 88zM424 894v-60q-9 -40 -36 -40q-32 13 -32 52v28q0 38 4 92
q-7 56 -20 56h-4q-55 0 -100 -164q-36 -44 -36 -160q0 -120 40 -216q27 -120 64 -120v-4q33 0 68 104q38 41 92 52q92 17 92 44q16 0 44 260v100q0 103 -64 128h-20q-88 -81 -88 -104q-4 -21 -4 -48z" />
    <glyph glyph-name="R" unicode="R" horiz-adv-x="805" 
d="M404 1370q112 0 204 -100q56 -79 56 -320q0 -99 -108 -152q-20 -30 -20 -80v-36q0 -80 76 -196q140 -246 148 -284v-36q0 -36 -72 -96q-47 -80 -76 -80q-59 26 -164 284l-16 16h-4q0 -13 -4 -20q4 -67 4 -104v-28q0 -92 -92 -92q-64 -27 -64 -72q-64 -50 -64 -124
q-10 -40 -32 -40q-24 26 -24 76q4 41 4 64v100q8 184 8 204v40q0 22 -20 144q4 115 4 164q-12 33 -56 252h-12q8 -119 8 -164v-48q0 -32 -8 -72q8 -40 8 -80v-236q0 -32 4 -84q0 -24 -32 -28q-36 0 -36 84l4 24q-8 73 -8 236v132q0 59 -4 104q4 22 4 80q-12 343 -20 396
q0 128 40 128q22 15 84 24v-4q84 24 280 24zM316 1098q16 -240 32 -240q7 -4 16 -4h12q27 0 40 120q0 176 -32 176q0 6 -12 12h-8q-36 0 -48 -64z" />
    <glyph glyph-name="S" unicode="S" horiz-adv-x="805" 
d="M352 1368h36q101 0 152 -84q12 -44 12 -68q-15 -124 -112 -124q-44 -16 -44 -84q0 -101 84 -132q152 -64 152 -120q27 -96 60 -96q56 -26 56 -96q8 0 8 -88v-16q0 -108 -52 -244q-6 -200 -44 -200h-8q-18 14 -36 88l-16 12h-8q-101 -48 -172 -48q-13 0 -68 4
q-24 0 -76 -76q-17 -9 -48 -72q-14 -4 -16 -4q-24 14 -24 108q0 89 -80 120q-22 18 -96 60q-19 27 -20 60q0 76 44 76q57 -16 76 -16q229 21 272 36q44 26 44 96v28q0 65 -68 104q-56 111 -88 112q-88 20 -132 64q-136 89 -136 188q-24 86 -24 120v12q28 184 56 184
q13 31 92 68q33 8 44 8l72 -16q55 36 108 36zM256 1068v-24q0 -84 48 -84v-4q36 5 36 52v28q0 92 -52 92q-32 0 -32 -60z" />
    <glyph glyph-name="T" unicode="T" horiz-adv-x="880" 
d="M358 1422q11 0 80 -28q65 0 240 12q76 0 140 -116q16 -35 16 -76v-32q0 -22 -20 -80q-14 -387 -32 -448q0 -12 -16 -20h-8q-25 0 -32 32q4 27 4 44q0 109 -4 300l4 40q-4 15 -4 36h-24q-8 -1 -8 -8v-88q0 -74 8 -256q0 -63 -4 -116q4 -250 16 -452v-64q0 -28 -28 -28
q-32 0 -32 72q-20 238 -20 552q0 42 -8 128q8 94 8 172v72q-13 0 -28 12h-32q-18 0 -36 -96q-32 -35 -32 -72v-44q0 -41 40 -112q20 -93 20 -176v-84l28 -328q0 -72 -52 -72q-61 24 -64 24h-8q-40 0 -44 -184q-9 -48 -32 -48q-34 0 -44 156q-18 20 -72 20q-36 41 -36 224v64
l24 188q0 240 -28 292q-14 214 -36 228l-12 8h-8q-14 0 -84 -48l20 -468q-5 -40 -40 -40q-24 8 -24 32v32q0 59 -4 112l4 36l-16 232q-17 13 -52 104q-36 37 -36 84q0 82 136 160q87 85 264 116h8z" />
    <glyph glyph-name="U" unicode="U" horiz-adv-x="796" 
d="M192 1374h20q20 0 32 -92l16 -12l48 4q20 -21 20 -36v-80q0 -156 -60 -432v-80q0 -188 72 -188h8q124 0 124 164q4 22 4 80v36q-24 217 -24 280v132q0 89 44 124q31 5 72 88q20 12 32 12h12q48 0 64 -88q64 -41 64 -100q-44 -560 -52 -804q12 -174 12 -224v-84
q0 -24 -28 -32q-28 0 -32 44q0 90 -12 264q4 0 4 4h-8q-35 -85 -136 -160q-8 0 -92 -64q-28 -8 -48 -8h-48q-46 0 -80 -68q-27 -22 -48 -92l-16 -12h-12q-31 0 -36 212q-44 80 -80 352q-23 79 -28 116q24 95 24 124q-8 120 -8 164v132q27 312 76 312h12q7 0 44 -8
q14 0 44 20z" />
    <glyph glyph-name="V" unicode="V" horiz-adv-x="770" 
d="M524 1370q58 -16 100 -32h4q53 20 56 20q21 0 24 -40l-16 -140q-8 -151 -8 -288v-204q0 -42 -16 -344v-12q0 -78 16 -252v-108q0 -5 -20 -20h-20q-38 0 -52 516q0 76 12 272v8h-4q-31 -113 -84 -188q-20 -89 -44 -384q-4 -46 -4 -88q4 -73 4 -92q-11 -36 -28 -36
q-25 0 -32 76q-12 23 -108 76q-9 10 -80 20q-68 30 -68 228q-11 31 -16 140h-4q-12 -339 -12 -452q-15 -12 -28 -12h-12q-20 10 -20 36q0 70 8 312q-7 0 -20 392q0 71 4 228l-56 224v32q0 60 32 60q0 -5 28 -16q14 0 68 60l20 4q112 -14 112 -44q56 -250 56 -524l4 -16h4
q17 13 52 140q14 0 88 376q26 72 60 72z" />
    <glyph glyph-name="W" unicode="W" horiz-adv-x="986" 
d="M740 1376q58 0 92 -108q88 -28 88 -48q8 -30 8 -56q0 -16 -12 -108v-12l20 -180q-32 -403 -84 -844q-22 -20 -36 -20q-28 0 -28 56v120q0 36 -4 80q20 114 40 320q32 227 36 348q-30 -32 -48 -232q-64 -251 -64 -336q-64 -119 -64 -136v-48q0 -152 -28 -152h-4
q-21 0 -52 148q-48 52 -48 224q-32 127 -56 136h-12q-47 0 -60 -276q-3 -20 -12 -20h-4q-5 0 -36 48h-20q-75 -84 -88 -84q-56 0 -56 204q-31 193 -92 280q-20 53 -24 84h-4q-16 -193 -16 -300v-44q0 -64 8 -268q0 -62 -28 -80h-20q-4 0 -20 20q4 54 4 76q-24 928 -48 928
q-7 0 -8 40v40q0 96 120 96q45 45 72 60h16q30 0 68 -184q68 -104 68 -188q32 -188 60 -188q27 9 100 240q24 40 48 40q37 0 48 -152q16 -52 32 -52q52 33 64 276q36 244 60 244q13 8 24 8z" />
    <glyph glyph-name="X" unicode="X" horiz-adv-x="884" 
d="M124 1378q13 0 80 -28q46 20 52 20q52 0 96 -84q50 -152 80 -188h8q26 27 92 208q31 64 60 64h12q56 0 100 -92l20 -4h4q34 28 48 28h12q28 0 28 -200q-8 -163 -8 -176q8 -178 8 -196q0 -192 -28 -192h-8q-32 0 -32 32v36q0 73 4 92q-4 53 -4 112v136q0 28 -4 88
q-116 -201 -116 -312v-32q0 -112 64 -232q0 -87 92 -136q52 -71 52 -136v-60q0 -49 -48 -116q-18 -100 -32 -100h-8q-22 0 -32 196q-16 28 -32 28q-58 -20 -88 -20q-41 0 -92 136q-40 88 -64 100q-46 0 -116 -236q-70 -68 -112 -68q-38 0 -56 144q16 296 44 320
q56 97 56 180v40q-22 232 -48 232q-40 49 -52 52q-19 0 -44 32q-16 8 -24 8v-24l20 -260q0 -39 -4 -204q8 -94 8 -152v-116q0 -36 -32 -36h-12q-6 0 -16 16v112q-12 349 -36 556q0 48 -16 244q10 168 36 168q10 11 88 20z" />
    <glyph glyph-name="Y" unicode="Y" horiz-adv-x="765" 
d="M124 1382h12q33 0 76 -88q39 -25 72 -144q0 -31 20 -52q20 0 76 100q108 151 152 152h4q19 0 64 -52q132 -13 132 -84v-16q0 -26 -32 -232q-8 -42 -8 -264q0 -58 -28 -156v-36q0 -36 -32 -36q-24 0 -32 40q8 44 16 224q-4 21 -4 40v52q1 85 12 112q-8 59 -8 72
q-160 -162 -160 -204q-4 -35 -4 -60v-88q-16 -106 -16 -128v-20q0 -71 44 -164q8 -21 8 -44q0 -100 -52 -188q-9 -188 -44 -188h-16q-46 0 -60 136q-34 116 -56 116q-4 0 -52 -16h-16q-22 8 -24 76v132q0 55 -12 260q8 83 8 128q0 126 -68 236q8 -38 8 -92q0 -30 -20 -256
q8 -117 8 -128q-4 -160 -4 -240q0 -10 4 -60q-6 -20 -28 -20h-12q-24 13 -24 52q0 60 4 292q-28 257 -28 316v244q0 28 -24 152v4q0 56 80 68q36 52 64 52z" />
    <glyph glyph-name="Z" unicode="Z" horiz-adv-x="844" 
d="M98 1374q373 -20 408 -64q0 -12 48 -16q27 16 48 16h4q49 0 60 -80q6 0 12 -12q-4 -217 -12 -320q0 -13 4 -68q-4 -150 -4 -276l-20 -16h-16q-20 12 -20 24q-8 133 -8 180v32q0 72 8 152q-4 29 -4 72h-4q-56 -190 -132 -388q-8 -28 -8 -48v-80q0 -38 100 -92h4
q48 24 56 24h4q38 0 148 -92q20 -47 20 -64v-68q0 -4 -4 -4l4 -8v-76q0 -4 -4 -4l4 -8v-44q0 -4 -4 -4l4 -8v-28q0 -4 -4 -4l4 -8q0 -4 -4 -4q0 -4 4 -4q0 -76 -36 -76q-26 0 -32 36v20q0 72 -8 152h-4q-160 16 -204 16h-20q-4 0 -4 4q-4 0 -4 -4l-28 4h-108q-54 0 -76 -68
q0 -13 -52 -44q-10 -17 -28 -100l-16 -12h-16q-36 0 -36 196q-17 33 -72 48q-47 0 -60 56v32q0 42 52 84q14 13 28 96q63 79 68 132q15 49 148 312q4 26 4 52v20q0 68 -60 68q-6 0 -124 -20v-152q0 -232 -36 -232q-8 -4 -12 -4q-28 13 -28 32q8 38 8 56q0 14 -8 76
q16 160 16 240l-28 236v4q0 128 80 128z" />
    <glyph glyph-name="bracketleft" unicode="[" horiz-adv-x="1382" 
d="M749 1468q259 -50 323 -97q8 -8 155 -86q43 -46 51 -97q-4 -156 -15 -184q15 -101 54 -216q4 -13 4 -32v-62l-18 -252q0 -86 -33 -86h-7q-21 11 -21 40v57h-4q-64 -86 -112 -101q-7 -61 -7 -100v-112q0 -36 4 -108q-16 -14 -18 -14h-7q-33 0 -33 90q-6 38 -11 86
q8 49 8 122q-4 0 -4 4q-25 -9 -65 -14l4 -8v-36q0 -25 -25 -25q-29 0 -29 58q-56 -9 -79 -33l-7 -10v-58q10 -80 10 -97v-36q0 -47 -32 -87q4 -77 4 -108q0 -43 -33 -43q-21 8 -21 29v76q0 26 -11 28h-40q-23 0 -54 -21q4 -20 4 -33l-18 -14h-7q-28 0 -36 47h-8
q-39 0 -39 -51l-18 -14h-11q-32 0 -32 50l-8 -3h-25q-21 0 -61 14q-4 0 -11 -3l-147 36q-36 30 -36 86q8 26 39 76q18 68 18 72q-3 30 -3 50v54q0 10 -18 32h-4v-64q-4 -44 -36 -44t-32 116v7q-4 0 -11 3l3 -25v-75q0 -22 -25 -29q-25 7 -25 21q0 41 -4 152q-8 7 -50 25
q14 -161 14 -223q-7 -17 -14 -18h-22q-19 0 -25 151q0 88 -14 144q0 87 11 209v3q-29 96 -29 141q0 157 183 503q19 13 188 65q140 51 180 51q18 0 36 -18zM475 1029q0 -8 -86 -108q0 -16 -40 -137q2 -36 11 -36q54 27 83 108q43 114 43 130v25l-4 18h-7zM946 1018v-3
q4 -123 4 -137q-4 -68 -22 -68h-17q-22 0 -22 97h-4q0 -72 -57 -177q-15 -14 -22 -14q21 -50 61 -50h15q31 0 39 32q83 111 83 169v18q0 88 -58 133zM551 547h3q90 0 90 18q36 57 36 72v14q-1 8 -18 15q-9 -22 -29 -22q-25 0 -25 25q-15 -24 -39 -47q-18 -38 -18 -75z
M360 165q0 -18 3 -126q-3 -20 -3 -29l18 -10h18q14 57 14 79q0 14 -7 65q14 75 14 93v4q-3 0 -10 3q-44 0 -44 -64q-3 0 -3 -15zM626 18h40q7 0 7 10q0 63 -4 206q-8 0 -14 3q-29 0 -29 -68v-151zM479 43q6 -16 25 -29h3q26 62 26 166v46h-18q-24 0 -33 -147q-3 -19 -3 -36z
M759 205v-33q0 -9 -10 -43v-61h3l11 7h7l25 -7v43q-4 101 -21 101h-7q-8 -1 -8 -7z" />
    <glyph glyph-name="backslash" unicode="\" horiz-adv-x="1749" 
d="M95 1649h1572q5 -1 5 -5v-1993q0 -5 -5 -5h-1572q-5 0 -5 5v1993q1 5 5 5zM113 1618v-1942h1536v1942h-1536zM1122 1583h25q7 0 13 -26h3l12 3q20 -2 28 -10q0 10 18 10v-3l5 3l18 -3v8q0 18 23 18h22q7 0 13 -26l15 3q26 -3 26 -10v-64q0 -3 -13 -12h-31v-142
q0 -38 -5 -38q3 -3 5 -33q-3 -10 -7 -10h-5q-8 0 -8 43h-2q0 -15 -8 -15q-8 2 -8 15v17h-5v-38q0 -12 3 -38l-5 -2h-5q-5 0 -5 5v13q0 18 2 28l-5 98q3 19 3 46v51h-31q-1 0 -12 12q0 -3 -13 -12h-31v-66q0 -6 3 -10l-3 -5q3 -36 3 -61q0 -11 -5 -36q2 -26 2 -40l-7 -5h-3
q-10 0 -10 43h-2q0 -15 -5 -15q-8 0 -11 32h-2l-3 -15q3 -58 3 -61q-6 -5 -8 -5q-3 0 -7 11q0 16 2 32q-2 49 -2 87q0 11 -3 15q3 14 3 23v76h-28q-15 9 -15 23v45q0 18 22 18h3l18 -3q0 26 20 26zM1008 1578h35q11 -4 11 -18v-25q0 -22 2 -46l-2 -13q2 -21 2 -35
q0 -3 -2 -8l2 -15v-13q0 -14 -2 -17q2 -14 2 -23v-8q0 -51 -15 -51q-5 0 -18 -17h-10v-8q0 -8 -3 -8l3 -12v-20q0 -4 -8 -8h-2q-8 2 -8 15v20q0 28 -7 31q-9 -5 -16 -5q-6 0 -7 10h-3v-31q0 -3 -7 -7q-5 0 -5 5l2 25q-2 14 -2 26q-10 -13 -21 -13q-15 13 -15 51q3 61 3 96
v86q0 20 12 26h21q25 0 25 -31v-172q1 -5 5 -5h10q8 1 8 20v180q0 14 10 18zM219 1575h3q35 0 35 -23q11 -63 11 -73h2q7 86 28 86q2 0 15 -2q13 2 15 2q11 -4 11 -8q-33 -189 -38 -246l-6 -2h-2l-10 8q-6 -6 -10 -6v-27q0 -4 -8 -8q-7 0 -13 63q-12 0 -17 64h-3
q-5 -77 -15 -102q0 -7 -5 -7h-3q-5 0 -5 5v30q0 13 -5 31h-2q-11 -46 -18 -46h-3q-9 0 -15 74q-13 42 -30 177l7 5h36q12 0 25 -84h3q7 89 17 89zM678 1575q65 0 76 -43q3 -17 3 -28v-96q0 -37 -3 -114l-5 -3l-7 5l2 26v15q-8 0 -12 -18l2 -15v-13q0 -3 -8 -7h-2q-5 0 -5 5
v30q0 5 -5 5q0 -3 -8 -7h-5l-13 7l-5 -7v-26q0 -3 -7 -7h-3q-2 0 -7 10l2 12q-2 18 -2 21l-13 -3l-5 10q2 18 2 28v3q-5 -1 -5 -5v-16q0 -22 3 -50q-4 -23 -10 -23q-4 0 -8 8q-2 87 -2 111q0 9 2 23q-2 13 -2 15q2 72 2 124v3q0 20 38 20h10zM404 1573h16q28 0 50 -51
q0 -33 3 -81q0 -12 -3 -59q3 -45 3 -60q-3 -40 -3 -59l-5 -2q-7 0 -10 48q-13 10 -13 28h-2q0 -26 -10 -26l-5 3q-5 -3 -10 -3q-8 10 -8 16q-8 0 -8 -33l3 -10q-3 -13 -8 -13l-5 10l3 25q-2 21 -8 21q-7 -7 -12 -41l-6 -2q-5 0 -10 38q-6 0 -12 25v142q0 84 60 84zM541 1573
h21q29 0 50 -51q0 -23 3 -30q0 -3 -3 -3l3 -30v-168q0 -5 -3 -10q3 -4 3 -10q-4 -10 -8 -10q-7 0 -10 50q-10 4 -10 23h-3q0 -21 -12 -23l-5 3q-5 -3 -10 -3q-6 16 -11 16q-5 -22 -5 -26q3 -14 3 -20q-4 -10 -8 -10q-2 10 -5 10l3 18v7q0 19 -8 21q-7 -8 -13 -41h-5
q-4 0 -12 41q-10 11 -10 23v124q0 99 55 99zM853 1570q48 -19 48 -58v-61q-3 -10 -22 -10q-28 0 -28 7v31l-3 13h-15q-8 0 -8 -66v-61l3 -13h15q7 0 10 36l8 5h20q19 0 20 -8v-25q0 -5 -7 -23q2 -35 2 -46l-5 -2q-7 0 -10 22l-5 -2q-5 0 -5 5v30h-3q-7 -18 -10 -45h-2
q-7 0 -10 25l-13 3l-5 -8v-23q0 -4 -15 -12h-3l-7 5q2 25 2 38v7q-15 0 -15 16h-3l-2 -13v-38q0 -5 -5 -5t-5 5q0 27 -3 101q3 81 3 117q0 30 45 53h33zM1360 1570h112q4 0 10 -10v-53q0 -21 -20 -21h-54v-55h36q4 0 10 -10v-36q0 -18 -18 -18h-28v-20l6 3q42 -3 63 -3
q8 -9 8 -18v-25q0 -5 -6 -5h-2q-4 0 -8 7v13h-5l-10 -18h-2q-7 0 -8 10h-3q0 -20 -7 -20h-5q-7 0 -10 33h-3q-8 -43 -15 -43h-5q-12 14 -23 15q-3 10 -3 18h-2q0 -11 -10 -15q-2 0 -8 7q3 26 3 38v11q0 17 -3 20q3 17 3 28v147q0 19 7 20zM1507 1570h71q49 -11 49 -71v-84
q0 -19 -16 -53q21 -38 21 -45v-8l-8 -28q0 -2 3 -20q-2 0 -13 -10q-4 0 -8 7v36h-5l-2 -13q2 -31 2 -33q-4 -10 -7 -10t-11 10l3 18v5q0 26 -28 79h-8v-23q-5 -25 -5 -28l3 -23q-3 -13 -8 -13h-2q-6 0 -8 13q3 22 3 33l-5 2q0 -5 -5 -5h-3q-5 0 -5 11h-3q0 -15 -2 -18
q2 0 5 -41q-4 -10 -8 -10h-5q-5 0 -7 15q0 6 5 46q-2 15 -5 15q2 64 2 94v122q0 30 10 30zM394 1489v-119l3 -13h15q8 3 8 15v97q0 28 -13 28h-5q-4 0 -8 -8zM536 1481v-12q0 -29 3 -54q-3 -14 -3 -45q2 -13 8 -13h10q4 0 8 8v116q0 14 -8 16h-2q-16 0 -16 -16zM683 1497
q0 -3 -2 -8l2 -5l-2 -5q2 -5 2 -8l-2 -5q2 -4 2 -10l-2 -5q0 -3 2 -3l-2 -12v-79l2 -13q5 3 11 3v124l2 26h-13zM1550 1492v-82h3l13 3v73q0 6 -5 6h-11zM519 1268q72 0 106 -71q25 -34 25 -119q-2 -10 -2 -20q13 -2 13 -8v-10q-8 -22 -8 -35q3 0 20 -23v-8h-5v-12
q0 -12 8 -43q-5 -3 -8 -3q0 -1 10 -30l-5 -3h-2l-5 3q0 -12 -11 -56h-7q0 25 -8 25q-5 -23 -5 -33v-7h-7q0 7 -5 7h-3q0 -27 -18 -30q-2 -28 -10 -28l-10 7q-5 -35 -5 -45h-3q-12 7 -12 15q-4 -3 -13 -23h-5q0 20 -8 20q-7 -22 -12 -22q-8 8 -8 12h-3l-7 -15h-8q-2 18 -7 18
q-7 -16 -13 -18q-5 12 -10 13l-10 -8h-3q-4 0 -18 23q0 -8 -5 -8h-5q-10 39 -10 44l-10 -13q-7 0 -10 51h-3v-6h-7l-10 56l-13 -10q-5 0 -5 5q5 22 5 28q0 10 -5 38l-10 -5q0 3 -3 3q3 25 3 38v17q0 5 17 36v7q-7 24 -7 36q0 2 13 18v25q0 78 65 137q29 23 82 30zM384 1109
v-38q10 -12 10 -13q0 -15 -5 -74q5 0 5 -5v-17h8v-21h2q0 10 6 10q5 0 5 -5v-22q5 -7 5 -11h5q0 32 30 49q5 -1 5 -5q0 -3 -15 -23v-3q8 5 15 5h8l-3 13v15q0 4 8 8q5 -1 5 -5q-3 -5 -3 -8q6 -8 6 -13l5 3h5q11 -13 20 -13h2l16 13h2l13 -3l2 13v3h-2q-5 -3 -8 -3l-2 5
q5 3 7 3v2l-7 13l5 2q18 -10 18 -30v-5l-3 -5l10 -3v13q1 5 5 5q3 -14 36 -51h2v13q1 5 5 5l5 -2v7l-2 18q2 0 2 2l6 -2h5q0 33 5 46l-5 48q12 3 12 35q0 128 -73 170h-3q-6 -2 -20 -30q10 -2 10 -8v-2l-63 -89q-3 5 -3 7q25 60 25 66q-22 5 -22 13l22 51h-2q-54 0 -107 -71
q-20 -50 -20 -76zM316 1230l2 -5q-2 -77 -2 -114l-10 -7q-4 0 -18 78q-7 5 -8 5h-61l-2 -25v-152h56q12 0 20 58h5q4 0 8 -8v-60q0 -3 -3 -3l3 -5v-79q0 -4 -11 -10q-5 4 -15 59l-5 2q-46 3 -58 3v-112q0 -66 20 -66q14 0 18 -10v-15q0 -1 -5 -8l-26 3h-60l-18 -3
q-5 10 -5 21q0 4 28 20q5 13 5 53v281q0 64 -13 64q-20 3 -20 20v8l2 5q51 -3 76 -3h54q22 0 43 5zM1036 1215q25 0 263 -7l3 -6q0 -29 -3 -88q-2 0 -2 -3q-30 3 -43 3h-28q-10 -303 -10 -368q-3 -5 -3 -8q3 0 3 -2l-5 -3q-71 3 -117 3l-5 2l3 6q0 56 10 375h-69q-5 0 -5 7
l3 87zM1000 1197q13 0 16 -25q-3 -30 -3 -46h-3q6 -8 6 -15v-28q0 -20 -39 -28v-5h6q33 0 33 -17q2 -22 5 -94l-3 -26l5 -60q-2 -33 -7 -33h-21l-86 68q-24 28 -101 89l2 -26v-32q0 -3 -2 -3q5 -10 5 -28v-40q0 -15 -23 -33q-48 0 -48 7l-18 -2h-10q-8 0 -8 40v64
q0 14 -2 35l2 5q-2 14 -2 23v15q0 14 2 23q-2 14 -2 20q-3 114 -3 147l5 3h15q16 0 89 -71v-25l-7 -11q3 -2 12 -2q0 4 10 10h13q11 0 66 -48l5 -3v59q0 31 -3 78q0 15 74 15h20zM1408 1152q173 -16 173 -31q38 -24 38 -58v-5q0 -39 -13 -76q-94 15 -101 18q0 6 2 38
q0 9 -63 15q-17 0 -20 -48q0 -22 96 -26q74 -23 74 -76v-2q0 -17 -5 -38l25 -36v-2q-38 -24 -38 -41q-23 -58 -81 -58q-160 14 -160 33q-20 0 -33 61q5 34 5 66q5 2 8 2q79 -5 96 -10q-3 -27 -5 -33q0 -17 61 -20q18 0 18 55q0 9 -109 21q-59 27 -59 68v41l-30 33
q40 23 40 56q27 53 81 53zM415 1142h2v-3q0 -4 3 -30q-4 -10 -8 -10l-5 2l3 13v23q0 5 5 5zM623 1129l2 -5v-3q0 -9 -2 -22q2 -5 2 -8l-5 -3q-5 0 -5 5v3q0 33 8 33zM430 1104h15q8 -6 36 -13v-5q-18 0 -49 10q-7 0 -7 5zM584 1093q16 -2 16 -7q-10 0 -38 -13l-3 5
q14 14 25 15zM422 1086h3q8 0 50 -23v-8h-12v-2q8 0 15 -13v-2q0 -3 -3 -3l3 -5q-11 -15 -33 -15h-3q-32 3 -32 25q0 18 22 18v2h-7q-13 -7 -26 -7h-2v10q0 19 25 23zM501 1083q7 -9 7 -17v-3q0 -4 -7 -8l-3 5l3 6q-5 10 -5 15zM516 1083q5 -14 5 -33l-5 -2q-5 9 -5 20v10
q1 5 5 5zM612 1081l18 -21v-2q0 -5 -5 -5h-5q-5 0 -5 5q-4 0 -28 -5v-3q23 -6 23 -17q-9 -26 -33 -26q-10 4 -10 8l2 5q-28 4 -28 13v2q6 10 13 10l-5 8v2q0 13 63 26zM374 1063q1 -5 5 -5h3v5h-8zM478 1055q15 -5 15 -10q-3 -12 -7 -12q-5 0 -5 5l2 5q-6 5 -10 5v2q1 5 5 5
zM372 1048l5 -31h5l-3 13v20h-2zM422 1045q0 -4 10 -10h3l-3 5v5l3 5h-8q-5 0 -5 -5zM458 1048v-15q8 5 12 5q-1 5 -12 10zM643 1048v-5q5 2 7 2v3h-7zM584 1043q3 -5 3 -8q-3 -5 -3 -7q12 4 13 10q-8 5 -13 5zM552 1033l5 -3h5v10q-10 -4 -10 -7zM643 1035v-7h2v7h-2z
M524 1030q12 -3 22 -43q-2 0 -2 -3q-23 0 -23 21zM498 1028l3 -6v-15q0 -14 2 -35q-5 -15 -10 -15l-5 2q3 9 3 10l-3 26q4 33 10 33zM473 1022h5l5 -2q0 2 3 2l2 -5v-10q-9 -15 -13 -15q-2 5 -2 8q8 11 8 15v2h-3q0 -18 -33 -22h-10q-14 0 -25 17v3q0 5 5 5q8 -15 22 -15h13
q23 4 23 17zM544 1022q18 -20 38 -20q19 0 33 13l2 -5q0 -15 -35 -21q-28 0 -43 31zM521 886l-5 2q-17 -2 -28 -2h-7q-6 -1 -6 -6q24 -5 26 -5l45 13v3h-5q-7 0 -20 -5zM569 891q0 -15 -17 -36q4 -11 10 -13q8 0 17 33v8q0 4 -10 8zM445 868q0 -29 20 -38q7 0 10 20v3
q-12 0 -12 25v5q-13 0 -18 -15zM442 703q6 0 18 -96q28 44 38 48q50 -17 54 -23l-3 -36q0 -12 13 -65v-3q-11 -15 -61 -43q-81 9 -81 15l5 31q-18 129 -36 162l8 5h18q3 0 27 5zM1081 703h51q5 0 5 -8q-7 -22 -7 -30v-8h20q5 0 5 -5v-2q0 -21 -10 -21l-18 3q-2 -5 -2 -8
q-3 -34 -3 -73q20 -11 20 -15q-11 -23 -25 -33q-56 32 -56 38q15 28 15 96q-15 0 -15 8v5q2 15 8 15q5 -3 7 -3q3 5 3 8q-3 26 -3 30zM846 680h2q26 -29 26 -40q-17 -36 -23 -38h-3q-4 0 -15 27h-8q-5 -27 -7 -27q0 -44 15 -44q35 -4 35 -12q-15 -31 -22 -33h-3l-73 18
q-3 4 -3 7l8 28q0 71 -26 71q-2 0 -2 3q2 17 20 38q51 -15 51 -41h2q20 42 26 43zM957 678q43 -23 71 -28l3 -5q-10 -43 -10 -74q0 -13 20 -28v-2q-19 -31 -28 -31q-38 20 -38 38h-3q-40 -35 -43 -35q-40 20 -40 43q0 46 17 46q14 2 16 2v5l-21 23v3q43 43 56 43zM645 670h3
q38 -13 73 -20q0 -3 3 -3q-3 -17 -3 -28q0 -50 8 -81q-33 -15 -63 -38q-39 15 -71 20l-3 6q0 7 3 17q-3 43 -16 84v2q4 7 49 26q0 4 17 15zM1249 657q16 -13 68 -38v-5q-9 0 -20 -94q2 -4 2 -7l-73 -26q-37 26 -63 33v6q10 42 10 81q0 6 -3 20q0 12 48 18q22 12 31 12z
M176 645q5 -1 5 -5v-11q33 -159 46 -159q7 0 13 -10v-3q-2 -33 -10 -33h-6q-50 12 -50 15q0 38 -48 180q-3 0 -3 3v10q8 0 53 13zM922 642v-10q29 -41 53 -41q2 5 2 11v17q-26 23 -55 23zM633 635v-3q5 -84 15 -84q30 -7 33 -7l-3 17v26q0 48 -38 48q-2 0 -7 3zM1368 637
q38 -24 38 -41v-10h2q30 36 33 36h3q18 -26 18 -43v-3q-28 -33 -31 -33q-7 0 -12 33h-5q-10 0 -21 -58q0 -10 43 -25v-6q0 -3 -28 -27h-2q-4 0 -71 35q20 48 20 89q0 11 -20 18q0 12 33 35zM1223 624v-2q-5 -29 -5 -81q23 -15 33 -15q10 55 10 68v5q-10 15 -38 25zM463 586
q7 -55 12 -55q24 -5 38 -5q-13 83 -15 83l-15 3h-2q-6 0 -18 -26zM290 612q40 -10 61 -10l5 2q13 -3 13 -8v-17q4 -74 28 -74q7 0 7 -5q0 -13 -17 -35h-3q-45 9 -45 25h-3q-30 -46 -35 -46q-51 10 -51 51q-5 16 -5 20q19 16 28 16v2q0 2 -28 23q34 56 45 56zM1502 607
q15 0 43 -31v-5q-25 -63 -25 -89q15 -12 18 -12q22 0 35 73q5 0 5 18v18l3 5q56 -12 56 -20q-24 -42 -59 -180l-5 -3h-40q-5 0 -5 8q10 15 22 73h-2l-38 -28q-48 35 -48 41q15 20 28 86l-11 18v2q0 21 23 26zM937 594q-3 -4 -3 -10v-10q0 -20 13 -26h8q20 15 20 28
q-26 18 -38 18zM262 566q8 -21 61 -38h3l2 5q0 36 -33 36q-18 2 -20 2zM290 528v-10q0 -36 26 -36q17 21 17 33q-8 6 -43 13zM524 475q43 0 88 -59q4 0 8 -7q0 -16 -13 -33q-9 5 -20 5q36 -34 36 -53q0 -34 -46 -41h-15q-37 0 -61 36q-28 21 -28 35v23q0 5 8 5q7 -5 30 -10
v2q-38 34 -38 59q0 31 51 38zM835 472h36q17 0 68 -63l38 -119l-5 -3h-38q-21 23 -38 23q-6 -23 -10 -23h-40q-4 0 -56 56q39 129 45 129zM980 472l10 -2l18 2q7 0 61 -58v-43q0 -24 2 -58q-2 -9 -2 -26h-41q-53 47 -53 61v86l-3 31q4 0 8 7zM1094 472q9 0 23 -2q4 2 10 2
q8 0 43 -35v28q0 5 20 7v-2l6 2q2 0 2 -2l5 2q9 0 61 -61v-119q0 -5 -5 -5h-46l-35 33v-28q0 -5 -5 -5h-33q-56 52 -56 58v117q0 4 10 10zM481 432q0 -25 48 -43l2 -5v-8q-1 -8 -18 -8q-8 0 -32 8v-20q0 -6 35 -11q43 7 43 33v11q0 20 -38 33q-13 10 -13 12q4 10 8 10h10
q5 0 26 -5q5 7 5 21q-15 5 -33 7q-43 -4 -43 -35zM638 470h48q28 0 86 -69q13 -11 13 -30q0 -41 -56 -46v-33q0 -5 -5 -5h-30q-13 0 -44 38q-3 0 -17 18v122q0 5 5 5zM640 462l-2 -30v-79q1 -5 5 -5h25v33q0 4 36 10q17 13 17 28v10q0 33 -35 33h-46zM835 462l-35 -114h30
q5 23 11 23h33q7 0 10 -23h30v3q-35 106 -35 111h-44zM980 462v-114h28v114h-28zM1092 462v-114h25v48l-3 31l5 2q43 -80 46 -81h38v114h-25v-78h-3q-4 0 -43 78h-40zM858 444q5 -7 13 -48q0 -5 -5 -5h-18q-5 0 -5 5q9 48 15 48zM676 442q18 -4 18 -10v-5q0 -18 -18 -18h-3
q-5 0 -5 5v23q0 5 8 5zM171 269h1420q36 -3 36 -30v-162q0 -27 -36 -31h-1420q-35 4 -35 31v162q0 26 35 30zM199 211v-58l-8 -10l8 -10v-23q0 -4 31 -31h25l13 10h2l13 -10h25q4 0 31 31v23l7 10l-7 10v58h-31v-91q0 -5 -5 -5h-15q-5 0 -5 5v13l10 12q-4 0 -10 10v56h-28
v-56l-10 -12q4 0 10 -10v-13q0 -5 -5 -5h-15q-5 0 -5 5v91h-31zM366 188v-33q0 -1 -10 -12l10 -13v-36q8 -15 23 -15h36q25 0 25 38v16l8 10l-8 10v20q0 38 -30 38h-26q-28 0 -28 -23zM478 188v-33l-10 -12l10 -13v-28q3 -23 23 -23h35q26 0 26 38v16l7 10l-7 10v15
q0 43 -26 43h-30q-28 0 -28 -23zM592 211v-56l-8 -10l8 -10v-51q1 -5 5 -5h56q25 0 25 43v13l8 10l-8 10v16q0 40 -30 40h-56zM709 188v-25q0 -15 -10 -15v-3q10 -11 10 -12v-31q3 -23 23 -23h35q25 0 25 31v15h-30q0 -18 -8 -18h-10q-3 0 -7 8v18l10 12l-10 13v18q2 7 15 7
h2q8 0 8 -18h30v8q0 38 -30 38h-25q-28 0 -28 -23zM813 211v-56l-10 -12q3 0 10 -10v-26q0 -28 28 -28h33q22 4 22 23v31l10 12q-3 0 -10 10v56h-28v-96q0 -4 -7 -8h-13q-5 0 -5 5v99h-30zM917 211v-28h25q5 -1 5 -5v-23l-8 -10v-2l8 -10v-54h30v54l8 10l-8 10v25q1 5 6 5
h25v28h-91zM1016 211v-28h27q5 -1 5 -5v-23l-10 -12q10 -4 10 -18v-46h28v54l10 12q-3 0 -10 10v23q1 5 5 5h26v28h-91zM1127 211v-56l-10 -12q4 0 10 -10v-54h81v28h-48q-5 0 -5 5v13q1 5 5 5h33v30h-33q-5 0 -5 5v13q1 5 5 5h48v28h-81zM1231 211v-56l-10 -12q4 0 10 -10
v-54h28v38h5q18 -34 18 -38h33v3l-21 40q18 8 18 23v43q0 23 -28 23h-53zM1398 211v-56q0 -1 -10 -12q4 0 10 -10v-54h84v28h-51q-5 0 -5 5v13q1 5 5 5h33v30h-33q-5 0 -5 5v13q1 5 5 5h51v28h-84zM1492 176v-3q9 -9 15 -35q9 -8 31 -8h12q6 -1 6 -5v-13q0 -5 -6 -5h-12
q-8 0 -8 15h-28v-20q0 -23 28 -23h28q28 0 28 28q4 0 10 10q-9 0 -13 31q-9 12 -35 12h-10q-4 0 -8 8v5q0 4 10 10h8q6 0 10 -18l5 3h15l5 -3l3 6v15q0 25 -30 25h-26q-30 0 -30 -33q-5 -2 -8 -2zM410 183h2q4 0 8 -7v-61q0 -4 -8 -8h-10q-4 0 -8 8v61q3 7 16 7zM521 183h3
q3 0 7 -7v-61q0 -4 -7 -8h-11q-3 0 -7 8v61q2 7 15 7zM1264 183h13q3 0 7 -7v-21q0 -3 -7 -7h-13q-5 0 -5 5v25q1 5 5 5zM628 181h15q5 -1 5 -5v-61q0 -4 -8 -8h-12q-5 0 -5 5v64q0 5 5 5zM1338 92q1 -13 7 -13h15q5 0 5 5v16q0 3 -7 7h-5q-15 0 -15 -15zM306 3q20 -6 20 -7
q20 7 25 7q17 0 26 -15l-3 -15l41 -86q13 15 40 91q4 25 26 25q19 -5 22 -5q18 5 31 5q18 -5 18 -10v-13q-13 -13 -13 -22v-56q0 -15 28 -28l2 -13q0 -6 -25 -25q-5 -8 -5 -15v-41q10 -38 10 -40q0 -4 -10 -11h-15q-18 0 -18 5q-9 -5 -20 -5h-11q-13 0 -17 11v7q10 31 10 33
v53l-18 -33q0 -5 -13 -5q-10 0 -20 3q-10 -3 -20 -3h-3q-17 0 -28 36h-2v-53q0 -3 10 -31v-7q-3 -11 -20 -11q-12 0 -26 3q-13 -3 -30 -3q-15 0 -15 18q0 3 10 31v60q-19 6 -31 21q0 11 28 33v7q0 12 3 59q-13 28 -13 30q0 13 26 15zM620 3l20 -7q20 7 26 7q25 -4 25 -18
q-3 -13 -3 -15l41 -83q11 6 38 88l13 23q0 5 15 5q19 -5 23 -5q18 5 28 5q13 0 20 -12v-11l-13 -15v-63q0 -16 28 -28q0 -6 3 -10q0 -9 -26 -28q-5 -8 -5 -15v-46q10 -30 10 -33q-3 -13 -17 -13h-8q-18 0 -18 5q-9 -5 -20 -5h-10q-14 0 -18 11v5q0 6 8 30v56h-3
q-4 -36 -25 -36q-11 0 -20 3q-10 -3 -21 -3h-2q-21 0 -26 33l-5 3v-56q0 -9 10 -23v-12q-3 -11 -20 -11q-12 0 -25 3q-13 -3 -31 -3h-5q-4 0 -10 11v15q10 14 10 23q0 5 -2 10q2 17 2 28v22q-12 0 -30 21q0 12 28 33v22q0 15 2 41q-7 21 -12 28v8q6 12 25 12zM919 3
q19 -7 23 -7l18 7q16 0 28 -15l-3 -13q16 -40 20 -40q18 35 21 61l17 7q6 0 26 -7q20 7 25 7q20 -7 20 -12v-11q-55 -76 -55 -93q20 -15 20 -26q0 -7 -15 -20q23 -56 55 -91v-10q-7 -13 -22 -13l-23 2q-18 -2 -28 -2q-13 0 -20 13v2q0 6 2 10q-19 46 -25 46h-3q0 -6 -17 -33
l-3 -10l3 -15q-10 -9 -23 -13q-3 0 -26 2q-22 -2 -28 -2q-17 3 -17 10v10q56 78 56 96q-9 4 -16 21q12 20 23 20q-40 77 -61 99v5q5 15 28 15zM1150 3l28 -7q12 7 18 7q25 0 25 -25q0 -8 15 -41h3l20 36l-3 12v3q11 15 21 15q25 -4 25 -7q24 7 28 7q20 -4 20 -20
q-28 -35 -58 -96q22 -16 23 -21v-7q-18 -17 -18 -21q36 -65 58 -91v-7q0 -7 -23 -13q-6 0 -20 2q-21 -2 -35 -2q-16 0 -18 38q-18 33 -20 33h-3q-20 -35 -20 -41v-17q0 -8 -26 -13q-18 2 -20 2l-30 -2q-15 5 -15 10v5q0 5 38 63q17 32 17 38q-15 9 -15 23q10 16 20 16v2
q-28 64 -58 96v11q0 6 23 12zM1441 3q23 -3 23 -20q-10 -17 -10 -31v-32q0 -10 -2 -23q0 -5 27 -31v-2q0 -15 -22 -26l-5 -20q2 -21 2 -35v-11q10 -28 10 -32q-10 -11 -23 -11q-25 0 -25 5q-9 -5 -20 -5h-8q-18 0 -18 18q13 28 13 33v23q0 35 -25 61v2q23 21 23 33v56
q-11 28 -11 30v6q0 7 26 10q20 -1 20 -5z" />
    <glyph glyph-name="bracketright" unicode="]" horiz-adv-x="1382" 
d="M749 1468q259 -50 323 -97q8 -8 155 -86q43 -46 51 -97q-4 -156 -15 -184q15 -101 54 -216q4 -13 4 -32v-62l-18 -252q0 -86 -33 -86h-7q-21 11 -21 40v57h-4q-64 -86 -112 -101q-7 -61 -7 -100v-112q0 -36 4 -108q-16 -14 -18 -14h-7q-33 0 -33 90q-6 38 -11 86
q8 49 8 122q-4 0 -4 4q-25 -9 -65 -14l4 -8v-36q0 -25 -25 -25q-29 0 -29 58q-56 -9 -79 -33l-7 -10v-58q10 -80 10 -97v-36q0 -47 -32 -87q4 -77 4 -108q0 -43 -33 -43q-21 8 -21 29v76q0 26 -11 28h-40q-23 0 -54 -21q4 -20 4 -33l-18 -14h-7q-28 0 -36 47h-8
q-39 0 -39 -51l-18 -14h-11q-32 0 -32 50l-8 -3h-25q-21 0 -61 14q-4 0 -11 -3l-147 36q-36 30 -36 86q8 26 39 76q18 68 18 72q-3 30 -3 50v54q0 10 -18 32h-4v-64q-4 -44 -36 -44t-32 116v7q-4 0 -11 3l3 -25v-75q0 -22 -25 -29q-25 7 -25 21q0 41 -4 152q-8 7 -50 25
q14 -161 14 -223q-7 -17 -14 -18h-22q-19 0 -25 151q0 88 -14 144q0 87 11 209v3q-29 96 -29 141q0 157 183 503q19 13 188 65q140 51 180 51q18 0 36 -18zM475 1029q0 -8 -86 -108q0 -16 -40 -137q2 -36 11 -36q54 27 83 108q43 114 43 130v25l-4 18h-7zM946 1018v-3
q4 -123 4 -137q-4 -68 -22 -68h-17q-22 0 -22 97h-4q0 -72 -57 -177q-15 -14 -22 -14q21 -50 61 -50h15q31 0 39 32q83 111 83 169v18q0 88 -58 133zM551 547h3q90 0 90 18q36 57 36 72v14q-1 8 -18 15q-9 -22 -29 -22q-25 0 -25 25q-15 -24 -39 -47q-18 -38 -18 -75z
M360 165q0 -18 3 -126q-3 -20 -3 -29l18 -10h18q14 57 14 79q0 14 -7 65q14 75 14 93v4q-3 0 -10 3q-44 0 -44 -64q-3 0 -3 -15zM626 18h40q7 0 7 10q0 63 -4 206q-8 0 -14 3q-29 0 -29 -68v-151zM479 43q6 -16 25 -29h3q26 62 26 166v46h-18q-24 0 -33 -147q-3 -19 -3 -36z
M759 205v-33q0 -9 -10 -43v-61h3l11 7h7l25 -7v43q-4 101 -21 101h-7q-8 -1 -8 -7z" />
    <glyph glyph-name="asciicircum" unicode="^" horiz-adv-x="1014" 
 />
    <glyph glyph-name="underscore" unicode="_" horiz-adv-x="1024" 
 />
    <glyph glyph-name="grave" unicode="`" horiz-adv-x="1024" 
 />
    <glyph glyph-name="a" unicode="a" 
d="M420 1343q20 -11 20 -24h24q31 0 112 -320q69 -208 92 -348q27 -196 56 -196q48 -76 104 -260q60 -118 60 -192q-40 -168 -88 -168q-28 0 -44 124q-4 0 -12 16q-50 -40 -68 -40h-8q-26 0 -60 96q-27 176 -44 176q0 24 -92 44q-17 0 -76 -52h-4q-7 0 -52 48q-28 0 -40 -60
q-52 -136 -52 -184v-120q0 -96 -48 -96q-52 0 -52 240q-11 27 -32 40q-52 0 -52 -20q0 -9 -4 -16q4 -56 4 -96v-36q16 -89 16 -128q0 -35 -20 -44h-12q-22 0 -28 20l4 36q0 21 -16 96q0 69 -4 152q4 28 4 44q-8 13 -8 24v20q24 127 24 152q-8 66 -8 104v12q32 200 48 340
q10 4 96 168q13 0 40 148q128 243 128 264l64 36h28zM428 719q0 -136 -52 -184v-16q30 -36 56 -36h8q64 22 64 36q-8 236 -40 236h-16q-20 -9 -20 -36z" />
    <glyph glyph-name="b" unicode="b" horiz-adv-x="884" 
d="M434 1345q176 -51 176 -232v-12q-16 -142 -16 -188v-12q0 -73 68 -104q121 -105 160 -212q20 -42 24 -84q0 -179 -132 -304q-47 -4 -136 -56l-48 -12q-22 4 -36 4h-4q-47 0 -112 -56q-92 -14 -92 -88q-19 -44 -40 -44q-10 0 -44 32h-8q-12 0 -28 -116q-14 -31 -36 -36
q-32 7 -32 48v20l16 112v68q-36 0 -36 80v68q0 51 8 124q0 47 -32 376q-19 389 -60 428q-24 49 -24 64v36q0 62 176 80q0 7 80 8h32q26 0 52 -4q86 12 124 12zM278 1029v-44q0 -80 48 -80q85 0 124 72q4 41 4 64v16q0 88 -76 88q0 5 -44 12q-56 0 -56 -128zM366 561v-44
q0 -132 28 -132h8q32 0 32 48v56q0 94 -32 116h-4q-32 0 -32 -44zM482 457q7 -60 24 -60h16q44 29 44 96q0 52 -44 52q-34 0 -40 -88z" />
    <glyph glyph-name="c" unicode="c" horiz-adv-x="862" 
d="M558 1352h4q132 -15 132 -124q0 -504 -48 -504q0 -8 -20 -8q-28 10 -28 40l28 284v4q-9 0 -60 20l-8 -4h-32q-100 -20 -100 -56q-64 -84 -64 -200q-11 -27 -24 -32q-10 0 -40 48h-8q-28 0 -28 -128v-64q0 -166 132 -224q26 -8 36 -8h20q76 0 236 104l28 8h8q71 0 84 -120
l4 -40q-9 -141 -52 -164l-116 -56q-11 -8 -80 -12l-24 4q-204 -16 -204 -40q-11 -13 -24 -180q-15 -20 -32 -20h-4q-30 0 -40 164q-33 27 -88 164q-120 118 -164 336q-12 21 -12 56v52q0 149 120 368q25 21 72 128q21 43 128 96q0 6 88 64q24 37 180 44z" />
    <glyph glyph-name="d" unicode="d" horiz-adv-x="858" 
d="M188 1353q59 0 120 -56q71 0 140 -48q49 -19 176 -88q84 0 136 -264q16 -21 20 -188q0 -115 -28 -216q0 -72 -40 -276l4 -16q4 -94 4 -128q0 -36 -32 -36h-8q-25 0 -32 124v16l16 136q-65 -88 -140 -132q-112 -55 -112 -136q-8 -68 -44 -68q-14 2 -48 40q-98 40 -112 40
h-8q-54 -8 -60 -8q0 -248 -32 -248h-12q-32 0 -32 104q0 71 -4 148q-76 8 -76 72q0 9 60 132q24 46 24 156q0 300 -28 300q-20 18 -20 44q0 22 20 200q0 51 -48 148q-12 29 -12 80v28q0 108 48 108q67 32 160 32zM200 1017q0 -165 44 -240q16 -124 24 -416q26 -28 52 -28h36
q148 0 188 148q8 45 8 64v28q0 22 -36 152q0 247 -84 260q-34 0 -128 124q-30 20 -52 20h-4q-48 0 -48 -112z" />
    <glyph glyph-name="e" unicode="e" horiz-adv-x="844" 
d="M584 1395q104 0 104 -80q20 -21 20 -40v-64q0 -34 -12 -116q0 -38 4 -124q-4 -209 -4 -332q0 -21 -20 -32h-20q-22 0 -28 132q4 195 4 260q-52 76 -88 76h-28q-89 -24 -116 -24h-48q-72 0 -72 -92v-8q0 -160 68 -160h12q99 24 104 24q100 -28 100 -96q-32 -60 -32 -140
q0 -112 -44 -112q-24 8 -24 32q8 70 8 88v4q-160 -16 -160 -48q-8 -67 -8 -112q0 -104 44 -104h8l124 20q29 0 76 -40h4q71 72 116 72q17 24 36 24q52 0 52 -220q8 -112 8 -136q0 -14 -4 -68q12 -119 12 -228q0 -24 -28 -24q-32 0 -32 72l-16 112q4 88 4 96q0 15 -88 28
q-104 -12 -140 -12h-88q-80 0 -80 36h-4q-54 -48 -120 -48h-76q-84 15 -84 112v16q0 65 60 200q4 21 4 40v60q0 50 -24 212v188q0 186 -60 260q-8 27 -8 48v52q0 96 168 96q158 20 180 20h36q23 0 136 68q44 12 64 12z" />
    <glyph glyph-name="f" unicode="f" horiz-adv-x="818" 
d="M738 1366q52 0 52 -88q0 -130 -76 -224q-31 -83 -48 -116q-10 -8 -12 -8h-8q-44 8 -44 72q-27 40 -76 40q-156 -19 -156 -28q-16 0 -20 -68v-64q0 -80 84 -80q8 0 56 8q58 0 76 -120q0 -12 -12 -68v-56q0 -240 -36 -240h-20q-7 0 -20 24l4 24q-4 96 -4 152v28q0 8 -8 8
h-40q-60 0 -60 -128v-136q0 -115 -76 -148q-42 -68 -88 -68q-48 0 -48 -68q-11 -27 -36 -44h-8q-36 0 -36 48v64q0 279 36 336q8 56 8 108q0 51 -40 136q0 5 -4 40l24 312q0 53 -36 68q-12 -100 -12 -148v-28q8 -195 24 -408v-16q-4 -132 -28 -132h-20q-20 12 -20 24
q0 76 -16 312q0 20 4 140q-16 132 -28 352v4q0 73 72 144q20 8 28 8q172 -4 264 -4q16 0 72 4v-4l8 4q108 0 324 32z" />
    <glyph glyph-name="g" unicode="g" horiz-adv-x="919" 
d="M420 1352q98 -32 112 -32q19 0 96 28h8q14 0 148 -36q80 -29 80 -88v-240q-12 -248 -48 -248h-8q-32 0 -32 32v8q20 65 20 212v44q0 52 8 72h-4q-48 -25 -48 -40q0 -84 -36 -84q-28 0 -28 28q0 10 4 60h-4q-104 -28 -132 -28l-60 20h-12q-53 -20 -120 -32
q-49 -99 -88 -128q-28 -47 -28 -100v-20q11 -330 44 -364q21 -52 40 -52q25 0 32 104q0 164 88 212q16 4 28 4q58 0 144 -68q10 -20 32 -20h16l28 4v-4q8 4 12 4q80 0 80 -92q0 -113 -84 -192q-88 -129 -164 -192q-44 -21 -44 -80v-24q0 -160 -32 -160h-16q-32 0 -32 200
q-25 48 -112 48q0 3 -40 16v-8q0 -92 12 -192q-8 -36 -36 -36q-32 0 -32 104q0 88 -20 152h-20q-11 0 -24 44q-40 0 -40 52h-4v-16q0 -65 -4 -216q4 -40 4 -60q-11 -60 -28 -60h-20q-4 0 -20 20q0 10 4 60q0 114 -24 388q-4 79 -4 204q-12 56 -12 132q0 351 240 572
q126 84 180 88z" />
    <glyph glyph-name="h" unicode="h" horiz-adv-x="889" 
d="M354 1354h8q20 0 24 -60v-40q0 -73 -12 -344q0 -64 96 -64h4q16 0 24 48q-4 209 -4 332v24q0 100 48 100h8q26 0 84 -20h16q63 16 68 16h8q35 0 44 -56q-4 -154 -4 -240q0 -14 20 -116v-224q0 -234 24 -404q12 -87 12 -152v-32q0 -80 -40 -80q-21 14 -44 64l-12 8h-8
q-100 -14 -100 -36q-15 0 -44 -104l-8 -4h-12q-28 0 -28 228v144q0 55 4 144q-22 88 -36 88q-11 -132 -36 -132h-16q-20 10 -20 32v116h-4q-34 0 -44 -56q4 -310 4 -408q-5 -48 -20 -48h-12q-5 0 -56 60h-16q-44 0 -48 -104q0 -64 -36 -64h-4q-22 0 -40 108q-56 46 -56 140
v252q0 140 -40 160q-4 -167 -4 -208q0 -47 4 -240q0 -96 -40 -96q-28 12 -28 36q4 356 4 388q-10 0 -16 36q4 127 8 152q-8 16 -8 44v16q0 45 80 88q24 44 24 112v20q-24 164 -24 212v40q0 80 60 80q16 0 96 16v-4q4 0 4 4q42 -12 52 -12q65 40 92 40z" />
    <glyph glyph-name="i" unicode="i" horiz-adv-x="439" 
d="M224 1426h12q15 -13 36 -88q68 -41 68 -116l-36 -208q-8 -53 -8 -152v-28q0 -25 44 -92q32 -121 32 -384q16 -95 16 -132q0 -80 -60 -80q-15 0 -80 24h-8q-14 -2 -36 -84q-48 -46 -48 -144q-14 -52 -48 -52q-40 0 -40 240q-5 0 -12 80q12 283 12 348v12q0 38 -44 388
l-24 316q0 68 44 68q27 0 64 -8q75 0 96 60q0 22 20 32z" />
    <glyph glyph-name="j" unicode="j" horiz-adv-x="657" 
d="M432 1314h24q37 0 52 -284q9 0 24 -296q0 -31 48 -96q8 -39 8 -44q-4 -59 -4 -104q0 -24 36 -80q8 -16 8 -44q-32 -232 -64 -232q-28 -31 -28 -76v-16q0 -40 4 -96q-5 -36 -32 -36q-21 26 -48 132l-24 20h-20q-115 -40 -172 -40h-8q-94 32 -104 32q-132 0 -132 76
q4 80 4 140q18 76 76 76q168 0 204 40q24 25 24 96v36q0 94 -20 184h-4l4 -40v-68q0 -17 4 -44q-8 -25 -20 -28h-20q-32 0 -32 264q-7 0 -8 100v68q0 31 -36 180v20q0 21 44 108q14 48 44 48q8 0 108 -60h8q6 0 44 60z" />
    <glyph glyph-name="k" unicode="k" horiz-adv-x="752" 
d="M580 1352q57 0 68 -96v-12q0 -424 -28 -424h-16q-28 0 -28 28v104q0 70 12 144q-61 -47 -96 -228v-72q0 -79 100 -148q80 -65 80 -88q12 0 16 -80q-12 -362 -32 -432v-16q0 -45 4 -116q-8 -25 -20 -28h-20q-14 8 -20 24q-4 99 -4 156v8q0 32 4 84q-24 79 -40 172
q-23 0 -160 164l-24 12q-24 0 -24 -52q16 -229 16 -264v-8q0 -88 -92 -88q-43 0 -116 -40q-48 0 -48 152q-9 36 -16 36h-4q-16 -102 -16 -180q8 -113 8 -144v-28q0 -36 -32 -36h-12q-23 0 -28 136q4 28 4 44v56q0 40 4 120h4q0 4 -4 4q0 5 4 12q0 9 -4 16l24 320
q-4 145 -4 244v204q-40 160 -40 196q0 80 88 80q58 0 112 36q7 4 20 4q35 0 56 -260l16 -24q37 0 128 228q24 80 88 80h72z" />
    <glyph glyph-name="l" unicode="l" horiz-adv-x="695" 
d="M212 1304q7 -4 12 -4q32 4 40 8q45 0 52 -72q-20 -128 -20 -260q4 -519 4 -560q0 -49 184 -72q40 -16 132 -24q48 -14 48 -124v-44q-8 -100 -8 -144v-8q0 -37 4 -104q-9 -24 -32 -24q-36 0 -36 84v60l4 8h-4q-14 -12 -56 -104q-33 -48 -40 -48h-12q-46 0 -56 156
q-32 60 -100 60q-214 0 -292 80q-28 31 -28 60v24q0 85 52 176l-4 8v164q-15 -12 -28 -12q-22 0 -28 32l20 576q-12 62 -12 84q0 25 78.5 42.5t125.5 -18.5z" />
    <glyph glyph-name="m" unicode="m" horiz-adv-x="1012" 
d="M108 1373q32 0 92 -72q14 -17 88 -24q64 -39 64 -112q39 -165 116 -368q36 -108 56 -112h8q9 4 116 228l88 128q11 37 28 204q11 26 24 32h8q29 0 36 -160q16 -80 52 -368q27 -91 40 -336q72 -80 72 -196q0 -77 -68 -116q-14 -11 -36 -160q-2 0 -20 -16q-19 0 -40 112
q-14 20 -28 20q-35 -69 -44 -72h-4q-42 0 -76 300q-4 76 -32 76q-35 0 -72 -84q-10 -95 -68 -184q0 -84 -44 -84q-24 0 -24 232q-21 196 -60 196h-12q-21 0 -32 -148q-71 -248 -96 -260q-7 -4 -16 -4h-12q-59 52 -72 52q-24 -4 -24 -8q0 -107 16 -188v-28q0 -5 -20 -20h-16
q-24 15 -24 40q4 8 4 12q-16 51 -16 172v44q-60 0 -60 84q10 60 56 212q4 14 4 44v96q-11 7 -24 128q20 459 44 684v4q12 20 28 20z" />
    <glyph glyph-name="n" unicode="n" horiz-adv-x="783" 
d="M640 1426q21 -10 40 -64q9 -12 56 -36q12 -20 12 -44q-26 -300 -44 -300q-8 -28 -8 -48v-176q0 -55 -16 -340v-88q-10 -280 -36 -280l-16 -4q-17 5 -24 20v124h-4q-40 -40 -68 -40q-56 0 -108 212q0 39 -68 92l-8 4q-16 -23 -16 -28q4 -138 4 -216v-8q0 -68 -56 -112
q-24 -72 -40 -72h-16q-42 23 -104 124q-43 16 -48 16q-4 -86 -4 -120l4 -136q-17 -16 -32 -16q-18 6 -28 24v244q0 85 -12 168q4 284 12 348q-4 176 -4 316q0 102 8 124q-8 16 -12 64q0 156 64 156q20 4 48 4h68q73 0 168 -332q24 -172 60 -172h12q17 0 40 184
q-4 209 -4 296q7 64 44 64h12q49 -16 60 -16q12 0 48 64h16z" />
    <glyph glyph-name="o" unicode="o" 
d="M402 1364q143 0 288 -228q56 -100 56 -308q36 -118 36 -156q-44 -352 -44 -540v-100q0 -32 -32 -32q-22 0 -28 32q0 38 -4 252q-96 -108 -96 -156q0 -160 -48 -160q-20 0 -44 108q-14 20 -32 20q-99 0 -128 -96q-40 -63 -40 -72q-9 -88 -32 -88h-8q-40 0 -40 132
q0 138 -44 152q-130 141 -144 228q-28 74 -28 240v56q0 155 40 196q32 106 52 252q44 112 124 112q21 0 140 132q28 24 56 24zM330 692h-4q-13 9 -40 88q-7 4 -12 4q-28 0 -60 -132v-48q0 -174 76 -228q32 -40 68 -40h12q76 21 160 116q44 86 44 236q0 163 -52 216
q-21 92 -28 92v-76q0 -34 -8 -188q-2 0 -20 -16h-20q-5 0 -20 20v156q0 40 4 120q-68 -31 -68 -164q-9 -156 -32 -156z" />
    <glyph glyph-name="p" unicode="p" horiz-adv-x="792" 
d="M348 1366h32q5 0 80 -24h16l20 4v-4q19 8 36 8q111 0 204 -168q16 -48 16 -60v-92q0 -32 -60 -188q-9 -39 -52 -116q0 -172 -32 -172h-16q-22 0 -36 152q-10 8 -12 8h-24q-76 -27 -76 -84v-24q0 -134 24 -348v-20q-13 -160 -80 -160q-28 0 -136 -80q-13 -8 -24 -8
q-48 0 -48 84q8 276 8 312l-24 232h-4v-8q4 -246 4 -392v-28q0 -5 -20 -20h-8q-36 0 -36 52q0 78 4 232q-8 76 -8 112q0 38 12 108q-4 60 -4 100v52q-13 0 -28 12v-124q-16 -409 -16 -588v-20q-2 -72 -32 -72q-21 0 -32 32q4 221 16 572q-16 134 -16 160t4 216h4
q-24 39 -24 80q0 59 52 148q137 103 316 124zM312 1038v-4q0 -25 12 -148v-72q0 -48 20 -48q27 0 36 64q-4 27 -4 44v4q8 92 32 92h8q21 -4 24 -4q4 12 24 12q9 0 24 -12q24 71 24 148v20q0 6 -12 12h-8l-20 -4q-15 32 -40 32q-100 -19 -100 -60q-20 -39 -20 -76z" />
    <glyph glyph-name="q" unicode="q" horiz-adv-x="884" 
d="M472 1374h16q132 0 212 -112q18 -22 56 -168q36 -25 72 -208q0 -71 4 -84q-4 -20 -8 -88l4 -24q-3 -360 -28 -360q-3 0 -24 -4q-36 0 -36 92h-4q-4 -47 -4 -68v-24q0 -72 56 -188q4 -15 4 -32v-56q0 -50 -84 -116q-8 -4 -12 -4q-53 0 -104 180q-10 8 -16 8
q-35 0 -68 -120q-13 -20 -32 -20q-8 8 -36 60q-7 0 -24 8q-40 -8 -72 -8h-32q-75 0 -132 64q-32 104 -72 104q-52 0 -108 196q-20 80 -20 124v208q24 190 76 276q71 43 96 120q32 74 112 156q98 88 208 88zM424 894v-60q-9 -40 -36 -40q-32 13 -32 52v28q0 38 4 92
q-7 56 -20 56h-4q-55 0 -100 -164q-36 -44 -36 -160q0 -120 40 -216q27 -120 64 -120v-4q33 0 68 104q38 41 92 52q92 17 92 44q16 0 44 260v100q0 103 -64 128h-20q-88 -81 -88 -104q-4 -21 -4 -48z" />
    <glyph glyph-name="r" unicode="r" horiz-adv-x="805" 
d="M404 1370q112 0 204 -100q56 -79 56 -320q0 -99 -108 -152q-20 -30 -20 -80v-36q0 -80 76 -196q140 -246 148 -284v-36q0 -36 -72 -96q-47 -80 -76 -80q-59 26 -164 284l-16 16h-4q0 -13 -4 -20q4 -67 4 -104v-28q0 -92 -92 -92q-64 -27 -64 -72q-64 -50 -64 -124
q-10 -40 -32 -40q-24 26 -24 76q4 41 4 64v100q8 184 8 204v40q0 22 -20 144q4 115 4 164q-12 33 -56 252h-12q8 -119 8 -164v-48q0 -32 -8 -72q8 -40 8 -80v-236q0 -32 4 -84q0 -24 -32 -28q-36 0 -36 84l4 24q-8 73 -8 236v132q0 59 -4 104q4 22 4 80q-12 343 -20 396
q0 128 40 128q22 15 84 24v-4q84 24 280 24zM316 1098q16 -240 32 -240q7 -4 16 -4h12q27 0 40 120q0 176 -32 176q0 6 -12 12h-8q-36 0 -48 -64z" />
    <glyph glyph-name="s" unicode="s" horiz-adv-x="805" 
d="M352 1368h36q101 0 152 -84q12 -44 12 -68q-15 -124 -112 -124q-44 -16 -44 -84q0 -101 84 -132q152 -64 152 -120q27 -96 60 -96q56 -26 56 -96q8 0 8 -88v-16q0 -108 -52 -244q-6 -200 -44 -200h-8q-18 14 -36 88l-16 12h-8q-101 -48 -172 -48q-13 0 -68 4
q-24 0 -76 -76q-17 -9 -48 -72q-14 -4 -16 -4q-24 14 -24 108q0 89 -80 120q-22 18 -96 60q-19 27 -20 60q0 76 44 76q57 -16 76 -16q229 21 272 36q44 26 44 96v28q0 65 -68 104q-56 111 -88 112q-88 20 -132 64q-136 89 -136 188q-24 86 -24 120v12q28 184 56 184
q13 31 92 68q33 8 44 8l72 -16q55 36 108 36zM256 1068v-24q0 -84 48 -84v-4q36 5 36 52v28q0 92 -52 92q-32 0 -32 -60z" />
    <glyph glyph-name="t" unicode="t" horiz-adv-x="880" 
d="M358 1422q11 0 80 -28q65 0 240 12q76 0 140 -116q16 -35 16 -76v-32q0 -22 -20 -80q-14 -387 -32 -448q0 -12 -16 -20h-8q-25 0 -32 32q4 27 4 44q0 109 -4 300l4 40q-4 15 -4 36h-24q-8 -1 -8 -8v-88q0 -74 8 -256q0 -63 -4 -116q4 -250 16 -452v-64q0 -28 -28 -28
q-32 0 -32 72q-20 238 -20 552q0 42 -8 128q8 94 8 172v72q-13 0 -28 12h-32q-18 0 -36 -96q-32 -35 -32 -72v-44q0 -41 40 -112q20 -93 20 -176v-84l28 -328q0 -72 -52 -72q-61 24 -64 24h-8q-40 0 -44 -184q-9 -48 -32 -48q-34 0 -44 156q-18 20 -72 20q-36 41 -36 224v64
l24 188q0 240 -28 292q-14 214 -36 228l-12 8h-8q-14 0 -84 -48l20 -468q-5 -40 -40 -40q-24 8 -24 32v32q0 59 -4 112l4 36l-16 232q-17 13 -52 104q-36 37 -36 84q0 82 136 160q87 85 264 116h8z" />
    <glyph glyph-name="u" unicode="u" horiz-adv-x="796" 
d="M192 1374h20q20 0 32 -92l16 -12l48 4q20 -21 20 -36v-80q0 -156 -60 -432v-80q0 -188 72 -188h8q124 0 124 164q4 22 4 80v36q-24 217 -24 280v132q0 89 44 124q31 5 72 88q20 12 32 12h12q48 0 64 -88q64 -41 64 -100q-44 -560 -52 -804q12 -174 12 -224v-84
q0 -24 -28 -32q-28 0 -32 44q0 90 -12 264q4 0 4 4h-8q-35 -85 -136 -160q-8 0 -92 -64q-28 -8 -48 -8h-48q-46 0 -80 -68q-27 -22 -48 -92l-16 -12h-12q-31 0 -36 212q-44 80 -80 352q-23 79 -28 116q24 95 24 124q-8 120 -8 164v132q27 312 76 312h12q7 0 44 -8
q14 0 44 20z" />
    <glyph glyph-name="v" unicode="v" horiz-adv-x="770" 
d="M524 1370q58 -16 100 -32h4q53 20 56 20q21 0 24 -40l-16 -140q-8 -151 -8 -288v-204q0 -42 -16 -344v-12q0 -78 16 -252v-108q0 -5 -20 -20h-20q-38 0 -52 516q0 76 12 272v8h-4q-31 -113 -84 -188q-20 -89 -44 -384q-4 -46 -4 -88q4 -73 4 -92q-11 -36 -28 -36
q-25 0 -32 76q-12 23 -108 76q-9 10 -80 20q-68 30 -68 228q-11 31 -16 140h-4q-12 -339 -12 -452q-15 -12 -28 -12h-12q-20 10 -20 36q0 70 8 312q-7 0 -20 392q0 71 4 228l-56 224v32q0 60 32 60q0 -5 28 -16q14 0 68 60l20 4q112 -14 112 -44q56 -250 56 -524l4 -16h4
q17 13 52 140q14 0 88 376q26 72 60 72z" />
    <glyph glyph-name="w" unicode="w" horiz-adv-x="986" 
d="M740 1376q58 0 92 -108q88 -28 88 -48q8 -30 8 -56q0 -16 -12 -108v-12l20 -180q-32 -403 -84 -844q-22 -20 -36 -20q-28 0 -28 56v120q0 36 -4 80q20 114 40 320q32 227 36 348q-30 -32 -48 -232q-64 -251 -64 -336q-64 -119 -64 -136v-48q0 -152 -28 -152h-4
q-21 0 -52 148q-48 52 -48 224q-32 127 -56 136h-12q-47 0 -60 -276q-3 -20 -12 -20h-4q-5 0 -36 48h-20q-75 -84 -88 -84q-56 0 -56 204q-31 193 -92 280q-20 53 -24 84h-4q-16 -193 -16 -300v-44q0 -64 8 -268q0 -62 -28 -80h-20q-4 0 -20 20q4 54 4 76q-24 928 -48 928
q-7 0 -8 40v40q0 96 120 96q45 45 72 60h16q30 0 68 -184q68 -104 68 -188q32 -188 60 -188q27 9 100 240q24 40 48 40q37 0 48 -152q16 -52 32 -52q52 33 64 276q36 244 60 244q13 8 24 8z" />
    <glyph glyph-name="x" unicode="x" horiz-adv-x="884" 
d="M124 1378q13 0 80 -28q46 20 52 20q52 0 96 -84q50 -152 80 -188h8q26 27 92 208q31 64 60 64h12q56 0 100 -92l20 -4h4q34 28 48 28h12q28 0 28 -200q-8 -163 -8 -176q8 -178 8 -196q0 -192 -28 -192h-8q-32 0 -32 32v36q0 73 4 92q-4 53 -4 112v136q0 28 -4 88
q-116 -201 -116 -312v-32q0 -112 64 -232q0 -87 92 -136q52 -71 52 -136v-60q0 -49 -48 -116q-18 -100 -32 -100h-8q-22 0 -32 196q-16 28 -32 28q-58 -20 -88 -20q-41 0 -92 136q-40 88 -64 100q-46 0 -116 -236q-70 -68 -112 -68q-38 0 -56 144q16 296 44 320
q56 97 56 180v40q-22 232 -48 232q-40 49 -52 52q-19 0 -44 32q-16 8 -24 8v-24l20 -260q0 -39 -4 -204q8 -94 8 -152v-116q0 -36 -32 -36h-12q-6 0 -16 16v112q-12 349 -36 556q0 48 -16 244q10 168 36 168q10 11 88 20z" />
    <glyph glyph-name="y" unicode="y" horiz-adv-x="765" 
d="M124 1382h12q33 0 76 -88q39 -25 72 -144q0 -31 20 -52q20 0 76 100q108 151 152 152h4q19 0 64 -52q132 -13 132 -84v-16q0 -26 -32 -232q-8 -42 -8 -264q0 -58 -28 -156v-36q0 -36 -32 -36q-24 0 -32 40q8 44 16 224q-4 21 -4 40v52q1 85 12 112q-8 59 -8 72
q-160 -162 -160 -204q-4 -35 -4 -60v-88q-16 -106 -16 -128v-20q0 -71 44 -164q8 -21 8 -44q0 -100 -52 -188q-9 -188 -44 -188h-16q-46 0 -60 136q-34 116 -56 116q-4 0 -52 -16h-16q-22 8 -24 76v132q0 55 -12 260q8 83 8 128q0 126 -68 236q8 -38 8 -92q0 -30 -20 -256
q8 -117 8 -128q-4 -160 -4 -240q0 -10 4 -60q-6 -20 -28 -20h-12q-24 13 -24 52q0 60 4 292q-28 257 -28 316v244q0 28 -24 152v4q0 56 80 68q36 52 64 52z" />
    <glyph glyph-name="z" unicode="z" horiz-adv-x="844" 
d="M98 1374q373 -20 408 -64q0 -12 48 -16q27 16 48 16h4q49 0 60 -80q6 0 12 -12q-4 -217 -12 -320q0 -13 4 -68q-4 -150 -4 -276l-20 -16h-16q-20 12 -20 24q-8 133 -8 180v32q0 72 8 152q-4 29 -4 72h-4q-56 -190 -132 -388q-8 -28 -8 -48v-80q0 -38 100 -92h4
q48 24 56 24h4q38 0 148 -92q20 -47 20 -64v-68q0 -4 -4 -4l4 -8v-76q0 -4 -4 -4l4 -8v-44q0 -4 -4 -4l4 -8v-28q0 -4 -4 -4l4 -8q0 -4 -4 -4q0 -4 4 -4q0 -76 -36 -76q-26 0 -32 36v20q0 72 -8 152h-4q-160 16 -204 16h-20q-4 0 -4 4q-4 0 -4 -4l-28 4h-108q-54 0 -76 -68
q0 -13 -52 -44q-10 -17 -28 -100l-16 -12h-16q-36 0 -36 196q-17 33 -72 48q-47 0 -60 56v32q0 42 52 84q14 13 28 96q63 79 68 132q15 49 148 312q4 26 4 52v20q0 68 -60 68q-6 0 -124 -20v-152q0 -232 -36 -232q-8 -4 -12 -4q-28 13 -28 32q8 38 8 56q0 14 -8 76
q16 160 16 240l-28 236v4q0 128 80 128z" />
    <glyph glyph-name="braceleft" unicode="{" horiz-adv-x="1014" 
 />
    <glyph glyph-name="bar" unicode="|" horiz-adv-x="1014" 
 />
    <glyph glyph-name="braceright" unicode="}" horiz-adv-x="1014" 
 />
    <glyph glyph-name="asciitilde" unicode="~" horiz-adv-x="1014" 
 />
    <glyph glyph-name="exclamdown" unicode="&#xa1;" horiz-adv-x="443" 
d="M108 0h-8q-52 0 -52 84v108q0 46 20 172v44q-24 119 -36 384v40q0 31 60 100q0 38 68 52q68 0 92 -76q0 -28 44 -116q40 -161 68 -336v-68q-20 -77 -20 -96v-12q0 -58 4 -132q0 -69 -104 -88h-60q-51 -60 -76 -60zM84 1056q-76 80 -76 88q-8 38 -8 60v16q0 95 80 136
q18 12 64 12q127 0 172 -128l4 -48q0 -93 -52 -108q-12 -9 -56 -24q-21 0 -80 4q-10 0 -48 -8z" />
    <glyph glyph-name="cent" unicode="&#xa2;" horiz-adv-x="1139" 
 />
    <glyph glyph-name="sterling" unicode="&#xa3;" horiz-adv-x="1014" 
 />
    <glyph glyph-name="currency" unicode="&#xa4;" horiz-adv-x="1014" 
 />
    <glyph glyph-name="yen" unicode="&#xa5;" horiz-adv-x="1262" 
 />
    <glyph glyph-name="brokenbar" unicode="&#xa6;" horiz-adv-x="1014" 
 />
    <glyph glyph-name="section" unicode="&#xa7;" horiz-adv-x="1014" 
 />
    <glyph glyph-name="dieresis" unicode="&#xa8;" horiz-adv-x="1024" 
 />
    <glyph glyph-name="copyright" unicode="&#xa9;" horiz-adv-x="1749" 
d="M95 1649h1572q5 -1 5 -5v-1993q0 -5 -5 -5h-1572q-5 0 -5 5v1993q1 5 5 5zM113 1618v-1942h1536v1942h-1536zM1122 1583h25q7 0 13 -26h3l12 3q20 -2 28 -10q0 10 18 10v-3l5 3l18 -3v8q0 18 23 18h22q7 0 13 -26l15 3q26 -3 26 -10v-64q0 -3 -13 -12h-31v-142
q0 -38 -5 -38q3 -3 5 -33q-3 -10 -7 -10h-5q-8 0 -8 43h-2q0 -15 -8 -15q-8 2 -8 15v17h-5v-38q0 -12 3 -38l-5 -2h-5q-5 0 -5 5v13q0 18 2 28l-5 98q3 19 3 46v51h-31q-1 0 -12 12q0 -3 -13 -12h-31v-66q0 -6 3 -10l-3 -5q3 -36 3 -61q0 -11 -5 -36q2 -26 2 -40l-7 -5h-3
q-10 0 -10 43h-2q0 -15 -5 -15q-8 0 -11 32h-2l-3 -15q3 -58 3 -61q-6 -5 -8 -5q-3 0 -7 11q0 16 2 32q-2 49 -2 87q0 11 -3 15q3 14 3 23v76h-28q-15 9 -15 23v45q0 18 22 18h3l18 -3q0 26 20 26zM1008 1578h35q11 -4 11 -18v-25q0 -22 2 -46l-2 -13q2 -21 2 -35
q0 -3 -2 -8l2 -15v-13q0 -14 -2 -17q2 -14 2 -23v-8q0 -51 -15 -51q-5 0 -18 -17h-10v-8q0 -8 -3 -8l3 -12v-20q0 -4 -8 -8h-2q-8 2 -8 15v20q0 28 -7 31q-9 -5 -16 -5q-6 0 -7 10h-3v-31q0 -3 -7 -7q-5 0 -5 5l2 25q-2 14 -2 26q-10 -13 -21 -13q-15 13 -15 51q3 61 3 96
v86q0 20 12 26h21q25 0 25 -31v-172q1 -5 5 -5h10q8 1 8 20v180q0 14 10 18zM219 1575h3q35 0 35 -23q11 -63 11 -73h2q7 86 28 86q2 0 15 -2q13 2 15 2q11 -4 11 -8q-33 -189 -38 -246l-6 -2h-2l-10 8q-6 -6 -10 -6v-27q0 -4 -8 -8q-7 0 -13 63q-12 0 -17 64h-3
q-5 -77 -15 -102q0 -7 -5 -7h-3q-5 0 -5 5v30q0 13 -5 31h-2q-11 -46 -18 -46h-3q-9 0 -15 74q-13 42 -30 177l7 5h36q12 0 25 -84h3q7 89 17 89zM678 1575q65 0 76 -43q3 -17 3 -28v-96q0 -37 -3 -114l-5 -3l-7 5l2 26v15q-8 0 -12 -18l2 -15v-13q0 -3 -8 -7h-2q-5 0 -5 5
v30q0 5 -5 5q0 -3 -8 -7h-5l-13 7l-5 -7v-26q0 -3 -7 -7h-3q-2 0 -7 10l2 12q-2 18 -2 21l-13 -3l-5 10q2 18 2 28v3q-5 -1 -5 -5v-16q0 -22 3 -50q-4 -23 -10 -23q-4 0 -8 8q-2 87 -2 111q0 9 2 23q-2 13 -2 15q2 72 2 124v3q0 20 38 20h10zM404 1573h16q28 0 50 -51
q0 -33 3 -81q0 -12 -3 -59q3 -45 3 -60q-3 -40 -3 -59l-5 -2q-7 0 -10 48q-13 10 -13 28h-2q0 -26 -10 -26l-5 3q-5 -3 -10 -3q-8 10 -8 16q-8 0 -8 -33l3 -10q-3 -13 -8 -13l-5 10l3 25q-2 21 -8 21q-7 -7 -12 -41l-6 -2q-5 0 -10 38q-6 0 -12 25v142q0 84 60 84zM541 1573
h21q29 0 50 -51q0 -23 3 -30q0 -3 -3 -3l3 -30v-168q0 -5 -3 -10q3 -4 3 -10q-4 -10 -8 -10q-7 0 -10 50q-10 4 -10 23h-3q0 -21 -12 -23l-5 3q-5 -3 -10 -3q-6 16 -11 16q-5 -22 -5 -26q3 -14 3 -20q-4 -10 -8 -10q-2 10 -5 10l3 18v7q0 19 -8 21q-7 -8 -13 -41h-5
q-4 0 -12 41q-10 11 -10 23v124q0 99 55 99zM853 1570q48 -19 48 -58v-61q-3 -10 -22 -10q-28 0 -28 7v31l-3 13h-15q-8 0 -8 -66v-61l3 -13h15q7 0 10 36l8 5h20q19 0 20 -8v-25q0 -5 -7 -23q2 -35 2 -46l-5 -2q-7 0 -10 22l-5 -2q-5 0 -5 5v30h-3q-7 -18 -10 -45h-2
q-7 0 -10 25l-13 3l-5 -8v-23q0 -4 -15 -12h-3l-7 5q2 25 2 38v7q-15 0 -15 16h-3l-2 -13v-38q0 -5 -5 -5t-5 5q0 27 -3 101q3 81 3 117q0 30 45 53h33zM1360 1570h112q4 0 10 -10v-53q0 -21 -20 -21h-54v-55h36q4 0 10 -10v-36q0 -18 -18 -18h-28v-20l6 3q42 -3 63 -3
q8 -9 8 -18v-25q0 -5 -6 -5h-2q-4 0 -8 7v13h-5l-10 -18h-2q-7 0 -8 10h-3q0 -20 -7 -20h-5q-7 0 -10 33h-3q-8 -43 -15 -43h-5q-12 14 -23 15q-3 10 -3 18h-2q0 -11 -10 -15q-2 0 -8 7q3 26 3 38v11q0 17 -3 20q3 17 3 28v147q0 19 7 20zM1507 1570h71q49 -11 49 -71v-84
q0 -19 -16 -53q21 -38 21 -45v-8l-8 -28q0 -2 3 -20q-2 0 -13 -10q-4 0 -8 7v36h-5l-2 -13q2 -31 2 -33q-4 -10 -7 -10t-11 10l3 18v5q0 26 -28 79h-8v-23q-5 -25 -5 -28l3 -23q-3 -13 -8 -13h-2q-6 0 -8 13q3 22 3 33l-5 2q0 -5 -5 -5h-3q-5 0 -5 11h-3q0 -15 -2 -18
q2 0 5 -41q-4 -10 -8 -10h-5q-5 0 -7 15q0 6 5 46q-2 15 -5 15q2 64 2 94v122q0 30 10 30zM394 1489v-119l3 -13h15q8 3 8 15v97q0 28 -13 28h-5q-4 0 -8 -8zM536 1481v-12q0 -29 3 -54q-3 -14 -3 -45q2 -13 8 -13h10q4 0 8 8v116q0 14 -8 16h-2q-16 0 -16 -16zM683 1497
q0 -3 -2 -8l2 -5l-2 -5q2 -5 2 -8l-2 -5q2 -4 2 -10l-2 -5q0 -3 2 -3l-2 -12v-79l2 -13q5 3 11 3v124l2 26h-13zM1550 1492v-82h3l13 3v73q0 6 -5 6h-11zM519 1268q72 0 106 -71q25 -34 25 -119q-2 -10 -2 -20q13 -2 13 -8v-10q-8 -22 -8 -35q3 0 20 -23v-8h-5v-12
q0 -12 8 -43q-5 -3 -8 -3q0 -1 10 -30l-5 -3h-2l-5 3q0 -12 -11 -56h-7q0 25 -8 25q-5 -23 -5 -33v-7h-7q0 7 -5 7h-3q0 -27 -18 -30q-2 -28 -10 -28l-10 7q-5 -35 -5 -45h-3q-12 7 -12 15q-4 -3 -13 -23h-5q0 20 -8 20q-7 -22 -12 -22q-8 8 -8 12h-3l-7 -15h-8q-2 18 -7 18
q-7 -16 -13 -18q-5 12 -10 13l-10 -8h-3q-4 0 -18 23q0 -8 -5 -8h-5q-10 39 -10 44l-10 -13q-7 0 -10 51h-3v-6h-7l-10 56l-13 -10q-5 0 -5 5q5 22 5 28q0 10 -5 38l-10 -5q0 3 -3 3q3 25 3 38v17q0 5 17 36v7q-7 24 -7 36q0 2 13 18v25q0 78 65 137q29 23 82 30zM384 1109
v-38q10 -12 10 -13q0 -15 -5 -74q5 0 5 -5v-17h8v-21h2q0 10 6 10q5 0 5 -5v-22q5 -7 5 -11h5q0 32 30 49q5 -1 5 -5q0 -3 -15 -23v-3q8 5 15 5h8l-3 13v15q0 4 8 8q5 -1 5 -5q-3 -5 -3 -8q6 -8 6 -13l5 3h5q11 -13 20 -13h2l16 13h2l13 -3l2 13v3h-2q-5 -3 -8 -3l-2 5
q5 3 7 3v2l-7 13l5 2q18 -10 18 -30v-5l-3 -5l10 -3v13q1 5 5 5q3 -14 36 -51h2v13q1 5 5 5l5 -2v7l-2 18q2 0 2 2l6 -2h5q0 33 5 46l-5 48q12 3 12 35q0 128 -73 170h-3q-6 -2 -20 -30q10 -2 10 -8v-2l-63 -89q-3 5 -3 7q25 60 25 66q-22 5 -22 13l22 51h-2q-54 0 -107 -71
q-20 -50 -20 -76zM316 1230l2 -5q-2 -77 -2 -114l-10 -7q-4 0 -18 78q-7 5 -8 5h-61l-2 -25v-152h56q12 0 20 58h5q4 0 8 -8v-60q0 -3 -3 -3l3 -5v-79q0 -4 -11 -10q-5 4 -15 59l-5 2q-46 3 -58 3v-112q0 -66 20 -66q14 0 18 -10v-15q0 -1 -5 -8l-26 3h-60l-18 -3
q-5 10 -5 21q0 4 28 20q5 13 5 53v281q0 64 -13 64q-20 3 -20 20v8l2 5q51 -3 76 -3h54q22 0 43 5zM1036 1215q25 0 263 -7l3 -6q0 -29 -3 -88q-2 0 -2 -3q-30 3 -43 3h-28q-10 -303 -10 -368q-3 -5 -3 -8q3 0 3 -2l-5 -3q-71 3 -117 3l-5 2l3 6q0 56 10 375h-69q-5 0 -5 7
l3 87zM1000 1197q13 0 16 -25q-3 -30 -3 -46h-3q6 -8 6 -15v-28q0 -20 -39 -28v-5h6q33 0 33 -17q2 -22 5 -94l-3 -26l5 -60q-2 -33 -7 -33h-21l-86 68q-24 28 -101 89l2 -26v-32q0 -3 -2 -3q5 -10 5 -28v-40q0 -15 -23 -33q-48 0 -48 7l-18 -2h-10q-8 0 -8 40v64
q0 14 -2 35l2 5q-2 14 -2 23v15q0 14 2 23q-2 14 -2 20q-3 114 -3 147l5 3h15q16 0 89 -71v-25l-7 -11q3 -2 12 -2q0 4 10 10h13q11 0 66 -48l5 -3v59q0 31 -3 78q0 15 74 15h20zM1408 1152q173 -16 173 -31q38 -24 38 -58v-5q0 -39 -13 -76q-94 15 -101 18q0 6 2 38
q0 9 -63 15q-17 0 -20 -48q0 -22 96 -26q74 -23 74 -76v-2q0 -17 -5 -38l25 -36v-2q-38 -24 -38 -41q-23 -58 -81 -58q-160 14 -160 33q-20 0 -33 61q5 34 5 66q5 2 8 2q79 -5 96 -10q-3 -27 -5 -33q0 -17 61 -20q18 0 18 55q0 9 -109 21q-59 27 -59 68v41l-30 33
q40 23 40 56q27 53 81 53zM415 1142h2v-3q0 -4 3 -30q-4 -10 -8 -10l-5 2l3 13v23q0 5 5 5zM623 1129l2 -5v-3q0 -9 -2 -22q2 -5 2 -8l-5 -3q-5 0 -5 5v3q0 33 8 33zM430 1104h15q8 -6 36 -13v-5q-18 0 -49 10q-7 0 -7 5zM584 1093q16 -2 16 -7q-10 0 -38 -13l-3 5
q14 14 25 15zM422 1086h3q8 0 50 -23v-8h-12v-2q8 0 15 -13v-2q0 -3 -3 -3l3 -5q-11 -15 -33 -15h-3q-32 3 -32 25q0 18 22 18v2h-7q-13 -7 -26 -7h-2v10q0 19 25 23zM501 1083q7 -9 7 -17v-3q0 -4 -7 -8l-3 5l3 6q-5 10 -5 15zM516 1083q5 -14 5 -33l-5 -2q-5 9 -5 20v10
q1 5 5 5zM612 1081l18 -21v-2q0 -5 -5 -5h-5q-5 0 -5 5q-4 0 -28 -5v-3q23 -6 23 -17q-9 -26 -33 -26q-10 4 -10 8l2 5q-28 4 -28 13v2q6 10 13 10l-5 8v2q0 13 63 26zM374 1063q1 -5 5 -5h3v5h-8zM478 1055q15 -5 15 -10q-3 -12 -7 -12q-5 0 -5 5l2 5q-6 5 -10 5v2q1 5 5 5
zM372 1048l5 -31h5l-3 13v20h-2zM422 1045q0 -4 10 -10h3l-3 5v5l3 5h-8q-5 0 -5 -5zM458 1048v-15q8 5 12 5q-1 5 -12 10zM643 1048v-5q5 2 7 2v3h-7zM584 1043q3 -5 3 -8q-3 -5 -3 -7q12 4 13 10q-8 5 -13 5zM552 1033l5 -3h5v10q-10 -4 -10 -7zM643 1035v-7h2v7h-2z
M524 1030q12 -3 22 -43q-2 0 -2 -3q-23 0 -23 21zM498 1028l3 -6v-15q0 -14 2 -35q-5 -15 -10 -15l-5 2q3 9 3 10l-3 26q4 33 10 33zM473 1022h5l5 -2q0 2 3 2l2 -5v-10q-9 -15 -13 -15q-2 5 -2 8q8 11 8 15v2h-3q0 -18 -33 -22h-10q-14 0 -25 17v3q0 5 5 5q8 -15 22 -15h13
q23 4 23 17zM544 1022q18 -20 38 -20q19 0 33 13l2 -5q0 -15 -35 -21q-28 0 -43 31zM521 886l-5 2q-17 -2 -28 -2h-7q-6 -1 -6 -6q24 -5 26 -5l45 13v3h-5q-7 0 -20 -5zM569 891q0 -15 -17 -36q4 -11 10 -13q8 0 17 33v8q0 4 -10 8zM445 868q0 -29 20 -38q7 0 10 20v3
q-12 0 -12 25v5q-13 0 -18 -15zM442 703q6 0 18 -96q28 44 38 48q50 -17 54 -23l-3 -36q0 -12 13 -65v-3q-11 -15 -61 -43q-81 9 -81 15l5 31q-18 129 -36 162l8 5h18q3 0 27 5zM1081 703h51q5 0 5 -8q-7 -22 -7 -30v-8h20q5 0 5 -5v-2q0 -21 -10 -21l-18 3q-2 -5 -2 -8
q-3 -34 -3 -73q20 -11 20 -15q-11 -23 -25 -33q-56 32 -56 38q15 28 15 96q-15 0 -15 8v5q2 15 8 15q5 -3 7 -3q3 5 3 8q-3 26 -3 30zM846 680h2q26 -29 26 -40q-17 -36 -23 -38h-3q-4 0 -15 27h-8q-5 -27 -7 -27q0 -44 15 -44q35 -4 35 -12q-15 -31 -22 -33h-3l-73 18
q-3 4 -3 7l8 28q0 71 -26 71q-2 0 -2 3q2 17 20 38q51 -15 51 -41h2q20 42 26 43zM957 678q43 -23 71 -28l3 -5q-10 -43 -10 -74q0 -13 20 -28v-2q-19 -31 -28 -31q-38 20 -38 38h-3q-40 -35 -43 -35q-40 20 -40 43q0 46 17 46q14 2 16 2v5l-21 23v3q43 43 56 43zM645 670h3
q38 -13 73 -20q0 -3 3 -3q-3 -17 -3 -28q0 -50 8 -81q-33 -15 -63 -38q-39 15 -71 20l-3 6q0 7 3 17q-3 43 -16 84v2q4 7 49 26q0 4 17 15zM1249 657q16 -13 68 -38v-5q-9 0 -20 -94q2 -4 2 -7l-73 -26q-37 26 -63 33v6q10 42 10 81q0 6 -3 20q0 12 48 18q22 12 31 12z
M176 645q5 -1 5 -5v-11q33 -159 46 -159q7 0 13 -10v-3q-2 -33 -10 -33h-6q-50 12 -50 15q0 38 -48 180q-3 0 -3 3v10q8 0 53 13zM922 642v-10q29 -41 53 -41q2 5 2 11v17q-26 23 -55 23zM633 635v-3q5 -84 15 -84q30 -7 33 -7l-3 17v26q0 48 -38 48q-2 0 -7 3zM1368 637
q38 -24 38 -41v-10h2q30 36 33 36h3q18 -26 18 -43v-3q-28 -33 -31 -33q-7 0 -12 33h-5q-10 0 -21 -58q0 -10 43 -25v-6q0 -3 -28 -27h-2q-4 0 -71 35q20 48 20 89q0 11 -20 18q0 12 33 35zM1223 624v-2q-5 -29 -5 -81q23 -15 33 -15q10 55 10 68v5q-10 15 -38 25zM463 586
q7 -55 12 -55q24 -5 38 -5q-13 83 -15 83l-15 3h-2q-6 0 -18 -26zM290 612q40 -10 61 -10l5 2q13 -3 13 -8v-17q4 -74 28 -74q7 0 7 -5q0 -13 -17 -35h-3q-45 9 -45 25h-3q-30 -46 -35 -46q-51 10 -51 51q-5 16 -5 20q19 16 28 16v2q0 2 -28 23q34 56 45 56zM1502 607
q15 0 43 -31v-5q-25 -63 -25 -89q15 -12 18 -12q22 0 35 73q5 0 5 18v18l3 5q56 -12 56 -20q-24 -42 -59 -180l-5 -3h-40q-5 0 -5 8q10 15 22 73h-2l-38 -28q-48 35 -48 41q15 20 28 86l-11 18v2q0 21 23 26zM937 594q-3 -4 -3 -10v-10q0 -20 13 -26h8q20 15 20 28
q-26 18 -38 18zM262 566q8 -21 61 -38h3l2 5q0 36 -33 36q-18 2 -20 2zM290 528v-10q0 -36 26 -36q17 21 17 33q-8 6 -43 13zM524 475q43 0 88 -59q4 0 8 -7q0 -16 -13 -33q-9 5 -20 5q36 -34 36 -53q0 -34 -46 -41h-15q-37 0 -61 36q-28 21 -28 35v23q0 5 8 5q7 -5 30 -10
v2q-38 34 -38 59q0 31 51 38zM835 472h36q17 0 68 -63l38 -119l-5 -3h-38q-21 23 -38 23q-6 -23 -10 -23h-40q-4 0 -56 56q39 129 45 129zM980 472l10 -2l18 2q7 0 61 -58v-43q0 -24 2 -58q-2 -9 -2 -26h-41q-53 47 -53 61v86l-3 31q4 0 8 7zM1094 472q9 0 23 -2q4 2 10 2
q8 0 43 -35v28q0 5 20 7v-2l6 2q2 0 2 -2l5 2q9 0 61 -61v-119q0 -5 -5 -5h-46l-35 33v-28q0 -5 -5 -5h-33q-56 52 -56 58v117q0 4 10 10zM481 432q0 -25 48 -43l2 -5v-8q-1 -8 -18 -8q-8 0 -32 8v-20q0 -6 35 -11q43 7 43 33v11q0 20 -38 33q-13 10 -13 12q4 10 8 10h10
q5 0 26 -5q5 7 5 21q-15 5 -33 7q-43 -4 -43 -35zM638 470h48q28 0 86 -69q13 -11 13 -30q0 -41 -56 -46v-33q0 -5 -5 -5h-30q-13 0 -44 38q-3 0 -17 18v122q0 5 5 5zM640 462l-2 -30v-79q1 -5 5 -5h25v33q0 4 36 10q17 13 17 28v10q0 33 -35 33h-46zM835 462l-35 -114h30
q5 23 11 23h33q7 0 10 -23h30v3q-35 106 -35 111h-44zM980 462v-114h28v114h-28zM1092 462v-114h25v48l-3 31l5 2q43 -80 46 -81h38v114h-25v-78h-3q-4 0 -43 78h-40zM858 444q5 -7 13 -48q0 -5 -5 -5h-18q-5 0 -5 5q9 48 15 48zM676 442q18 -4 18 -10v-5q0 -18 -18 -18h-3
q-5 0 -5 5v23q0 5 8 5zM171 269h1420q36 -3 36 -30v-162q0 -27 -36 -31h-1420q-35 4 -35 31v162q0 26 35 30zM199 211v-58l-8 -10l8 -10v-23q0 -4 31 -31h25l13 10h2l13 -10h25q4 0 31 31v23l7 10l-7 10v58h-31v-91q0 -5 -5 -5h-15q-5 0 -5 5v13l10 12q-4 0 -10 10v56h-28
v-56l-10 -12q4 0 10 -10v-13q0 -5 -5 -5h-15q-5 0 -5 5v91h-31zM366 188v-33q0 -1 -10 -12l10 -13v-36q8 -15 23 -15h36q25 0 25 38v16l8 10l-8 10v20q0 38 -30 38h-26q-28 0 -28 -23zM478 188v-33l-10 -12l10 -13v-28q3 -23 23 -23h35q26 0 26 38v16l7 10l-7 10v15
q0 43 -26 43h-30q-28 0 -28 -23zM592 211v-56l-8 -10l8 -10v-51q1 -5 5 -5h56q25 0 25 43v13l8 10l-8 10v16q0 40 -30 40h-56zM709 188v-25q0 -15 -10 -15v-3q10 -11 10 -12v-31q3 -23 23 -23h35q25 0 25 31v15h-30q0 -18 -8 -18h-10q-3 0 -7 8v18l10 12l-10 13v18q2 7 15 7
h2q8 0 8 -18h30v8q0 38 -30 38h-25q-28 0 -28 -23zM813 211v-56l-10 -12q3 0 10 -10v-26q0 -28 28 -28h33q22 4 22 23v31l10 12q-3 0 -10 10v56h-28v-96q0 -4 -7 -8h-13q-5 0 -5 5v99h-30zM917 211v-28h25q5 -1 5 -5v-23l-8 -10v-2l8 -10v-54h30v54l8 10l-8 10v25q1 5 6 5
h25v28h-91zM1016 211v-28h27q5 -1 5 -5v-23l-10 -12q10 -4 10 -18v-46h28v54l10 12q-3 0 -10 10v23q1 5 5 5h26v28h-91zM1127 211v-56l-10 -12q4 0 10 -10v-54h81v28h-48q-5 0 -5 5v13q1 5 5 5h33v30h-33q-5 0 -5 5v13q1 5 5 5h48v28h-81zM1231 211v-56l-10 -12q4 0 10 -10
v-54h28v38h5q18 -34 18 -38h33v3l-21 40q18 8 18 23v43q0 23 -28 23h-53zM1398 211v-56q0 -1 -10 -12q4 0 10 -10v-54h84v28h-51q-5 0 -5 5v13q1 5 5 5h33v30h-33q-5 0 -5 5v13q1 5 5 5h51v28h-84zM1492 176v-3q9 -9 15 -35q9 -8 31 -8h12q6 -1 6 -5v-13q0 -5 -6 -5h-12
q-8 0 -8 15h-28v-20q0 -23 28 -23h28q28 0 28 28q4 0 10 10q-9 0 -13 31q-9 12 -35 12h-10q-4 0 -8 8v5q0 4 10 10h8q6 0 10 -18l5 3h15l5 -3l3 6v15q0 25 -30 25h-26q-30 0 -30 -33q-5 -2 -8 -2zM410 183h2q4 0 8 -7v-61q0 -4 -8 -8h-10q-4 0 -8 8v61q3 7 16 7zM521 183h3
q3 0 7 -7v-61q0 -4 -7 -8h-11q-3 0 -7 8v61q2 7 15 7zM1264 183h13q3 0 7 -7v-21q0 -3 -7 -7h-13q-5 0 -5 5v25q1 5 5 5zM628 181h15q5 -1 5 -5v-61q0 -4 -8 -8h-12q-5 0 -5 5v64q0 5 5 5zM1338 92q1 -13 7 -13h15q5 0 5 5v16q0 3 -7 7h-5q-15 0 -15 -15zM306 3q20 -6 20 -7
q20 7 25 7q17 0 26 -15l-3 -15l41 -86q13 15 40 91q4 25 26 25q19 -5 22 -5q18 5 31 5q18 -5 18 -10v-13q-13 -13 -13 -22v-56q0 -15 28 -28l2 -13q0 -6 -25 -25q-5 -8 -5 -15v-41q10 -38 10 -40q0 -4 -10 -11h-15q-18 0 -18 5q-9 -5 -20 -5h-11q-13 0 -17 11v7q10 31 10 33
v53l-18 -33q0 -5 -13 -5q-10 0 -20 3q-10 -3 -20 -3h-3q-17 0 -28 36h-2v-53q0 -3 10 -31v-7q-3 -11 -20 -11q-12 0 -26 3q-13 -3 -30 -3q-15 0 -15 18q0 3 10 31v60q-19 6 -31 21q0 11 28 33v7q0 12 3 59q-13 28 -13 30q0 13 26 15zM620 3l20 -7q20 7 26 7q25 -4 25 -18
q-3 -13 -3 -15l41 -83q11 6 38 88l13 23q0 5 15 5q19 -5 23 -5q18 5 28 5q13 0 20 -12v-11l-13 -15v-63q0 -16 28 -28q0 -6 3 -10q0 -9 -26 -28q-5 -8 -5 -15v-46q10 -30 10 -33q-3 -13 -17 -13h-8q-18 0 -18 5q-9 -5 -20 -5h-10q-14 0 -18 11v5q0 6 8 30v56h-3
q-4 -36 -25 -36q-11 0 -20 3q-10 -3 -21 -3h-2q-21 0 -26 33l-5 3v-56q0 -9 10 -23v-12q-3 -11 -20 -11q-12 0 -25 3q-13 -3 -31 -3h-5q-4 0 -10 11v15q10 14 10 23q0 5 -2 10q2 17 2 28v22q-12 0 -30 21q0 12 28 33v22q0 15 2 41q-7 21 -12 28v8q6 12 25 12zM919 3
q19 -7 23 -7l18 7q16 0 28 -15l-3 -13q16 -40 20 -40q18 35 21 61l17 7q6 0 26 -7q20 7 25 7q20 -7 20 -12v-11q-55 -76 -55 -93q20 -15 20 -26q0 -7 -15 -20q23 -56 55 -91v-10q-7 -13 -22 -13l-23 2q-18 -2 -28 -2q-13 0 -20 13v2q0 6 2 10q-19 46 -25 46h-3q0 -6 -17 -33
l-3 -10l3 -15q-10 -9 -23 -13q-3 0 -26 2q-22 -2 -28 -2q-17 3 -17 10v10q56 78 56 96q-9 4 -16 21q12 20 23 20q-40 77 -61 99v5q5 15 28 15zM1150 3l28 -7q12 7 18 7q25 0 25 -25q0 -8 15 -41h3l20 36l-3 12v3q11 15 21 15q25 -4 25 -7q24 7 28 7q20 -4 20 -20
q-28 -35 -58 -96q22 -16 23 -21v-7q-18 -17 -18 -21q36 -65 58 -91v-7q0 -7 -23 -13q-6 0 -20 2q-21 -2 -35 -2q-16 0 -18 38q-18 33 -20 33h-3q-20 -35 -20 -41v-17q0 -8 -26 -13q-18 2 -20 2l-30 -2q-15 5 -15 10v5q0 5 38 63q17 32 17 38q-15 9 -15 23q10 16 20 16v2
q-28 64 -58 96v11q0 6 23 12zM1441 3q23 -3 23 -20q-10 -17 -10 -31v-32q0 -10 -2 -23q0 -5 27 -31v-2q0 -15 -22 -26l-5 -20q2 -21 2 -35v-11q10 -28 10 -32q-10 -11 -23 -11q-25 0 -25 5q-9 -5 -20 -5h-8q-18 0 -18 18q13 28 13 33v23q0 35 -25 61v2q23 21 23 33v56
q-11 28 -11 30v6q0 7 26 10q20 -1 20 -5z" />
    <glyph glyph-name="ordfeminine" unicode="&#xaa;" horiz-adv-x="648" 
 />
    <glyph glyph-name="guillemotleft" unicode="&#xab;" horiz-adv-x="944" 
 />
    <glyph glyph-name="logicalnot" unicode="&#xac;" horiz-adv-x="1014" 
 />
    <glyph glyph-name="registered" unicode="&#xae;" horiz-adv-x="1749" 
d="M95 1649h1572q5 -1 5 -5v-1993q0 -5 -5 -5h-1572q-5 0 -5 5v1993q1 5 5 5zM113 1618v-1942h1536v1942h-1536zM1122 1583h25q7 0 13 -26h3l12 3q20 -2 28 -10q0 10 18 10v-3l5 3l18 -3v8q0 18 23 18h22q7 0 13 -26l15 3q26 -3 26 -10v-64q0 -3 -13 -12h-31v-142
q0 -38 -5 -38q3 -3 5 -33q-3 -10 -7 -10h-5q-8 0 -8 43h-2q0 -15 -8 -15q-8 2 -8 15v17h-5v-38q0 -12 3 -38l-5 -2h-5q-5 0 -5 5v13q0 18 2 28l-5 98q3 19 3 46v51h-31q-1 0 -12 12q0 -3 -13 -12h-31v-66q0 -6 3 -10l-3 -5q3 -36 3 -61q0 -11 -5 -36q2 -26 2 -40l-7 -5h-3
q-10 0 -10 43h-2q0 -15 -5 -15q-8 0 -11 32h-2l-3 -15q3 -58 3 -61q-6 -5 -8 -5q-3 0 -7 11q0 16 2 32q-2 49 -2 87q0 11 -3 15q3 14 3 23v76h-28q-15 9 -15 23v45q0 18 22 18h3l18 -3q0 26 20 26zM1008 1578h35q11 -4 11 -18v-25q0 -22 2 -46l-2 -13q2 -21 2 -35
q0 -3 -2 -8l2 -15v-13q0 -14 -2 -17q2 -14 2 -23v-8q0 -51 -15 -51q-5 0 -18 -17h-10v-8q0 -8 -3 -8l3 -12v-20q0 -4 -8 -8h-2q-8 2 -8 15v20q0 28 -7 31q-9 -5 -16 -5q-6 0 -7 10h-3v-31q0 -3 -7 -7q-5 0 -5 5l2 25q-2 14 -2 26q-10 -13 -21 -13q-15 13 -15 51q3 61 3 96
v86q0 20 12 26h21q25 0 25 -31v-172q1 -5 5 -5h10q8 1 8 20v180q0 14 10 18zM219 1575h3q35 0 35 -23q11 -63 11 -73h2q7 86 28 86q2 0 15 -2q13 2 15 2q11 -4 11 -8q-33 -189 -38 -246l-6 -2h-2l-10 8q-6 -6 -10 -6v-27q0 -4 -8 -8q-7 0 -13 63q-12 0 -17 64h-3
q-5 -77 -15 -102q0 -7 -5 -7h-3q-5 0 -5 5v30q0 13 -5 31h-2q-11 -46 -18 -46h-3q-9 0 -15 74q-13 42 -30 177l7 5h36q12 0 25 -84h3q7 89 17 89zM678 1575q65 0 76 -43q3 -17 3 -28v-96q0 -37 -3 -114l-5 -3l-7 5l2 26v15q-8 0 -12 -18l2 -15v-13q0 -3 -8 -7h-2q-5 0 -5 5
v30q0 5 -5 5q0 -3 -8 -7h-5l-13 7l-5 -7v-26q0 -3 -7 -7h-3q-2 0 -7 10l2 12q-2 18 -2 21l-13 -3l-5 10q2 18 2 28v3q-5 -1 -5 -5v-16q0 -22 3 -50q-4 -23 -10 -23q-4 0 -8 8q-2 87 -2 111q0 9 2 23q-2 13 -2 15q2 72 2 124v3q0 20 38 20h10zM404 1573h16q28 0 50 -51
q0 -33 3 -81q0 -12 -3 -59q3 -45 3 -60q-3 -40 -3 -59l-5 -2q-7 0 -10 48q-13 10 -13 28h-2q0 -26 -10 -26l-5 3q-5 -3 -10 -3q-8 10 -8 16q-8 0 -8 -33l3 -10q-3 -13 -8 -13l-5 10l3 25q-2 21 -8 21q-7 -7 -12 -41l-6 -2q-5 0 -10 38q-6 0 -12 25v142q0 84 60 84zM541 1573
h21q29 0 50 -51q0 -23 3 -30q0 -3 -3 -3l3 -30v-168q0 -5 -3 -10q3 -4 3 -10q-4 -10 -8 -10q-7 0 -10 50q-10 4 -10 23h-3q0 -21 -12 -23l-5 3q-5 -3 -10 -3q-6 16 -11 16q-5 -22 -5 -26q3 -14 3 -20q-4 -10 -8 -10q-2 10 -5 10l3 18v7q0 19 -8 21q-7 -8 -13 -41h-5
q-4 0 -12 41q-10 11 -10 23v124q0 99 55 99zM853 1570q48 -19 48 -58v-61q-3 -10 -22 -10q-28 0 -28 7v31l-3 13h-15q-8 0 -8 -66v-61l3 -13h15q7 0 10 36l8 5h20q19 0 20 -8v-25q0 -5 -7 -23q2 -35 2 -46l-5 -2q-7 0 -10 22l-5 -2q-5 0 -5 5v30h-3q-7 -18 -10 -45h-2
q-7 0 -10 25l-13 3l-5 -8v-23q0 -4 -15 -12h-3l-7 5q2 25 2 38v7q-15 0 -15 16h-3l-2 -13v-38q0 -5 -5 -5t-5 5q0 27 -3 101q3 81 3 117q0 30 45 53h33zM1360 1570h112q4 0 10 -10v-53q0 -21 -20 -21h-54v-55h36q4 0 10 -10v-36q0 -18 -18 -18h-28v-20l6 3q42 -3 63 -3
q8 -9 8 -18v-25q0 -5 -6 -5h-2q-4 0 -8 7v13h-5l-10 -18h-2q-7 0 -8 10h-3q0 -20 -7 -20h-5q-7 0 -10 33h-3q-8 -43 -15 -43h-5q-12 14 -23 15q-3 10 -3 18h-2q0 -11 -10 -15q-2 0 -8 7q3 26 3 38v11q0 17 -3 20q3 17 3 28v147q0 19 7 20zM1507 1570h71q49 -11 49 -71v-84
q0 -19 -16 -53q21 -38 21 -45v-8l-8 -28q0 -2 3 -20q-2 0 -13 -10q-4 0 -8 7v36h-5l-2 -13q2 -31 2 -33q-4 -10 -7 -10t-11 10l3 18v5q0 26 -28 79h-8v-23q-5 -25 -5 -28l3 -23q-3 -13 -8 -13h-2q-6 0 -8 13q3 22 3 33l-5 2q0 -5 -5 -5h-3q-5 0 -5 11h-3q0 -15 -2 -18
q2 0 5 -41q-4 -10 -8 -10h-5q-5 0 -7 15q0 6 5 46q-2 15 -5 15q2 64 2 94v122q0 30 10 30zM394 1489v-119l3 -13h15q8 3 8 15v97q0 28 -13 28h-5q-4 0 -8 -8zM536 1481v-12q0 -29 3 -54q-3 -14 -3 -45q2 -13 8 -13h10q4 0 8 8v116q0 14 -8 16h-2q-16 0 -16 -16zM683 1497
q0 -3 -2 -8l2 -5l-2 -5q2 -5 2 -8l-2 -5q2 -4 2 -10l-2 -5q0 -3 2 -3l-2 -12v-79l2 -13q5 3 11 3v124l2 26h-13zM1550 1492v-82h3l13 3v73q0 6 -5 6h-11zM519 1268q72 0 106 -71q25 -34 25 -119q-2 -10 -2 -20q13 -2 13 -8v-10q-8 -22 -8 -35q3 0 20 -23v-8h-5v-12
q0 -12 8 -43q-5 -3 -8 -3q0 -1 10 -30l-5 -3h-2l-5 3q0 -12 -11 -56h-7q0 25 -8 25q-5 -23 -5 -33v-7h-7q0 7 -5 7h-3q0 -27 -18 -30q-2 -28 -10 -28l-10 7q-5 -35 -5 -45h-3q-12 7 -12 15q-4 -3 -13 -23h-5q0 20 -8 20q-7 -22 -12 -22q-8 8 -8 12h-3l-7 -15h-8q-2 18 -7 18
q-7 -16 -13 -18q-5 12 -10 13l-10 -8h-3q-4 0 -18 23q0 -8 -5 -8h-5q-10 39 -10 44l-10 -13q-7 0 -10 51h-3v-6h-7l-10 56l-13 -10q-5 0 -5 5q5 22 5 28q0 10 -5 38l-10 -5q0 3 -3 3q3 25 3 38v17q0 5 17 36v7q-7 24 -7 36q0 2 13 18v25q0 78 65 137q29 23 82 30zM384 1109
v-38q10 -12 10 -13q0 -15 -5 -74q5 0 5 -5v-17h8v-21h2q0 10 6 10q5 0 5 -5v-22q5 -7 5 -11h5q0 32 30 49q5 -1 5 -5q0 -3 -15 -23v-3q8 5 15 5h8l-3 13v15q0 4 8 8q5 -1 5 -5q-3 -5 -3 -8q6 -8 6 -13l5 3h5q11 -13 20 -13h2l16 13h2l13 -3l2 13v3h-2q-5 -3 -8 -3l-2 5
q5 3 7 3v2l-7 13l5 2q18 -10 18 -30v-5l-3 -5l10 -3v13q1 5 5 5q3 -14 36 -51h2v13q1 5 5 5l5 -2v7l-2 18q2 0 2 2l6 -2h5q0 33 5 46l-5 48q12 3 12 35q0 128 -73 170h-3q-6 -2 -20 -30q10 -2 10 -8v-2l-63 -89q-3 5 -3 7q25 60 25 66q-22 5 -22 13l22 51h-2q-54 0 -107 -71
q-20 -50 -20 -76zM316 1230l2 -5q-2 -77 -2 -114l-10 -7q-4 0 -18 78q-7 5 -8 5h-61l-2 -25v-152h56q12 0 20 58h5q4 0 8 -8v-60q0 -3 -3 -3l3 -5v-79q0 -4 -11 -10q-5 4 -15 59l-5 2q-46 3 -58 3v-112q0 -66 20 -66q14 0 18 -10v-15q0 -1 -5 -8l-26 3h-60l-18 -3
q-5 10 -5 21q0 4 28 20q5 13 5 53v281q0 64 -13 64q-20 3 -20 20v8l2 5q51 -3 76 -3h54q22 0 43 5zM1036 1215q25 0 263 -7l3 -6q0 -29 -3 -88q-2 0 -2 -3q-30 3 -43 3h-28q-10 -303 -10 -368q-3 -5 -3 -8q3 0 3 -2l-5 -3q-71 3 -117 3l-5 2l3 6q0 56 10 375h-69q-5 0 -5 7
l3 87zM1000 1197q13 0 16 -25q-3 -30 -3 -46h-3q6 -8 6 -15v-28q0 -20 -39 -28v-5h6q33 0 33 -17q2 -22 5 -94l-3 -26l5 -60q-2 -33 -7 -33h-21l-86 68q-24 28 -101 89l2 -26v-32q0 -3 -2 -3q5 -10 5 -28v-40q0 -15 -23 -33q-48 0 -48 7l-18 -2h-10q-8 0 -8 40v64
q0 14 -2 35l2 5q-2 14 -2 23v15q0 14 2 23q-2 14 -2 20q-3 114 -3 147l5 3h15q16 0 89 -71v-25l-7 -11q3 -2 12 -2q0 4 10 10h13q11 0 66 -48l5 -3v59q0 31 -3 78q0 15 74 15h20zM1408 1152q173 -16 173 -31q38 -24 38 -58v-5q0 -39 -13 -76q-94 15 -101 18q0 6 2 38
q0 9 -63 15q-17 0 -20 -48q0 -22 96 -26q74 -23 74 -76v-2q0 -17 -5 -38l25 -36v-2q-38 -24 -38 -41q-23 -58 -81 -58q-160 14 -160 33q-20 0 -33 61q5 34 5 66q5 2 8 2q79 -5 96 -10q-3 -27 -5 -33q0 -17 61 -20q18 0 18 55q0 9 -109 21q-59 27 -59 68v41l-30 33
q40 23 40 56q27 53 81 53zM415 1142h2v-3q0 -4 3 -30q-4 -10 -8 -10l-5 2l3 13v23q0 5 5 5zM623 1129l2 -5v-3q0 -9 -2 -22q2 -5 2 -8l-5 -3q-5 0 -5 5v3q0 33 8 33zM430 1104h15q8 -6 36 -13v-5q-18 0 -49 10q-7 0 -7 5zM584 1093q16 -2 16 -7q-10 0 -38 -13l-3 5
q14 14 25 15zM422 1086h3q8 0 50 -23v-8h-12v-2q8 0 15 -13v-2q0 -3 -3 -3l3 -5q-11 -15 -33 -15h-3q-32 3 -32 25q0 18 22 18v2h-7q-13 -7 -26 -7h-2v10q0 19 25 23zM501 1083q7 -9 7 -17v-3q0 -4 -7 -8l-3 5l3 6q-5 10 -5 15zM516 1083q5 -14 5 -33l-5 -2q-5 9 -5 20v10
q1 5 5 5zM612 1081l18 -21v-2q0 -5 -5 -5h-5q-5 0 -5 5q-4 0 -28 -5v-3q23 -6 23 -17q-9 -26 -33 -26q-10 4 -10 8l2 5q-28 4 -28 13v2q6 10 13 10l-5 8v2q0 13 63 26zM374 1063q1 -5 5 -5h3v5h-8zM478 1055q15 -5 15 -10q-3 -12 -7 -12q-5 0 -5 5l2 5q-6 5 -10 5v2q1 5 5 5
zM372 1048l5 -31h5l-3 13v20h-2zM422 1045q0 -4 10 -10h3l-3 5v5l3 5h-8q-5 0 -5 -5zM458 1048v-15q8 5 12 5q-1 5 -12 10zM643 1048v-5q5 2 7 2v3h-7zM584 1043q3 -5 3 -8q-3 -5 -3 -7q12 4 13 10q-8 5 -13 5zM552 1033l5 -3h5v10q-10 -4 -10 -7zM643 1035v-7h2v7h-2z
M524 1030q12 -3 22 -43q-2 0 -2 -3q-23 0 -23 21zM498 1028l3 -6v-15q0 -14 2 -35q-5 -15 -10 -15l-5 2q3 9 3 10l-3 26q4 33 10 33zM473 1022h5l5 -2q0 2 3 2l2 -5v-10q-9 -15 -13 -15q-2 5 -2 8q8 11 8 15v2h-3q0 -18 -33 -22h-10q-14 0 -25 17v3q0 5 5 5q8 -15 22 -15h13
q23 4 23 17zM544 1022q18 -20 38 -20q19 0 33 13l2 -5q0 -15 -35 -21q-28 0 -43 31zM521 886l-5 2q-17 -2 -28 -2h-7q-6 -1 -6 -6q24 -5 26 -5l45 13v3h-5q-7 0 -20 -5zM569 891q0 -15 -17 -36q4 -11 10 -13q8 0 17 33v8q0 4 -10 8zM445 868q0 -29 20 -38q7 0 10 20v3
q-12 0 -12 25v5q-13 0 -18 -15zM442 703q6 0 18 -96q28 44 38 48q50 -17 54 -23l-3 -36q0 -12 13 -65v-3q-11 -15 -61 -43q-81 9 -81 15l5 31q-18 129 -36 162l8 5h18q3 0 27 5zM1081 703h51q5 0 5 -8q-7 -22 -7 -30v-8h20q5 0 5 -5v-2q0 -21 -10 -21l-18 3q-2 -5 -2 -8
q-3 -34 -3 -73q20 -11 20 -15q-11 -23 -25 -33q-56 32 -56 38q15 28 15 96q-15 0 -15 8v5q2 15 8 15q5 -3 7 -3q3 5 3 8q-3 26 -3 30zM846 680h2q26 -29 26 -40q-17 -36 -23 -38h-3q-4 0 -15 27h-8q-5 -27 -7 -27q0 -44 15 -44q35 -4 35 -12q-15 -31 -22 -33h-3l-73 18
q-3 4 -3 7l8 28q0 71 -26 71q-2 0 -2 3q2 17 20 38q51 -15 51 -41h2q20 42 26 43zM957 678q43 -23 71 -28l3 -5q-10 -43 -10 -74q0 -13 20 -28v-2q-19 -31 -28 -31q-38 20 -38 38h-3q-40 -35 -43 -35q-40 20 -40 43q0 46 17 46q14 2 16 2v5l-21 23v3q43 43 56 43zM645 670h3
q38 -13 73 -20q0 -3 3 -3q-3 -17 -3 -28q0 -50 8 -81q-33 -15 -63 -38q-39 15 -71 20l-3 6q0 7 3 17q-3 43 -16 84v2q4 7 49 26q0 4 17 15zM1249 657q16 -13 68 -38v-5q-9 0 -20 -94q2 -4 2 -7l-73 -26q-37 26 -63 33v6q10 42 10 81q0 6 -3 20q0 12 48 18q22 12 31 12z
M176 645q5 -1 5 -5v-11q33 -159 46 -159q7 0 13 -10v-3q-2 -33 -10 -33h-6q-50 12 -50 15q0 38 -48 180q-3 0 -3 3v10q8 0 53 13zM922 642v-10q29 -41 53 -41q2 5 2 11v17q-26 23 -55 23zM633 635v-3q5 -84 15 -84q30 -7 33 -7l-3 17v26q0 48 -38 48q-2 0 -7 3zM1368 637
q38 -24 38 -41v-10h2q30 36 33 36h3q18 -26 18 -43v-3q-28 -33 -31 -33q-7 0 -12 33h-5q-10 0 -21 -58q0 -10 43 -25v-6q0 -3 -28 -27h-2q-4 0 -71 35q20 48 20 89q0 11 -20 18q0 12 33 35zM1223 624v-2q-5 -29 -5 -81q23 -15 33 -15q10 55 10 68v5q-10 15 -38 25zM463 586
q7 -55 12 -55q24 -5 38 -5q-13 83 -15 83l-15 3h-2q-6 0 -18 -26zM290 612q40 -10 61 -10l5 2q13 -3 13 -8v-17q4 -74 28 -74q7 0 7 -5q0 -13 -17 -35h-3q-45 9 -45 25h-3q-30 -46 -35 -46q-51 10 -51 51q-5 16 -5 20q19 16 28 16v2q0 2 -28 23q34 56 45 56zM1502 607
q15 0 43 -31v-5q-25 -63 -25 -89q15 -12 18 -12q22 0 35 73q5 0 5 18v18l3 5q56 -12 56 -20q-24 -42 -59 -180l-5 -3h-40q-5 0 -5 8q10 15 22 73h-2l-38 -28q-48 35 -48 41q15 20 28 86l-11 18v2q0 21 23 26zM937 594q-3 -4 -3 -10v-10q0 -20 13 -26h8q20 15 20 28
q-26 18 -38 18zM262 566q8 -21 61 -38h3l2 5q0 36 -33 36q-18 2 -20 2zM290 528v-10q0 -36 26 -36q17 21 17 33q-8 6 -43 13zM524 475q43 0 88 -59q4 0 8 -7q0 -16 -13 -33q-9 5 -20 5q36 -34 36 -53q0 -34 -46 -41h-15q-37 0 -61 36q-28 21 -28 35v23q0 5 8 5q7 -5 30 -10
v2q-38 34 -38 59q0 31 51 38zM835 472h36q17 0 68 -63l38 -119l-5 -3h-38q-21 23 -38 23q-6 -23 -10 -23h-40q-4 0 -56 56q39 129 45 129zM980 472l10 -2l18 2q7 0 61 -58v-43q0 -24 2 -58q-2 -9 -2 -26h-41q-53 47 -53 61v86l-3 31q4 0 8 7zM1094 472q9 0 23 -2q4 2 10 2
q8 0 43 -35v28q0 5 20 7v-2l6 2q2 0 2 -2l5 2q9 0 61 -61v-119q0 -5 -5 -5h-46l-35 33v-28q0 -5 -5 -5h-33q-56 52 -56 58v117q0 4 10 10zM481 432q0 -25 48 -43l2 -5v-8q-1 -8 -18 -8q-8 0 -32 8v-20q0 -6 35 -11q43 7 43 33v11q0 20 -38 33q-13 10 -13 12q4 10 8 10h10
q5 0 26 -5q5 7 5 21q-15 5 -33 7q-43 -4 -43 -35zM638 470h48q28 0 86 -69q13 -11 13 -30q0 -41 -56 -46v-33q0 -5 -5 -5h-30q-13 0 -44 38q-3 0 -17 18v122q0 5 5 5zM640 462l-2 -30v-79q1 -5 5 -5h25v33q0 4 36 10q17 13 17 28v10q0 33 -35 33h-46zM835 462l-35 -114h30
q5 23 11 23h33q7 0 10 -23h30v3q-35 106 -35 111h-44zM980 462v-114h28v114h-28zM1092 462v-114h25v48l-3 31l5 2q43 -80 46 -81h38v114h-25v-78h-3q-4 0 -43 78h-40zM858 444q5 -7 13 -48q0 -5 -5 -5h-18q-5 0 -5 5q9 48 15 48zM676 442q18 -4 18 -10v-5q0 -18 -18 -18h-3
q-5 0 -5 5v23q0 5 8 5zM171 269h1420q36 -3 36 -30v-162q0 -27 -36 -31h-1420q-35 4 -35 31v162q0 26 35 30zM199 211v-58l-8 -10l8 -10v-23q0 -4 31 -31h25l13 10h2l13 -10h25q4 0 31 31v23l7 10l-7 10v58h-31v-91q0 -5 -5 -5h-15q-5 0 -5 5v13l10 12q-4 0 -10 10v56h-28
v-56l-10 -12q4 0 10 -10v-13q0 -5 -5 -5h-15q-5 0 -5 5v91h-31zM366 188v-33q0 -1 -10 -12l10 -13v-36q8 -15 23 -15h36q25 0 25 38v16l8 10l-8 10v20q0 38 -30 38h-26q-28 0 -28 -23zM478 188v-33l-10 -12l10 -13v-28q3 -23 23 -23h35q26 0 26 38v16l7 10l-7 10v15
q0 43 -26 43h-30q-28 0 -28 -23zM592 211v-56l-8 -10l8 -10v-51q1 -5 5 -5h56q25 0 25 43v13l8 10l-8 10v16q0 40 -30 40h-56zM709 188v-25q0 -15 -10 -15v-3q10 -11 10 -12v-31q3 -23 23 -23h35q25 0 25 31v15h-30q0 -18 -8 -18h-10q-3 0 -7 8v18l10 12l-10 13v18q2 7 15 7
h2q8 0 8 -18h30v8q0 38 -30 38h-25q-28 0 -28 -23zM813 211v-56l-10 -12q3 0 10 -10v-26q0 -28 28 -28h33q22 4 22 23v31l10 12q-3 0 -10 10v56h-28v-96q0 -4 -7 -8h-13q-5 0 -5 5v99h-30zM917 211v-28h25q5 -1 5 -5v-23l-8 -10v-2l8 -10v-54h30v54l8 10l-8 10v25q1 5 6 5
h25v28h-91zM1016 211v-28h27q5 -1 5 -5v-23l-10 -12q10 -4 10 -18v-46h28v54l10 12q-3 0 -10 10v23q1 5 5 5h26v28h-91zM1127 211v-56l-10 -12q4 0 10 -10v-54h81v28h-48q-5 0 -5 5v13q1 5 5 5h33v30h-33q-5 0 -5 5v13q1 5 5 5h48v28h-81zM1231 211v-56l-10 -12q4 0 10 -10
v-54h28v38h5q18 -34 18 -38h33v3l-21 40q18 8 18 23v43q0 23 -28 23h-53zM1398 211v-56q0 -1 -10 -12q4 0 10 -10v-54h84v28h-51q-5 0 -5 5v13q1 5 5 5h33v30h-33q-5 0 -5 5v13q1 5 5 5h51v28h-84zM1492 176v-3q9 -9 15 -35q9 -8 31 -8h12q6 -1 6 -5v-13q0 -5 -6 -5h-12
q-8 0 -8 15h-28v-20q0 -23 28 -23h28q28 0 28 28q4 0 10 10q-9 0 -13 31q-9 12 -35 12h-10q-4 0 -8 8v5q0 4 10 10h8q6 0 10 -18l5 3h15l5 -3l3 6v15q0 25 -30 25h-26q-30 0 -30 -33q-5 -2 -8 -2zM410 183h2q4 0 8 -7v-61q0 -4 -8 -8h-10q-4 0 -8 8v61q3 7 16 7zM521 183h3
q3 0 7 -7v-61q0 -4 -7 -8h-11q-3 0 -7 8v61q2 7 15 7zM1264 183h13q3 0 7 -7v-21q0 -3 -7 -7h-13q-5 0 -5 5v25q1 5 5 5zM628 181h15q5 -1 5 -5v-61q0 -4 -8 -8h-12q-5 0 -5 5v64q0 5 5 5zM1338 92q1 -13 7 -13h15q5 0 5 5v16q0 3 -7 7h-5q-15 0 -15 -15zM306 3q20 -6 20 -7
q20 7 25 7q17 0 26 -15l-3 -15l41 -86q13 15 40 91q4 25 26 25q19 -5 22 -5q18 5 31 5q18 -5 18 -10v-13q-13 -13 -13 -22v-56q0 -15 28 -28l2 -13q0 -6 -25 -25q-5 -8 -5 -15v-41q10 -38 10 -40q0 -4 -10 -11h-15q-18 0 -18 5q-9 -5 -20 -5h-11q-13 0 -17 11v7q10 31 10 33
v53l-18 -33q0 -5 -13 -5q-10 0 -20 3q-10 -3 -20 -3h-3q-17 0 -28 36h-2v-53q0 -3 10 -31v-7q-3 -11 -20 -11q-12 0 -26 3q-13 -3 -30 -3q-15 0 -15 18q0 3 10 31v60q-19 6 -31 21q0 11 28 33v7q0 12 3 59q-13 28 -13 30q0 13 26 15zM620 3l20 -7q20 7 26 7q25 -4 25 -18
q-3 -13 -3 -15l41 -83q11 6 38 88l13 23q0 5 15 5q19 -5 23 -5q18 5 28 5q13 0 20 -12v-11l-13 -15v-63q0 -16 28 -28q0 -6 3 -10q0 -9 -26 -28q-5 -8 -5 -15v-46q10 -30 10 -33q-3 -13 -17 -13h-8q-18 0 -18 5q-9 -5 -20 -5h-10q-14 0 -18 11v5q0 6 8 30v56h-3
q-4 -36 -25 -36q-11 0 -20 3q-10 -3 -21 -3h-2q-21 0 -26 33l-5 3v-56q0 -9 10 -23v-12q-3 -11 -20 -11q-12 0 -25 3q-13 -3 -31 -3h-5q-4 0 -10 11v15q10 14 10 23q0 5 -2 10q2 17 2 28v22q-12 0 -30 21q0 12 28 33v22q0 15 2 41q-7 21 -12 28v8q6 12 25 12zM919 3
q19 -7 23 -7l18 7q16 0 28 -15l-3 -13q16 -40 20 -40q18 35 21 61l17 7q6 0 26 -7q20 7 25 7q20 -7 20 -12v-11q-55 -76 -55 -93q20 -15 20 -26q0 -7 -15 -20q23 -56 55 -91v-10q-7 -13 -22 -13l-23 2q-18 -2 -28 -2q-13 0 -20 13v2q0 6 2 10q-19 46 -25 46h-3q0 -6 -17 -33
l-3 -10l3 -15q-10 -9 -23 -13q-3 0 -26 2q-22 -2 -28 -2q-17 3 -17 10v10q56 78 56 96q-9 4 -16 21q12 20 23 20q-40 77 -61 99v5q5 15 28 15zM1150 3l28 -7q12 7 18 7q25 0 25 -25q0 -8 15 -41h3l20 36l-3 12v3q11 15 21 15q25 -4 25 -7q24 7 28 7q20 -4 20 -20
q-28 -35 -58 -96q22 -16 23 -21v-7q-18 -17 -18 -21q36 -65 58 -91v-7q0 -7 -23 -13q-6 0 -20 2q-21 -2 -35 -2q-16 0 -18 38q-18 33 -20 33h-3q-20 -35 -20 -41v-17q0 -8 -26 -13q-18 2 -20 2l-30 -2q-15 5 -15 10v5q0 5 38 63q17 32 17 38q-15 9 -15 23q10 16 20 16v2
q-28 64 -58 96v11q0 6 23 12zM1441 3q23 -3 23 -20q-10 -17 -10 -31v-32q0 -10 -2 -23q0 -5 27 -31v-2q0 -15 -22 -26l-5 -20q2 -21 2 -35v-11q10 -28 10 -32q-10 -11 -23 -11q-25 0 -25 5q-9 -5 -20 -5h-8q-18 0 -18 18q13 28 13 33v23q0 35 -25 61v2q23 21 23 33v56
q-11 28 -11 30v6q0 7 26 10q20 -1 20 -5z" />
    <glyph glyph-name="macron" unicode="&#xaf;" horiz-adv-x="670" 
 />
    <glyph glyph-name="degree" unicode="&#xb0;" horiz-adv-x="674" 
 />
    <glyph glyph-name="plusminus" unicode="&#xb1;" horiz-adv-x="1014" 
 />
    <glyph glyph-name="uni00B2" unicode="&#xb2;" horiz-adv-x="1014" 
 />
    <glyph glyph-name="uni00B3" unicode="&#xb3;" horiz-adv-x="1014" 
 />
    <glyph glyph-name="acute" unicode="&#xb4;" horiz-adv-x="1024" 
 />
    <glyph glyph-name="mu" unicode="&#xb5;" horiz-adv-x="1180" 
 />
    <glyph glyph-name="paragraph" unicode="&#xb6;" horiz-adv-x="1749" 
d="M95 1649h1572q5 -1 5 -5v-1993q0 -5 -5 -5h-1572q-5 0 -5 5v1993q1 5 5 5zM113 1618v-1942h1536v1942h-1536zM1122 1583h25q7 0 13 -26h3l12 3q20 -2 28 -10q0 10 18 10v-3l5 3l18 -3v8q0 18 23 18h22q7 0 13 -26l15 3q26 -3 26 -10v-64q0 -3 -13 -12h-31v-142
q0 -38 -5 -38q3 -3 5 -33q-3 -10 -7 -10h-5q-8 0 -8 43h-2q0 -15 -8 -15q-8 2 -8 15v17h-5v-38q0 -12 3 -38l-5 -2h-5q-5 0 -5 5v13q0 18 2 28l-5 98q3 19 3 46v51h-31q-1 0 -12 12q0 -3 -13 -12h-31v-66q0 -6 3 -10l-3 -5q3 -36 3 -61q0 -11 -5 -36q2 -26 2 -40l-7 -5h-3
q-10 0 -10 43h-2q0 -15 -5 -15q-8 0 -11 32h-2l-3 -15q3 -58 3 -61q-6 -5 -8 -5q-3 0 -7 11q0 16 2 32q-2 49 -2 87q0 11 -3 15q3 14 3 23v76h-28q-15 9 -15 23v45q0 18 22 18h3l18 -3q0 26 20 26zM1008 1578h35q11 -4 11 -18v-25q0 -22 2 -46l-2 -13q2 -21 2 -35
q0 -3 -2 -8l2 -15v-13q0 -14 -2 -17q2 -14 2 -23v-8q0 -51 -15 -51q-5 0 -18 -17h-10v-8q0 -8 -3 -8l3 -12v-20q0 -4 -8 -8h-2q-8 2 -8 15v20q0 28 -7 31q-9 -5 -16 -5q-6 0 -7 10h-3v-31q0 -3 -7 -7q-5 0 -5 5l2 25q-2 14 -2 26q-10 -13 -21 -13q-15 13 -15 51q3 61 3 96
v86q0 20 12 26h21q25 0 25 -31v-172q1 -5 5 -5h10q8 1 8 20v180q0 14 10 18zM219 1575h3q35 0 35 -23q11 -63 11 -73h2q7 86 28 86q2 0 15 -2q13 2 15 2q11 -4 11 -8q-33 -189 -38 -246l-6 -2h-2l-10 8q-6 -6 -10 -6v-27q0 -4 -8 -8q-7 0 -13 63q-12 0 -17 64h-3
q-5 -77 -15 -102q0 -7 -5 -7h-3q-5 0 -5 5v30q0 13 -5 31h-2q-11 -46 -18 -46h-3q-9 0 -15 74q-13 42 -30 177l7 5h36q12 0 25 -84h3q7 89 17 89zM678 1575q65 0 76 -43q3 -17 3 -28v-96q0 -37 -3 -114l-5 -3l-7 5l2 26v15q-8 0 -12 -18l2 -15v-13q0 -3 -8 -7h-2q-5 0 -5 5
v30q0 5 -5 5q0 -3 -8 -7h-5l-13 7l-5 -7v-26q0 -3 -7 -7h-3q-2 0 -7 10l2 12q-2 18 -2 21l-13 -3l-5 10q2 18 2 28v3q-5 -1 -5 -5v-16q0 -22 3 -50q-4 -23 -10 -23q-4 0 -8 8q-2 87 -2 111q0 9 2 23q-2 13 -2 15q2 72 2 124v3q0 20 38 20h10zM404 1573h16q28 0 50 -51
q0 -33 3 -81q0 -12 -3 -59q3 -45 3 -60q-3 -40 -3 -59l-5 -2q-7 0 -10 48q-13 10 -13 28h-2q0 -26 -10 -26l-5 3q-5 -3 -10 -3q-8 10 -8 16q-8 0 -8 -33l3 -10q-3 -13 -8 -13l-5 10l3 25q-2 21 -8 21q-7 -7 -12 -41l-6 -2q-5 0 -10 38q-6 0 -12 25v142q0 84 60 84zM541 1573
h21q29 0 50 -51q0 -23 3 -30q0 -3 -3 -3l3 -30v-168q0 -5 -3 -10q3 -4 3 -10q-4 -10 -8 -10q-7 0 -10 50q-10 4 -10 23h-3q0 -21 -12 -23l-5 3q-5 -3 -10 -3q-6 16 -11 16q-5 -22 -5 -26q3 -14 3 -20q-4 -10 -8 -10q-2 10 -5 10l3 18v7q0 19 -8 21q-7 -8 -13 -41h-5
q-4 0 -12 41q-10 11 -10 23v124q0 99 55 99zM853 1570q48 -19 48 -58v-61q-3 -10 -22 -10q-28 0 -28 7v31l-3 13h-15q-8 0 -8 -66v-61l3 -13h15q7 0 10 36l8 5h20q19 0 20 -8v-25q0 -5 -7 -23q2 -35 2 -46l-5 -2q-7 0 -10 22l-5 -2q-5 0 -5 5v30h-3q-7 -18 -10 -45h-2
q-7 0 -10 25l-13 3l-5 -8v-23q0 -4 -15 -12h-3l-7 5q2 25 2 38v7q-15 0 -15 16h-3l-2 -13v-38q0 -5 -5 -5t-5 5q0 27 -3 101q3 81 3 117q0 30 45 53h33zM1360 1570h112q4 0 10 -10v-53q0 -21 -20 -21h-54v-55h36q4 0 10 -10v-36q0 -18 -18 -18h-28v-20l6 3q42 -3 63 -3
q8 -9 8 -18v-25q0 -5 -6 -5h-2q-4 0 -8 7v13h-5l-10 -18h-2q-7 0 -8 10h-3q0 -20 -7 -20h-5q-7 0 -10 33h-3q-8 -43 -15 -43h-5q-12 14 -23 15q-3 10 -3 18h-2q0 -11 -10 -15q-2 0 -8 7q3 26 3 38v11q0 17 -3 20q3 17 3 28v147q0 19 7 20zM1507 1570h71q49 -11 49 -71v-84
q0 -19 -16 -53q21 -38 21 -45v-8l-8 -28q0 -2 3 -20q-2 0 -13 -10q-4 0 -8 7v36h-5l-2 -13q2 -31 2 -33q-4 -10 -7 -10t-11 10l3 18v5q0 26 -28 79h-8v-23q-5 -25 -5 -28l3 -23q-3 -13 -8 -13h-2q-6 0 -8 13q3 22 3 33l-5 2q0 -5 -5 -5h-3q-5 0 -5 11h-3q0 -15 -2 -18
q2 0 5 -41q-4 -10 -8 -10h-5q-5 0 -7 15q0 6 5 46q-2 15 -5 15q2 64 2 94v122q0 30 10 30zM394 1489v-119l3 -13h15q8 3 8 15v97q0 28 -13 28h-5q-4 0 -8 -8zM536 1481v-12q0 -29 3 -54q-3 -14 -3 -45q2 -13 8 -13h10q4 0 8 8v116q0 14 -8 16h-2q-16 0 -16 -16zM683 1497
q0 -3 -2 -8l2 -5l-2 -5q2 -5 2 -8l-2 -5q2 -4 2 -10l-2 -5q0 -3 2 -3l-2 -12v-79l2 -13q5 3 11 3v124l2 26h-13zM1550 1492v-82h3l13 3v73q0 6 -5 6h-11zM519 1268q72 0 106 -71q25 -34 25 -119q-2 -10 -2 -20q13 -2 13 -8v-10q-8 -22 -8 -35q3 0 20 -23v-8h-5v-12
q0 -12 8 -43q-5 -3 -8 -3q0 -1 10 -30l-5 -3h-2l-5 3q0 -12 -11 -56h-7q0 25 -8 25q-5 -23 -5 -33v-7h-7q0 7 -5 7h-3q0 -27 -18 -30q-2 -28 -10 -28l-10 7q-5 -35 -5 -45h-3q-12 7 -12 15q-4 -3 -13 -23h-5q0 20 -8 20q-7 -22 -12 -22q-8 8 -8 12h-3l-7 -15h-8q-2 18 -7 18
q-7 -16 -13 -18q-5 12 -10 13l-10 -8h-3q-4 0 -18 23q0 -8 -5 -8h-5q-10 39 -10 44l-10 -13q-7 0 -10 51h-3v-6h-7l-10 56l-13 -10q-5 0 -5 5q5 22 5 28q0 10 -5 38l-10 -5q0 3 -3 3q3 25 3 38v17q0 5 17 36v7q-7 24 -7 36q0 2 13 18v25q0 78 65 137q29 23 82 30zM384 1109
v-38q10 -12 10 -13q0 -15 -5 -74q5 0 5 -5v-17h8v-21h2q0 10 6 10q5 0 5 -5v-22q5 -7 5 -11h5q0 32 30 49q5 -1 5 -5q0 -3 -15 -23v-3q8 5 15 5h8l-3 13v15q0 4 8 8q5 -1 5 -5q-3 -5 -3 -8q6 -8 6 -13l5 3h5q11 -13 20 -13h2l16 13h2l13 -3l2 13v3h-2q-5 -3 -8 -3l-2 5
q5 3 7 3v2l-7 13l5 2q18 -10 18 -30v-5l-3 -5l10 -3v13q1 5 5 5q3 -14 36 -51h2v13q1 5 5 5l5 -2v7l-2 18q2 0 2 2l6 -2h5q0 33 5 46l-5 48q12 3 12 35q0 128 -73 170h-3q-6 -2 -20 -30q10 -2 10 -8v-2l-63 -89q-3 5 -3 7q25 60 25 66q-22 5 -22 13l22 51h-2q-54 0 -107 -71
q-20 -50 -20 -76zM316 1230l2 -5q-2 -77 -2 -114l-10 -7q-4 0 -18 78q-7 5 -8 5h-61l-2 -25v-152h56q12 0 20 58h5q4 0 8 -8v-60q0 -3 -3 -3l3 -5v-79q0 -4 -11 -10q-5 4 -15 59l-5 2q-46 3 -58 3v-112q0 -66 20 -66q14 0 18 -10v-15q0 -1 -5 -8l-26 3h-60l-18 -3
q-5 10 -5 21q0 4 28 20q5 13 5 53v281q0 64 -13 64q-20 3 -20 20v8l2 5q51 -3 76 -3h54q22 0 43 5zM1036 1215q25 0 263 -7l3 -6q0 -29 -3 -88q-2 0 -2 -3q-30 3 -43 3h-28q-10 -303 -10 -368q-3 -5 -3 -8q3 0 3 -2l-5 -3q-71 3 -117 3l-5 2l3 6q0 56 10 375h-69q-5 0 -5 7
l3 87zM1000 1197q13 0 16 -25q-3 -30 -3 -46h-3q6 -8 6 -15v-28q0 -20 -39 -28v-5h6q33 0 33 -17q2 -22 5 -94l-3 -26l5 -60q-2 -33 -7 -33h-21l-86 68q-24 28 -101 89l2 -26v-32q0 -3 -2 -3q5 -10 5 -28v-40q0 -15 -23 -33q-48 0 -48 7l-18 -2h-10q-8 0 -8 40v64
q0 14 -2 35l2 5q-2 14 -2 23v15q0 14 2 23q-2 14 -2 20q-3 114 -3 147l5 3h15q16 0 89 -71v-25l-7 -11q3 -2 12 -2q0 4 10 10h13q11 0 66 -48l5 -3v59q0 31 -3 78q0 15 74 15h20zM1408 1152q173 -16 173 -31q38 -24 38 -58v-5q0 -39 -13 -76q-94 15 -101 18q0 6 2 38
q0 9 -63 15q-17 0 -20 -48q0 -22 96 -26q74 -23 74 -76v-2q0 -17 -5 -38l25 -36v-2q-38 -24 -38 -41q-23 -58 -81 -58q-160 14 -160 33q-20 0 -33 61q5 34 5 66q5 2 8 2q79 -5 96 -10q-3 -27 -5 -33q0 -17 61 -20q18 0 18 55q0 9 -109 21q-59 27 -59 68v41l-30 33
q40 23 40 56q27 53 81 53zM415 1142h2v-3q0 -4 3 -30q-4 -10 -8 -10l-5 2l3 13v23q0 5 5 5zM623 1129l2 -5v-3q0 -9 -2 -22q2 -5 2 -8l-5 -3q-5 0 -5 5v3q0 33 8 33zM430 1104h15q8 -6 36 -13v-5q-18 0 -49 10q-7 0 -7 5zM584 1093q16 -2 16 -7q-10 0 -38 -13l-3 5
q14 14 25 15zM422 1086h3q8 0 50 -23v-8h-12v-2q8 0 15 -13v-2q0 -3 -3 -3l3 -5q-11 -15 -33 -15h-3q-32 3 -32 25q0 18 22 18v2h-7q-13 -7 -26 -7h-2v10q0 19 25 23zM501 1083q7 -9 7 -17v-3q0 -4 -7 -8l-3 5l3 6q-5 10 -5 15zM516 1083q5 -14 5 -33l-5 -2q-5 9 -5 20v10
q1 5 5 5zM612 1081l18 -21v-2q0 -5 -5 -5h-5q-5 0 -5 5q-4 0 -28 -5v-3q23 -6 23 -17q-9 -26 -33 -26q-10 4 -10 8l2 5q-28 4 -28 13v2q6 10 13 10l-5 8v2q0 13 63 26zM374 1063q1 -5 5 -5h3v5h-8zM478 1055q15 -5 15 -10q-3 -12 -7 -12q-5 0 -5 5l2 5q-6 5 -10 5v2q1 5 5 5
zM372 1048l5 -31h5l-3 13v20h-2zM422 1045q0 -4 10 -10h3l-3 5v5l3 5h-8q-5 0 -5 -5zM458 1048v-15q8 5 12 5q-1 5 -12 10zM643 1048v-5q5 2 7 2v3h-7zM584 1043q3 -5 3 -8q-3 -5 -3 -7q12 4 13 10q-8 5 -13 5zM552 1033l5 -3h5v10q-10 -4 -10 -7zM643 1035v-7h2v7h-2z
M524 1030q12 -3 22 -43q-2 0 -2 -3q-23 0 -23 21zM498 1028l3 -6v-15q0 -14 2 -35q-5 -15 -10 -15l-5 2q3 9 3 10l-3 26q4 33 10 33zM473 1022h5l5 -2q0 2 3 2l2 -5v-10q-9 -15 -13 -15q-2 5 -2 8q8 11 8 15v2h-3q0 -18 -33 -22h-10q-14 0 -25 17v3q0 5 5 5q8 -15 22 -15h13
q23 4 23 17zM544 1022q18 -20 38 -20q19 0 33 13l2 -5q0 -15 -35 -21q-28 0 -43 31zM521 886l-5 2q-17 -2 -28 -2h-7q-6 -1 -6 -6q24 -5 26 -5l45 13v3h-5q-7 0 -20 -5zM569 891q0 -15 -17 -36q4 -11 10 -13q8 0 17 33v8q0 4 -10 8zM445 868q0 -29 20 -38q7 0 10 20v3
q-12 0 -12 25v5q-13 0 -18 -15zM442 703q6 0 18 -96q28 44 38 48q50 -17 54 -23l-3 -36q0 -12 13 -65v-3q-11 -15 -61 -43q-81 9 -81 15l5 31q-18 129 -36 162l8 5h18q3 0 27 5zM1081 703h51q5 0 5 -8q-7 -22 -7 -30v-8h20q5 0 5 -5v-2q0 -21 -10 -21l-18 3q-2 -5 -2 -8
q-3 -34 -3 -73q20 -11 20 -15q-11 -23 -25 -33q-56 32 -56 38q15 28 15 96q-15 0 -15 8v5q2 15 8 15q5 -3 7 -3q3 5 3 8q-3 26 -3 30zM846 680h2q26 -29 26 -40q-17 -36 -23 -38h-3q-4 0 -15 27h-8q-5 -27 -7 -27q0 -44 15 -44q35 -4 35 -12q-15 -31 -22 -33h-3l-73 18
q-3 4 -3 7l8 28q0 71 -26 71q-2 0 -2 3q2 17 20 38q51 -15 51 -41h2q20 42 26 43zM957 678q43 -23 71 -28l3 -5q-10 -43 -10 -74q0 -13 20 -28v-2q-19 -31 -28 -31q-38 20 -38 38h-3q-40 -35 -43 -35q-40 20 -40 43q0 46 17 46q14 2 16 2v5l-21 23v3q43 43 56 43zM645 670h3
q38 -13 73 -20q0 -3 3 -3q-3 -17 -3 -28q0 -50 8 -81q-33 -15 -63 -38q-39 15 -71 20l-3 6q0 7 3 17q-3 43 -16 84v2q4 7 49 26q0 4 17 15zM1249 657q16 -13 68 -38v-5q-9 0 -20 -94q2 -4 2 -7l-73 -26q-37 26 -63 33v6q10 42 10 81q0 6 -3 20q0 12 48 18q22 12 31 12z
M176 645q5 -1 5 -5v-11q33 -159 46 -159q7 0 13 -10v-3q-2 -33 -10 -33h-6q-50 12 -50 15q0 38 -48 180q-3 0 -3 3v10q8 0 53 13zM922 642v-10q29 -41 53 -41q2 5 2 11v17q-26 23 -55 23zM633 635v-3q5 -84 15 -84q30 -7 33 -7l-3 17v26q0 48 -38 48q-2 0 -7 3zM1368 637
q38 -24 38 -41v-10h2q30 36 33 36h3q18 -26 18 -43v-3q-28 -33 -31 -33q-7 0 -12 33h-5q-10 0 -21 -58q0 -10 43 -25v-6q0 -3 -28 -27h-2q-4 0 -71 35q20 48 20 89q0 11 -20 18q0 12 33 35zM1223 624v-2q-5 -29 -5 -81q23 -15 33 -15q10 55 10 68v5q-10 15 -38 25zM463 586
q7 -55 12 -55q24 -5 38 -5q-13 83 -15 83l-15 3h-2q-6 0 -18 -26zM290 612q40 -10 61 -10l5 2q13 -3 13 -8v-17q4 -74 28 -74q7 0 7 -5q0 -13 -17 -35h-3q-45 9 -45 25h-3q-30 -46 -35 -46q-51 10 -51 51q-5 16 -5 20q19 16 28 16v2q0 2 -28 23q34 56 45 56zM1502 607
q15 0 43 -31v-5q-25 -63 -25 -89q15 -12 18 -12q22 0 35 73q5 0 5 18v18l3 5q56 -12 56 -20q-24 -42 -59 -180l-5 -3h-40q-5 0 -5 8q10 15 22 73h-2l-38 -28q-48 35 -48 41q15 20 28 86l-11 18v2q0 21 23 26zM937 594q-3 -4 -3 -10v-10q0 -20 13 -26h8q20 15 20 28
q-26 18 -38 18zM262 566q8 -21 61 -38h3l2 5q0 36 -33 36q-18 2 -20 2zM290 528v-10q0 -36 26 -36q17 21 17 33q-8 6 -43 13zM524 475q43 0 88 -59q4 0 8 -7q0 -16 -13 -33q-9 5 -20 5q36 -34 36 -53q0 -34 -46 -41h-15q-37 0 -61 36q-28 21 -28 35v23q0 5 8 5q7 -5 30 -10
v2q-38 34 -38 59q0 31 51 38zM835 472h36q17 0 68 -63l38 -119l-5 -3h-38q-21 23 -38 23q-6 -23 -10 -23h-40q-4 0 -56 56q39 129 45 129zM980 472l10 -2l18 2q7 0 61 -58v-43q0 -24 2 -58q-2 -9 -2 -26h-41q-53 47 -53 61v86l-3 31q4 0 8 7zM1094 472q9 0 23 -2q4 2 10 2
q8 0 43 -35v28q0 5 20 7v-2l6 2q2 0 2 -2l5 2q9 0 61 -61v-119q0 -5 -5 -5h-46l-35 33v-28q0 -5 -5 -5h-33q-56 52 -56 58v117q0 4 10 10zM481 432q0 -25 48 -43l2 -5v-8q-1 -8 -18 -8q-8 0 -32 8v-20q0 -6 35 -11q43 7 43 33v11q0 20 -38 33q-13 10 -13 12q4 10 8 10h10
q5 0 26 -5q5 7 5 21q-15 5 -33 7q-43 -4 -43 -35zM638 470h48q28 0 86 -69q13 -11 13 -30q0 -41 -56 -46v-33q0 -5 -5 -5h-30q-13 0 -44 38q-3 0 -17 18v122q0 5 5 5zM640 462l-2 -30v-79q1 -5 5 -5h25v33q0 4 36 10q17 13 17 28v10q0 33 -35 33h-46zM835 462l-35 -114h30
q5 23 11 23h33q7 0 10 -23h30v3q-35 106 -35 111h-44zM980 462v-114h28v114h-28zM1092 462v-114h25v48l-3 31l5 2q43 -80 46 -81h38v114h-25v-78h-3q-4 0 -43 78h-40zM858 444q5 -7 13 -48q0 -5 -5 -5h-18q-5 0 -5 5q9 48 15 48zM676 442q18 -4 18 -10v-5q0 -18 -18 -18h-3
q-5 0 -5 5v23q0 5 8 5zM171 269h1420q36 -3 36 -30v-162q0 -27 -36 -31h-1420q-35 4 -35 31v162q0 26 35 30zM199 211v-58l-8 -10l8 -10v-23q0 -4 31 -31h25l13 10h2l13 -10h25q4 0 31 31v23l7 10l-7 10v58h-31v-91q0 -5 -5 -5h-15q-5 0 -5 5v13l10 12q-4 0 -10 10v56h-28
v-56l-10 -12q4 0 10 -10v-13q0 -5 -5 -5h-15q-5 0 -5 5v91h-31zM366 188v-33q0 -1 -10 -12l10 -13v-36q8 -15 23 -15h36q25 0 25 38v16l8 10l-8 10v20q0 38 -30 38h-26q-28 0 -28 -23zM478 188v-33l-10 -12l10 -13v-28q3 -23 23 -23h35q26 0 26 38v16l7 10l-7 10v15
q0 43 -26 43h-30q-28 0 -28 -23zM592 211v-56l-8 -10l8 -10v-51q1 -5 5 -5h56q25 0 25 43v13l8 10l-8 10v16q0 40 -30 40h-56zM709 188v-25q0 -15 -10 -15v-3q10 -11 10 -12v-31q3 -23 23 -23h35q25 0 25 31v15h-30q0 -18 -8 -18h-10q-3 0 -7 8v18l10 12l-10 13v18q2 7 15 7
h2q8 0 8 -18h30v8q0 38 -30 38h-25q-28 0 -28 -23zM813 211v-56l-10 -12q3 0 10 -10v-26q0 -28 28 -28h33q22 4 22 23v31l10 12q-3 0 -10 10v56h-28v-96q0 -4 -7 -8h-13q-5 0 -5 5v99h-30zM917 211v-28h25q5 -1 5 -5v-23l-8 -10v-2l8 -10v-54h30v54l8 10l-8 10v25q1 5 6 5
h25v28h-91zM1016 211v-28h27q5 -1 5 -5v-23l-10 -12q10 -4 10 -18v-46h28v54l10 12q-3 0 -10 10v23q1 5 5 5h26v28h-91zM1127 211v-56l-10 -12q4 0 10 -10v-54h81v28h-48q-5 0 -5 5v13q1 5 5 5h33v30h-33q-5 0 -5 5v13q1 5 5 5h48v28h-81zM1231 211v-56l-10 -12q4 0 10 -10
v-54h28v38h5q18 -34 18 -38h33v3l-21 40q18 8 18 23v43q0 23 -28 23h-53zM1398 211v-56q0 -1 -10 -12q4 0 10 -10v-54h84v28h-51q-5 0 -5 5v13q1 5 5 5h33v30h-33q-5 0 -5 5v13q1 5 5 5h51v28h-84zM1492 176v-3q9 -9 15 -35q9 -8 31 -8h12q6 -1 6 -5v-13q0 -5 -6 -5h-12
q-8 0 -8 15h-28v-20q0 -23 28 -23h28q28 0 28 28q4 0 10 10q-9 0 -13 31q-9 12 -35 12h-10q-4 0 -8 8v5q0 4 10 10h8q6 0 10 -18l5 3h15l5 -3l3 6v15q0 25 -30 25h-26q-30 0 -30 -33q-5 -2 -8 -2zM410 183h2q4 0 8 -7v-61q0 -4 -8 -8h-10q-4 0 -8 8v61q3 7 16 7zM521 183h3
q3 0 7 -7v-61q0 -4 -7 -8h-11q-3 0 -7 8v61q2 7 15 7zM1264 183h13q3 0 7 -7v-21q0 -3 -7 -7h-13q-5 0 -5 5v25q1 5 5 5zM628 181h15q5 -1 5 -5v-61q0 -4 -8 -8h-12q-5 0 -5 5v64q0 5 5 5zM1338 92q1 -13 7 -13h15q5 0 5 5v16q0 3 -7 7h-5q-15 0 -15 -15zM306 3q20 -6 20 -7
q20 7 25 7q17 0 26 -15l-3 -15l41 -86q13 15 40 91q4 25 26 25q19 -5 22 -5q18 5 31 5q18 -5 18 -10v-13q-13 -13 -13 -22v-56q0 -15 28 -28l2 -13q0 -6 -25 -25q-5 -8 -5 -15v-41q10 -38 10 -40q0 -4 -10 -11h-15q-18 0 -18 5q-9 -5 -20 -5h-11q-13 0 -17 11v7q10 31 10 33
v53l-18 -33q0 -5 -13 -5q-10 0 -20 3q-10 -3 -20 -3h-3q-17 0 -28 36h-2v-53q0 -3 10 -31v-7q-3 -11 -20 -11q-12 0 -26 3q-13 -3 -30 -3q-15 0 -15 18q0 3 10 31v60q-19 6 -31 21q0 11 28 33v7q0 12 3 59q-13 28 -13 30q0 13 26 15zM620 3l20 -7q20 7 26 7q25 -4 25 -18
q-3 -13 -3 -15l41 -83q11 6 38 88l13 23q0 5 15 5q19 -5 23 -5q18 5 28 5q13 0 20 -12v-11l-13 -15v-63q0 -16 28 -28q0 -6 3 -10q0 -9 -26 -28q-5 -8 -5 -15v-46q10 -30 10 -33q-3 -13 -17 -13h-8q-18 0 -18 5q-9 -5 -20 -5h-10q-14 0 -18 11v5q0 6 8 30v56h-3
q-4 -36 -25 -36q-11 0 -20 3q-10 -3 -21 -3h-2q-21 0 -26 33l-5 3v-56q0 -9 10 -23v-12q-3 -11 -20 -11q-12 0 -25 3q-13 -3 -31 -3h-5q-4 0 -10 11v15q10 14 10 23q0 5 -2 10q2 17 2 28v22q-12 0 -30 21q0 12 28 33v22q0 15 2 41q-7 21 -12 28v8q6 12 25 12zM919 3
q19 -7 23 -7l18 7q16 0 28 -15l-3 -13q16 -40 20 -40q18 35 21 61l17 7q6 0 26 -7q20 7 25 7q20 -7 20 -12v-11q-55 -76 -55 -93q20 -15 20 -26q0 -7 -15 -20q23 -56 55 -91v-10q-7 -13 -22 -13l-23 2q-18 -2 -28 -2q-13 0 -20 13v2q0 6 2 10q-19 46 -25 46h-3q0 -6 -17 -33
l-3 -10l3 -15q-10 -9 -23 -13q-3 0 -26 2q-22 -2 -28 -2q-17 3 -17 10v10q56 78 56 96q-9 4 -16 21q12 20 23 20q-40 77 -61 99v5q5 15 28 15zM1150 3l28 -7q12 7 18 7q25 0 25 -25q0 -8 15 -41h3l20 36l-3 12v3q11 15 21 15q25 -4 25 -7q24 7 28 7q20 -4 20 -20
q-28 -35 -58 -96q22 -16 23 -21v-7q-18 -17 -18 -21q36 -65 58 -91v-7q0 -7 -23 -13q-6 0 -20 2q-21 -2 -35 -2q-16 0 -18 38q-18 33 -20 33h-3q-20 -35 -20 -41v-17q0 -8 -26 -13q-18 2 -20 2l-30 -2q-15 5 -15 10v5q0 5 38 63q17 32 17 38q-15 9 -15 23q10 16 20 16v2
q-28 64 -58 96v11q0 6 23 12zM1441 3q23 -3 23 -20q-10 -17 -10 -31v-32q0 -10 -2 -23q0 -5 27 -31v-2q0 -15 -22 -26l-5 -20q2 -21 2 -35v-11q10 -28 10 -32q-10 -11 -23 -11q-25 0 -25 5q-9 -5 -20 -5h-8q-18 0 -18 18q13 28 13 33v23q0 35 -25 61v2q23 21 23 33v56
q-11 28 -11 30v6q0 7 26 10q20 -1 20 -5z" />
    <glyph glyph-name="periodcentered" unicode="&#xb7;" horiz-adv-x="508" 
 />
    <glyph glyph-name="periodcentered" unicode="&#x2219;" horiz-adv-x="508" 
 />
    <glyph glyph-name="cedilla" unicode="&#xb8;" horiz-adv-x="1024" 
 />
    <glyph glyph-name="uni00B9" unicode="&#xb9;" horiz-adv-x="1014" 
 />
    <glyph glyph-name="ordmasculine" unicode="&#xba;" horiz-adv-x="718" 
 />
    <glyph glyph-name="guillemotright" unicode="&#xbb;" horiz-adv-x="944" 
 />
    <glyph glyph-name="onequarter" unicode="&#xbc;" horiz-adv-x="1708" 
 />
    <glyph glyph-name="onehalf" unicode="&#xbd;" horiz-adv-x="1964" 
 />
    <glyph glyph-name="threequarters" unicode="&#xbe;" horiz-adv-x="1708" 
 />
    <glyph glyph-name="questiondown" unicode="&#xbf;" horiz-adv-x="637" 
d="M404 0h-8q-148 0 -296 76q-100 63 -100 244v20q0 126 112 168q14 12 40 12q48 -8 56 -8q25 0 100 200q47 280 72 280q7 20 20 20q78 -28 120 -80q48 -77 48 -152v-12q0 -82 -60 -184q0 -56 -140 -168q-28 -32 -28 -80v-4q0 -68 40 -68q63 4 92 4q78 -67 92 -120v-12
q0 -37 -64 -120q-36 -16 -96 -16zM516 1044q-152 51 -152 136q0 40 -16 56q34 92 120 92q94 0 128 -116q8 -39 8 -44q-48 -124 -88 -124z" />
    <glyph glyph-name="Agrave" unicode="&#xc0;" 
d="M420 1343q20 -11 20 -24h24q31 0 112 -320q69 -208 92 -348q27 -196 56 -196q48 -76 104 -260q60 -118 60 -192q-40 -168 -88 -168q-28 0 -44 124q-4 0 -12 16q-50 -40 -68 -40h-8q-26 0 -60 96q-27 176 -44 176q0 24 -92 44q-17 0 -76 -52h-4q-7 0 -52 48q-28 0 -40 -60
q-52 -136 -52 -184v-120q0 -96 -48 -96q-52 0 -52 240q-11 27 -32 40q-52 0 -52 -20q0 -9 -4 -16q4 -56 4 -96v-36q16 -89 16 -128q0 -35 -20 -44h-12q-22 0 -28 20l4 36q0 21 -16 96q0 69 -4 152q4 28 4 44q-8 13 -8 24v20q24 127 24 152q-8 66 -8 104v12q32 200 48 340
q10 4 96 168q13 0 40 148q128 243 128 264l64 36h28zM428 719q0 -136 -52 -184v-16q30 -36 56 -36h8q64 22 64 36q-8 236 -40 236h-16q-20 -9 -20 -36z" />
    <glyph glyph-name="Aacute" unicode="&#xc1;" 
d="M420 1343q20 -11 20 -24h24q31 0 112 -320q69 -208 92 -348q27 -196 56 -196q48 -76 104 -260q60 -118 60 -192q-40 -168 -88 -168q-28 0 -44 124q-4 0 -12 16q-50 -40 -68 -40h-8q-26 0 -60 96q-27 176 -44 176q0 24 -92 44q-17 0 -76 -52h-4q-7 0 -52 48q-28 0 -40 -60
q-52 -136 -52 -184v-120q0 -96 -48 -96q-52 0 -52 240q-11 27 -32 40q-52 0 -52 -20q0 -9 -4 -16q4 -56 4 -96v-36q16 -89 16 -128q0 -35 -20 -44h-12q-22 0 -28 20l4 36q0 21 -16 96q0 69 -4 152q4 28 4 44q-8 13 -8 24v20q24 127 24 152q-8 66 -8 104v12q32 200 48 340
q10 4 96 168q13 0 40 148q128 243 128 264l64 36h28zM428 719q0 -136 -52 -184v-16q30 -36 56 -36h8q64 22 64 36q-8 236 -40 236h-16q-20 -9 -20 -36z" />
    <glyph glyph-name="Acircumflex" unicode="&#xc2;" 
d="M420 1343q20 -11 20 -24h24q31 0 112 -320q69 -208 92 -348q27 -196 56 -196q48 -76 104 -260q60 -118 60 -192q-40 -168 -88 -168q-28 0 -44 124q-4 0 -12 16q-50 -40 -68 -40h-8q-26 0 -60 96q-27 176 -44 176q0 24 -92 44q-17 0 -76 -52h-4q-7 0 -52 48q-28 0 -40 -60
q-52 -136 -52 -184v-120q0 -96 -48 -96q-52 0 -52 240q-11 27 -32 40q-52 0 -52 -20q0 -9 -4 -16q4 -56 4 -96v-36q16 -89 16 -128q0 -35 -20 -44h-12q-22 0 -28 20l4 36q0 21 -16 96q0 69 -4 152q4 28 4 44q-8 13 -8 24v20q24 127 24 152q-8 66 -8 104v12q32 200 48 340
q10 4 96 168q13 0 40 148q128 243 128 264l64 36h28zM428 719q0 -136 -52 -184v-16q30 -36 56 -36h8q64 22 64 36q-8 236 -40 236h-16q-20 -9 -20 -36z" />
    <glyph glyph-name="Atilde" unicode="&#xc3;" 
d="M420 1343q20 -11 20 -24h24q31 0 112 -320q69 -208 92 -348q27 -196 56 -196q48 -76 104 -260q60 -118 60 -192q-40 -168 -88 -168q-28 0 -44 124q-4 0 -12 16q-50 -40 -68 -40h-8q-26 0 -60 96q-27 176 -44 176q0 24 -92 44q-17 0 -76 -52h-4q-7 0 -52 48q-28 0 -40 -60
q-52 -136 -52 -184v-120q0 -96 -48 -96q-52 0 -52 240q-11 27 -32 40q-52 0 -52 -20q0 -9 -4 -16q4 -56 4 -96v-36q16 -89 16 -128q0 -35 -20 -44h-12q-22 0 -28 20l4 36q0 21 -16 96q0 69 -4 152q4 28 4 44q-8 13 -8 24v20q24 127 24 152q-8 66 -8 104v12q32 200 48 340
q10 4 96 168q13 0 40 148q128 243 128 264l64 36h28zM428 719q0 -136 -52 -184v-16q30 -36 56 -36h8q64 22 64 36q-8 236 -40 236h-16q-20 -9 -20 -36z" />
    <glyph glyph-name="Adieresis" unicode="&#xc4;" 
d="M420 1343q20 -11 20 -24h24q31 0 112 -320q69 -208 92 -348q27 -196 56 -196q48 -76 104 -260q60 -118 60 -192q-40 -168 -88 -168q-28 0 -44 124q-4 0 -12 16q-50 -40 -68 -40h-8q-26 0 -60 96q-27 176 -44 176q0 24 -92 44q-17 0 -76 -52h-4q-7 0 -52 48q-28 0 -40 -60
q-52 -136 -52 -184v-120q0 -96 -48 -96q-52 0 -52 240q-11 27 -32 40q-52 0 -52 -20q0 -9 -4 -16q4 -56 4 -96v-36q16 -89 16 -128q0 -35 -20 -44h-12q-22 0 -28 20l4 36q0 21 -16 96q0 69 -4 152q4 28 4 44q-8 13 -8 24v20q24 127 24 152q-8 66 -8 104v12q32 200 48 340
q10 4 96 168q13 0 40 148q128 243 128 264l64 36h28zM428 719q0 -136 -52 -184v-16q30 -36 56 -36h8q64 22 64 36q-8 236 -40 236h-16q-20 -9 -20 -36z" />
    <glyph glyph-name="Aring" unicode="&#xc5;" 
d="M420 1343q20 -11 20 -24h24q31 0 112 -320q69 -208 92 -348q27 -196 56 -196q48 -76 104 -260q60 -118 60 -192q-40 -168 -88 -168q-28 0 -44 124q-4 0 -12 16q-50 -40 -68 -40h-8q-26 0 -60 96q-27 176 -44 176q0 24 -92 44q-17 0 -76 -52h-4q-7 0 -52 48q-28 0 -40 -60
q-52 -136 -52 -184v-120q0 -96 -48 -96q-52 0 -52 240q-11 27 -32 40q-52 0 -52 -20q0 -9 -4 -16q4 -56 4 -96v-36q16 -89 16 -128q0 -35 -20 -44h-12q-22 0 -28 20l4 36q0 21 -16 96q0 69 -4 152q4 28 4 44q-8 13 -8 24v20q24 127 24 152q-8 66 -8 104v12q32 200 48 340
q10 4 96 168q13 0 40 148q128 243 128 264l64 36h28zM428 719q0 -136 -52 -184v-16q30 -36 56 -36h8q64 22 64 36q-8 236 -40 236h-16q-20 -9 -20 -36z" />
    <glyph glyph-name="AE" unicode="&#xc6;" horiz-adv-x="1272" 
d="M428 719q0 -136 -52 -184v-16q30 -36 56 -36h8q64 22 64 36q-8 236 -40 236h-16q-20 -9 -20 -36zM480 249l-8 2q-17 0 -76 -52h-4q-7 0 -52 48q-28 0 -40 -60q-52 -136 -52 -184v-120q0 -96 -48 -96q-52 0 -52 240q-11 27 -32 40q-52 0 -52 -20q0 -9 -4 -16q4 -56 4 -96
v-36q16 -89 16 -128q0 -35 -20 -44h-12q-22 0 -28 20l4 36q0 21 -16 96q0 69 -4 152q4 28 4 44q-8 13 -8 24v20q24 127 24 152q-8 66 -8 104v12q32 200 48 340q10 4 96 168q13 0 40 148q128 243 128 264l64 36l556 39q44 12 64 12q104 0 104 -80q20 -21 20 -40v-64
q0 -33 -12 -116q0 -38 4 -124q-4 -209 -4 -332q0 -20 -20 -32h-20q-22 0 -28 132q4 196 4 260q-52 76 -88 76h-28q-89 -24 -116 -24h-48q-72 0 -72 -92v-8q0 -160 68 -160h12q99 24 104 24q100 -27 100 -96q-32 -59 -32 -140q0 -112 -44 -112q-24 9 -24 32q8 71 8 88v4
q-160 -16 -160 -48q-7 -58 -8 -101q25 -43 52 -115l124 20q29 0 76 -40h4q71 72 116 72q17 24 36 24q52 0 52 -220q8 -111 8 -136q0 -13 -4 -68q12 -118 12 -228q0 -24 -28 -24q-32 0 -32 72l-16 112q4 89 4 96q0 16 -88 28q-104 -12 -140 -12h-21q1 -10 1 -19
q-40 -168 -88 -168q-28 0 -44 124q-4 0 -12 16q-50 -40 -68 -40h-8q-23 0 -52 75h-76q-84 16 -84 112v16q0 42 24 111z" />
    <glyph glyph-name="Ccedilla" unicode="&#xc7;" horiz-adv-x="862" 
d="M401 105q-67 -11 -67 -25q-11 -13 -24 -180q-15 -20 -32 -20h-4q-30 0 -40 164q-33 27 -88 164q-120 118 -164 336q-12 21 -12 56v52q0 149 120 368q25 21 72 128q21 43 128 96q0 6 88 64q24 37 180 44h4q132 -15 132 -124q0 -504 -48 -504q0 -8 -20 -8q-28 10 -28 40
l28 284v4q-9 0 -60 20l-8 -4h-32q-100 -20 -100 -56q-64 -84 -64 -200q-11 -27 -24 -32q-10 0 -40 48h-8q-28 0 -28 -128v-64q0 -166 132 -224q14 -4 23 -6q7 26 22 84l8 83q8 84 60 79q162 -33 155 -97l-2 -60l-8 1q2 -4 3 -8q15 10 31 20l28 8h8q71 0 84 -120l4 -40
q-9 -141 -52 -164l-116 -56q-5 -4 -23 -7l-2 -19l-1 -16q-5 -45 -105 -42l-44 5q-65 20 -66 56z" />
    <glyph glyph-name="Egrave" unicode="&#xc8;" horiz-adv-x="844" 
d="M584 1395q104 0 104 -80q20 -21 20 -40v-64q0 -34 -12 -116q0 -38 4 -124q-4 -209 -4 -332q0 -21 -20 -32h-20q-22 0 -28 132q4 195 4 260q-52 76 -88 76h-28q-89 -24 -116 -24h-48q-72 0 -72 -92v-8q0 -160 68 -160h12q99 24 104 24q100 -28 100 -96q-32 -60 -32 -140
q0 -112 -44 -112q-24 8 -24 32q8 70 8 88v4q-160 -16 -160 -48q-8 -67 -8 -112q0 -104 44 -104h8l124 20q29 0 76 -40h4q71 72 116 72q17 24 36 24q52 0 52 -220q8 -112 8 -136q0 -14 -4 -68q12 -119 12 -228q0 -24 -28 -24q-32 0 -32 72l-16 112q4 88 4 96q0 15 -88 28
q-104 -12 -140 -12h-88q-80 0 -80 36h-4q-54 -48 -120 -48h-76q-84 15 -84 112v16q0 65 60 200q4 21 4 40v60q0 50 -24 212v188q0 186 -60 260q-8 27 -8 48v52q0 96 168 96q158 20 180 20h36q23 0 136 68q44 12 64 12z" />
    <glyph glyph-name="Eacute" unicode="&#xc9;" horiz-adv-x="844" 
d="M584 1395q104 0 104 -80q20 -21 20 -40v-64q0 -34 -12 -116q0 -38 4 -124q-4 -209 -4 -332q0 -21 -20 -32h-20q-22 0 -28 132q4 195 4 260q-52 76 -88 76h-28q-89 -24 -116 -24h-48q-72 0 -72 -92v-8q0 -160 68 -160h12q99 24 104 24q100 -28 100 -96q-32 -60 -32 -140
q0 -112 -44 -112q-24 8 -24 32q8 70 8 88v4q-160 -16 -160 -48q-8 -67 -8 -112q0 -104 44 -104h8l124 20q29 0 76 -40h4q71 72 116 72q17 24 36 24q52 0 52 -220q8 -112 8 -136q0 -14 -4 -68q12 -119 12 -228q0 -24 -28 -24q-32 0 -32 72l-16 112q4 88 4 96q0 15 -88 28
q-104 -12 -140 -12h-88q-80 0 -80 36h-4q-54 -48 -120 -48h-76q-84 15 -84 112v16q0 65 60 200q4 21 4 40v60q0 50 -24 212v188q0 186 -60 260q-8 27 -8 48v52q0 96 168 96q158 20 180 20h36q23 0 136 68q44 12 64 12z" />
    <glyph glyph-name="Ecircumflex" unicode="&#xca;" horiz-adv-x="844" 
d="M584 1395q104 0 104 -80q20 -21 20 -40v-64q0 -34 -12 -116q0 -38 4 -124q-4 -209 -4 -332q0 -21 -20 -32h-20q-22 0 -28 132q4 195 4 260q-52 76 -88 76h-28q-89 -24 -116 -24h-48q-72 0 -72 -92v-8q0 -160 68 -160h12q99 24 104 24q100 -28 100 -96q-32 -60 -32 -140
q0 -112 -44 -112q-24 8 -24 32q8 70 8 88v4q-160 -16 -160 -48q-8 -67 -8 -112q0 -104 44 -104h8l124 20q29 0 76 -40h4q71 72 116 72q17 24 36 24q52 0 52 -220q8 -112 8 -136q0 -14 -4 -68q12 -119 12 -228q0 -24 -28 -24q-32 0 -32 72l-16 112q4 88 4 96q0 15 -88 28
q-104 -12 -140 -12h-88q-80 0 -80 36h-4q-54 -48 -120 -48h-76q-84 15 -84 112v16q0 65 60 200q4 21 4 40v60q0 50 -24 212v188q0 186 -60 260q-8 27 -8 48v52q0 96 168 96q158 20 180 20h36q23 0 136 68q44 12 64 12z" />
    <glyph glyph-name="Edieresis" unicode="&#xcb;" horiz-adv-x="844" 
d="M584 1395q104 0 104 -80q20 -21 20 -40v-64q0 -34 -12 -116q0 -38 4 -124q-4 -209 -4 -332q0 -21 -20 -32h-20q-22 0 -28 132q4 195 4 260q-52 76 -88 76h-28q-89 -24 -116 -24h-48q-72 0 -72 -92v-8q0 -160 68 -160h12q99 24 104 24q100 -28 100 -96q-32 -60 -32 -140
q0 -112 -44 -112q-24 8 -24 32q8 70 8 88v4q-160 -16 -160 -48q-8 -67 -8 -112q0 -104 44 -104h8l124 20q29 0 76 -40h4q71 72 116 72q17 24 36 24q52 0 52 -220q8 -112 8 -136q0 -14 -4 -68q12 -119 12 -228q0 -24 -28 -24q-32 0 -32 72l-16 112q4 88 4 96q0 15 -88 28
q-104 -12 -140 -12h-88q-80 0 -80 36h-4q-54 -48 -120 -48h-76q-84 15 -84 112v16q0 65 60 200q4 21 4 40v60q0 50 -24 212v188q0 186 -60 260q-8 27 -8 48v52q0 96 168 96q158 20 180 20h36q23 0 136 68q44 12 64 12z" />
    <glyph glyph-name="Igrave" unicode="&#xcc;" horiz-adv-x="439" 
d="M224 1426h12q15 -13 36 -88q68 -41 68 -116l-36 -208q-8 -53 -8 -152v-28q0 -25 44 -92q32 -121 32 -384q16 -95 16 -132q0 -80 -60 -80q-15 0 -80 24h-8q-14 -2 -36 -84q-48 -46 -48 -144q-14 -52 -48 -52q-40 0 -40 240q-5 0 -12 80q12 283 12 348v12q0 38 -44 388
l-24 316q0 68 44 68q27 0 64 -8q75 0 96 60q0 22 20 32z" />
    <glyph glyph-name="Iacute" unicode="&#xcd;" horiz-adv-x="439" 
d="M224 1426h12q15 -13 36 -88q68 -41 68 -116l-36 -208q-8 -53 -8 -152v-28q0 -25 44 -92q32 -121 32 -384q16 -95 16 -132q0 -80 -60 -80q-15 0 -80 24h-8q-14 -2 -36 -84q-48 -46 -48 -144q-14 -52 -48 -52q-40 0 -40 240q-5 0 -12 80q12 283 12 348v12q0 38 -44 388
l-24 316q0 68 44 68q27 0 64 -8q75 0 96 60q0 22 20 32z" />
    <glyph glyph-name="Icircumflex" unicode="&#xce;" horiz-adv-x="439" 
d="M224 1426h12q15 -13 36 -88q68 -41 68 -116l-36 -208q-8 -53 -8 -152v-28q0 -25 44 -92q32 -121 32 -384q16 -95 16 -132q0 -80 -60 -80q-15 0 -80 24h-8q-14 -2 -36 -84q-48 -46 -48 -144q-14 -52 -48 -52q-40 0 -40 240q-5 0 -12 80q12 283 12 348v12q0 38 -44 388
l-24 316q0 68 44 68q27 0 64 -8q75 0 96 60q0 22 20 32z" />
    <glyph glyph-name="Idieresis" unicode="&#xcf;" horiz-adv-x="439" 
d="M224 1426h12q15 -13 36 -88q68 -41 68 -116l-36 -208q-8 -53 -8 -152v-28q0 -25 44 -92q32 -121 32 -384q16 -95 16 -132q0 -80 -60 -80q-15 0 -80 24h-8q-14 -2 -36 -84q-48 -46 -48 -144q-14 -52 -48 -52q-40 0 -40 240q-5 0 -12 80q12 283 12 348v12q0 38 -44 388
l-24 316q0 68 44 68q27 0 64 -8q75 0 96 60q0 22 20 32z" />
    <glyph glyph-name="Eth" unicode="&#xd0;" horiz-adv-x="1749" 
d="M95 1649h1572q5 -1 5 -5v-1993q0 -5 -5 -5h-1572q-5 0 -5 5v1993q1 5 5 5zM113 1618v-1942h1536v1942h-1536zM1122 1583h25q7 0 13 -26h3l12 3q20 -2 28 -10q0 10 18 10v-3l5 3l18 -3v8q0 18 23 18h22q7 0 13 -26l15 3q26 -3 26 -10v-64q0 -3 -13 -12h-31v-142
q0 -38 -5 -38q3 -3 5 -33q-3 -10 -7 -10h-5q-8 0 -8 43h-2q0 -15 -8 -15q-8 2 -8 15v17h-5v-38q0 -12 3 -38l-5 -2h-5q-5 0 -5 5v13q0 18 2 28l-5 98q3 19 3 46v51h-31q-1 0 -12 12q0 -3 -13 -12h-31v-66q0 -6 3 -10l-3 -5q3 -36 3 -61q0 -11 -5 -36q2 -26 2 -40l-7 -5h-3
q-10 0 -10 43h-2q0 -15 -5 -15q-8 0 -11 32h-2l-3 -15q3 -58 3 -61q-6 -5 -8 -5q-3 0 -7 11q0 16 2 32q-2 49 -2 87q0 11 -3 15q3 14 3 23v76h-28q-15 9 -15 23v45q0 18 22 18h3l18 -3q0 26 20 26zM1008 1578h35q11 -4 11 -18v-25q0 -22 2 -46l-2 -13q2 -21 2 -35
q0 -3 -2 -8l2 -15v-13q0 -14 -2 -17q2 -14 2 -23v-8q0 -51 -15 -51q-5 0 -18 -17h-10v-8q0 -8 -3 -8l3 -12v-20q0 -4 -8 -8h-2q-8 2 -8 15v20q0 28 -7 31q-9 -5 -16 -5q-6 0 -7 10h-3v-31q0 -3 -7 -7q-5 0 -5 5l2 25q-2 14 -2 26q-10 -13 -21 -13q-15 13 -15 51q3 61 3 96
v86q0 20 12 26h21q25 0 25 -31v-172q1 -5 5 -5h10q8 1 8 20v180q0 14 10 18zM219 1575h3q35 0 35 -23q11 -63 11 -73h2q7 86 28 86q2 0 15 -2q13 2 15 2q11 -4 11 -8q-33 -189 -38 -246l-6 -2h-2l-10 8q-6 -6 -10 -6v-27q0 -4 -8 -8q-7 0 -13 63q-12 0 -17 64h-3
q-5 -77 -15 -102q0 -7 -5 -7h-3q-5 0 -5 5v30q0 13 -5 31h-2q-11 -46 -18 -46h-3q-9 0 -15 74q-13 42 -30 177l7 5h36q12 0 25 -84h3q7 89 17 89zM678 1575q65 0 76 -43q3 -17 3 -28v-96q0 -37 -3 -114l-5 -3l-7 5l2 26v15q-8 0 -12 -18l2 -15v-13q0 -3 -8 -7h-2q-5 0 -5 5
v30q0 5 -5 5q0 -3 -8 -7h-5l-13 7l-5 -7v-26q0 -3 -7 -7h-3q-2 0 -7 10l2 12q-2 18 -2 21l-13 -3l-5 10q2 18 2 28v3q-5 -1 -5 -5v-16q0 -22 3 -50q-4 -23 -10 -23q-4 0 -8 8q-2 87 -2 111q0 9 2 23q-2 13 -2 15q2 72 2 124v3q0 20 38 20h10zM404 1573h16q28 0 50 -51
q0 -33 3 -81q0 -12 -3 -59q3 -45 3 -60q-3 -40 -3 -59l-5 -2q-7 0 -10 48q-13 10 -13 28h-2q0 -26 -10 -26l-5 3q-5 -3 -10 -3q-8 10 -8 16q-8 0 -8 -33l3 -10q-3 -13 -8 -13l-5 10l3 25q-2 21 -8 21q-7 -7 -12 -41l-6 -2q-5 0 -10 38q-6 0 -12 25v142q0 84 60 84zM541 1573
h21q29 0 50 -51q0 -23 3 -30q0 -3 -3 -3l3 -30v-168q0 -5 -3 -10q3 -4 3 -10q-4 -10 -8 -10q-7 0 -10 50q-10 4 -10 23h-3q0 -21 -12 -23l-5 3q-5 -3 -10 -3q-6 16 -11 16q-5 -22 -5 -26q3 -14 3 -20q-4 -10 -8 -10q-2 10 -5 10l3 18v7q0 19 -8 21q-7 -8 -13 -41h-5
q-4 0 -12 41q-10 11 -10 23v124q0 99 55 99zM853 1570q48 -19 48 -58v-61q-3 -10 -22 -10q-28 0 -28 7v31l-3 13h-15q-8 0 -8 -66v-61l3 -13h15q7 0 10 36l8 5h20q19 0 20 -8v-25q0 -5 -7 -23q2 -35 2 -46l-5 -2q-7 0 -10 22l-5 -2q-5 0 -5 5v30h-3q-7 -18 -10 -45h-2
q-7 0 -10 25l-13 3l-5 -8v-23q0 -4 -15 -12h-3l-7 5q2 25 2 38v7q-15 0 -15 16h-3l-2 -13v-38q0 -5 -5 -5t-5 5q0 27 -3 101q3 81 3 117q0 30 45 53h33zM1360 1570h112q4 0 10 -10v-53q0 -21 -20 -21h-54v-55h36q4 0 10 -10v-36q0 -18 -18 -18h-28v-20l6 3q42 -3 63 -3
q8 -9 8 -18v-25q0 -5 -6 -5h-2q-4 0 -8 7v13h-5l-10 -18h-2q-7 0 -8 10h-3q0 -20 -7 -20h-5q-7 0 -10 33h-3q-8 -43 -15 -43h-5q-12 14 -23 15q-3 10 -3 18h-2q0 -11 -10 -15q-2 0 -8 7q3 26 3 38v11q0 17 -3 20q3 17 3 28v147q0 19 7 20zM1507 1570h71q49 -11 49 -71v-84
q0 -19 -16 -53q21 -38 21 -45v-8l-8 -28q0 -2 3 -20q-2 0 -13 -10q-4 0 -8 7v36h-5l-2 -13q2 -31 2 -33q-4 -10 -7 -10t-11 10l3 18v5q0 26 -28 79h-8v-23q-5 -25 -5 -28l3 -23q-3 -13 -8 -13h-2q-6 0 -8 13q3 22 3 33l-5 2q0 -5 -5 -5h-3q-5 0 -5 11h-3q0 -15 -2 -18
q2 0 5 -41q-4 -10 -8 -10h-5q-5 0 -7 15q0 6 5 46q-2 15 -5 15q2 64 2 94v122q0 30 10 30zM394 1489v-119l3 -13h15q8 3 8 15v97q0 28 -13 28h-5q-4 0 -8 -8zM536 1481v-12q0 -29 3 -54q-3 -14 -3 -45q2 -13 8 -13h10q4 0 8 8v116q0 14 -8 16h-2q-16 0 -16 -16zM683 1497
q0 -3 -2 -8l2 -5l-2 -5q2 -5 2 -8l-2 -5q2 -4 2 -10l-2 -5q0 -3 2 -3l-2 -12v-79l2 -13q5 3 11 3v124l2 26h-13zM1550 1492v-82h3l13 3v73q0 6 -5 6h-11zM519 1268q72 0 106 -71q25 -34 25 -119q-2 -10 -2 -20q13 -2 13 -8v-10q-8 -22 -8 -35q3 0 20 -23v-8h-5v-12
q0 -12 8 -43q-5 -3 -8 -3q0 -1 10 -30l-5 -3h-2l-5 3q0 -12 -11 -56h-7q0 25 -8 25q-5 -23 -5 -33v-7h-7q0 7 -5 7h-3q0 -27 -18 -30q-2 -28 -10 -28l-10 7q-5 -35 -5 -45h-3q-12 7 -12 15q-4 -3 -13 -23h-5q0 20 -8 20q-7 -22 -12 -22q-8 8 -8 12h-3l-7 -15h-8q-2 18 -7 18
q-7 -16 -13 -18q-5 12 -10 13l-10 -8h-3q-4 0 -18 23q0 -8 -5 -8h-5q-10 39 -10 44l-10 -13q-7 0 -10 51h-3v-6h-7l-10 56l-13 -10q-5 0 -5 5q5 22 5 28q0 10 -5 38l-10 -5q0 3 -3 3q3 25 3 38v17q0 5 17 36v7q-7 24 -7 36q0 2 13 18v25q0 78 65 137q29 23 82 30zM384 1109
v-38q10 -12 10 -13q0 -15 -5 -74q5 0 5 -5v-17h8v-21h2q0 10 6 10q5 0 5 -5v-22q5 -7 5 -11h5q0 32 30 49q5 -1 5 -5q0 -3 -15 -23v-3q8 5 15 5h8l-3 13v15q0 4 8 8q5 -1 5 -5q-3 -5 -3 -8q6 -8 6 -13l5 3h5q11 -13 20 -13h2l16 13h2l13 -3l2 13v3h-2q-5 -3 -8 -3l-2 5
q5 3 7 3v2l-7 13l5 2q18 -10 18 -30v-5l-3 -5l10 -3v13q1 5 5 5q3 -14 36 -51h2v13q1 5 5 5l5 -2v7l-2 18q2 0 2 2l6 -2h5q0 33 5 46l-5 48q12 3 12 35q0 128 -73 170h-3q-6 -2 -20 -30q10 -2 10 -8v-2l-63 -89q-3 5 -3 7q25 60 25 66q-22 5 -22 13l22 51h-2q-54 0 -107 -71
q-20 -50 -20 -76zM316 1230l2 -5q-2 -77 -2 -114l-10 -7q-4 0 -18 78q-7 5 -8 5h-61l-2 -25v-152h56q12 0 20 58h5q4 0 8 -8v-60q0 -3 -3 -3l3 -5v-79q0 -4 -11 -10q-5 4 -15 59l-5 2q-46 3 -58 3v-112q0 -66 20 -66q14 0 18 -10v-15q0 -1 -5 -8l-26 3h-60l-18 -3
q-5 10 -5 21q0 4 28 20q5 13 5 53v281q0 64 -13 64q-20 3 -20 20v8l2 5q51 -3 76 -3h54q22 0 43 5zM1036 1215q25 0 263 -7l3 -6q0 -29 -3 -88q-2 0 -2 -3q-30 3 -43 3h-28q-10 -303 -10 -368q-3 -5 -3 -8q3 0 3 -2l-5 -3q-71 3 -117 3l-5 2l3 6q0 56 10 375h-69q-5 0 -5 7
l3 87zM1000 1197q13 0 16 -25q-3 -30 -3 -46h-3q6 -8 6 -15v-28q0 -20 -39 -28v-5h6q33 0 33 -17q2 -22 5 -94l-3 -26l5 -60q-2 -33 -7 -33h-21l-86 68q-24 28 -101 89l2 -26v-32q0 -3 -2 -3q5 -10 5 -28v-40q0 -15 -23 -33q-48 0 -48 7l-18 -2h-10q-8 0 -8 40v64
q0 14 -2 35l2 5q-2 14 -2 23v15q0 14 2 23q-2 14 -2 20q-3 114 -3 147l5 3h15q16 0 89 -71v-25l-7 -11q3 -2 12 -2q0 4 10 10h13q11 0 66 -48l5 -3v59q0 31 -3 78q0 15 74 15h20zM1408 1152q173 -16 173 -31q38 -24 38 -58v-5q0 -39 -13 -76q-94 15 -101 18q0 6 2 38
q0 9 -63 15q-17 0 -20 -48q0 -22 96 -26q74 -23 74 -76v-2q0 -17 -5 -38l25 -36v-2q-38 -24 -38 -41q-23 -58 -81 -58q-160 14 -160 33q-20 0 -33 61q5 34 5 66q5 2 8 2q79 -5 96 -10q-3 -27 -5 -33q0 -17 61 -20q18 0 18 55q0 9 -109 21q-59 27 -59 68v41l-30 33
q40 23 40 56q27 53 81 53zM415 1142h2v-3q0 -4 3 -30q-4 -10 -8 -10l-5 2l3 13v23q0 5 5 5zM623 1129l2 -5v-3q0 -9 -2 -22q2 -5 2 -8l-5 -3q-5 0 -5 5v3q0 33 8 33zM430 1104h15q8 -6 36 -13v-5q-18 0 -49 10q-7 0 -7 5zM584 1093q16 -2 16 -7q-10 0 -38 -13l-3 5
q14 14 25 15zM422 1086h3q8 0 50 -23v-8h-12v-2q8 0 15 -13v-2q0 -3 -3 -3l3 -5q-11 -15 -33 -15h-3q-32 3 -32 25q0 18 22 18v2h-7q-13 -7 -26 -7h-2v10q0 19 25 23zM501 1083q7 -9 7 -17v-3q0 -4 -7 -8l-3 5l3 6q-5 10 -5 15zM516 1083q5 -14 5 -33l-5 -2q-5 9 -5 20v10
q1 5 5 5zM612 1081l18 -21v-2q0 -5 -5 -5h-5q-5 0 -5 5q-4 0 -28 -5v-3q23 -6 23 -17q-9 -26 -33 -26q-10 4 -10 8l2 5q-28 4 -28 13v2q6 10 13 10l-5 8v2q0 13 63 26zM374 1063q1 -5 5 -5h3v5h-8zM478 1055q15 -5 15 -10q-3 -12 -7 -12q-5 0 -5 5l2 5q-6 5 -10 5v2q1 5 5 5
zM372 1048l5 -31h5l-3 13v20h-2zM422 1045q0 -4 10 -10h3l-3 5v5l3 5h-8q-5 0 -5 -5zM458 1048v-15q8 5 12 5q-1 5 -12 10zM643 1048v-5q5 2 7 2v3h-7zM584 1043q3 -5 3 -8q-3 -5 -3 -7q12 4 13 10q-8 5 -13 5zM552 1033l5 -3h5v10q-10 -4 -10 -7zM643 1035v-7h2v7h-2z
M524 1030q12 -3 22 -43q-2 0 -2 -3q-23 0 -23 21zM498 1028l3 -6v-15q0 -14 2 -35q-5 -15 -10 -15l-5 2q3 9 3 10l-3 26q4 33 10 33zM473 1022h5l5 -2q0 2 3 2l2 -5v-10q-9 -15 -13 -15q-2 5 -2 8q8 11 8 15v2h-3q0 -18 -33 -22h-10q-14 0 -25 17v3q0 5 5 5q8 -15 22 -15h13
q23 4 23 17zM544 1022q18 -20 38 -20q19 0 33 13l2 -5q0 -15 -35 -21q-28 0 -43 31zM521 886l-5 2q-17 -2 -28 -2h-7q-6 -1 -6 -6q24 -5 26 -5l45 13v3h-5q-7 0 -20 -5zM569 891q0 -15 -17 -36q4 -11 10 -13q8 0 17 33v8q0 4 -10 8zM445 868q0 -29 20 -38q7 0 10 20v3
q-12 0 -12 25v5q-13 0 -18 -15zM442 703q6 0 18 -96q28 44 38 48q50 -17 54 -23l-3 -36q0 -12 13 -65v-3q-11 -15 -61 -43q-81 9 -81 15l5 31q-18 129 -36 162l8 5h18q3 0 27 5zM1081 703h51q5 0 5 -8q-7 -22 -7 -30v-8h20q5 0 5 -5v-2q0 -21 -10 -21l-18 3q-2 -5 -2 -8
q-3 -34 -3 -73q20 -11 20 -15q-11 -23 -25 -33q-56 32 -56 38q15 28 15 96q-15 0 -15 8v5q2 15 8 15q5 -3 7 -3q3 5 3 8q-3 26 -3 30zM846 680h2q26 -29 26 -40q-17 -36 -23 -38h-3q-4 0 -15 27h-8q-5 -27 -7 -27q0 -44 15 -44q35 -4 35 -12q-15 -31 -22 -33h-3l-73 18
q-3 4 -3 7l8 28q0 71 -26 71q-2 0 -2 3q2 17 20 38q51 -15 51 -41h2q20 42 26 43zM957 678q43 -23 71 -28l3 -5q-10 -43 -10 -74q0 -13 20 -28v-2q-19 -31 -28 -31q-38 20 -38 38h-3q-40 -35 -43 -35q-40 20 -40 43q0 46 17 46q14 2 16 2v5l-21 23v3q43 43 56 43zM645 670h3
q38 -13 73 -20q0 -3 3 -3q-3 -17 -3 -28q0 -50 8 -81q-33 -15 -63 -38q-39 15 -71 20l-3 6q0 7 3 17q-3 43 -16 84v2q4 7 49 26q0 4 17 15zM1249 657q16 -13 68 -38v-5q-9 0 -20 -94q2 -4 2 -7l-73 -26q-37 26 -63 33v6q10 42 10 81q0 6 -3 20q0 12 48 18q22 12 31 12z
M176 645q5 -1 5 -5v-11q33 -159 46 -159q7 0 13 -10v-3q-2 -33 -10 -33h-6q-50 12 -50 15q0 38 -48 180q-3 0 -3 3v10q8 0 53 13zM922 642v-10q29 -41 53 -41q2 5 2 11v17q-26 23 -55 23zM633 635v-3q5 -84 15 -84q30 -7 33 -7l-3 17v26q0 48 -38 48q-2 0 -7 3zM1368 637
q38 -24 38 -41v-10h2q30 36 33 36h3q18 -26 18 -43v-3q-28 -33 -31 -33q-7 0 -12 33h-5q-10 0 -21 -58q0 -10 43 -25v-6q0 -3 -28 -27h-2q-4 0 -71 35q20 48 20 89q0 11 -20 18q0 12 33 35zM1223 624v-2q-5 -29 -5 -81q23 -15 33 -15q10 55 10 68v5q-10 15 -38 25zM463 586
q7 -55 12 -55q24 -5 38 -5q-13 83 -15 83l-15 3h-2q-6 0 -18 -26zM290 612q40 -10 61 -10l5 2q13 -3 13 -8v-17q4 -74 28 -74q7 0 7 -5q0 -13 -17 -35h-3q-45 9 -45 25h-3q-30 -46 -35 -46q-51 10 -51 51q-5 16 -5 20q19 16 28 16v2q0 2 -28 23q34 56 45 56zM1502 607
q15 0 43 -31v-5q-25 -63 -25 -89q15 -12 18 -12q22 0 35 73q5 0 5 18v18l3 5q56 -12 56 -20q-24 -42 -59 -180l-5 -3h-40q-5 0 -5 8q10 15 22 73h-2l-38 -28q-48 35 -48 41q15 20 28 86l-11 18v2q0 21 23 26zM937 594q-3 -4 -3 -10v-10q0 -20 13 -26h8q20 15 20 28
q-26 18 -38 18zM262 566q8 -21 61 -38h3l2 5q0 36 -33 36q-18 2 -20 2zM290 528v-10q0 -36 26 -36q17 21 17 33q-8 6 -43 13zM524 475q43 0 88 -59q4 0 8 -7q0 -16 -13 -33q-9 5 -20 5q36 -34 36 -53q0 -34 -46 -41h-15q-37 0 -61 36q-28 21 -28 35v23q0 5 8 5q7 -5 30 -10
v2q-38 34 -38 59q0 31 51 38zM835 472h36q17 0 68 -63l38 -119l-5 -3h-38q-21 23 -38 23q-6 -23 -10 -23h-40q-4 0 -56 56q39 129 45 129zM980 472l10 -2l18 2q7 0 61 -58v-43q0 -24 2 -58q-2 -9 -2 -26h-41q-53 47 -53 61v86l-3 31q4 0 8 7zM1094 472q9 0 23 -2q4 2 10 2
q8 0 43 -35v28q0 5 20 7v-2l6 2q2 0 2 -2l5 2q9 0 61 -61v-119q0 -5 -5 -5h-46l-35 33v-28q0 -5 -5 -5h-33q-56 52 -56 58v117q0 4 10 10zM481 432q0 -25 48 -43l2 -5v-8q-1 -8 -18 -8q-8 0 -32 8v-20q0 -6 35 -11q43 7 43 33v11q0 20 -38 33q-13 10 -13 12q4 10 8 10h10
q5 0 26 -5q5 7 5 21q-15 5 -33 7q-43 -4 -43 -35zM638 470h48q28 0 86 -69q13 -11 13 -30q0 -41 -56 -46v-33q0 -5 -5 -5h-30q-13 0 -44 38q-3 0 -17 18v122q0 5 5 5zM640 462l-2 -30v-79q1 -5 5 -5h25v33q0 4 36 10q17 13 17 28v10q0 33 -35 33h-46zM835 462l-35 -114h30
q5 23 11 23h33q7 0 10 -23h30v3q-35 106 -35 111h-44zM980 462v-114h28v114h-28zM1092 462v-114h25v48l-3 31l5 2q43 -80 46 -81h38v114h-25v-78h-3q-4 0 -43 78h-40zM858 444q5 -7 13 -48q0 -5 -5 -5h-18q-5 0 -5 5q9 48 15 48zM676 442q18 -4 18 -10v-5q0 -18 -18 -18h-3
q-5 0 -5 5v23q0 5 8 5zM171 269h1420q36 -3 36 -30v-162q0 -27 -36 -31h-1420q-35 4 -35 31v162q0 26 35 30zM199 211v-58l-8 -10l8 -10v-23q0 -4 31 -31h25l13 10h2l13 -10h25q4 0 31 31v23l7 10l-7 10v58h-31v-91q0 -5 -5 -5h-15q-5 0 -5 5v13l10 12q-4 0 -10 10v56h-28
v-56l-10 -12q4 0 10 -10v-13q0 -5 -5 -5h-15q-5 0 -5 5v91h-31zM366 188v-33q0 -1 -10 -12l10 -13v-36q8 -15 23 -15h36q25 0 25 38v16l8 10l-8 10v20q0 38 -30 38h-26q-28 0 -28 -23zM478 188v-33l-10 -12l10 -13v-28q3 -23 23 -23h35q26 0 26 38v16l7 10l-7 10v15
q0 43 -26 43h-30q-28 0 -28 -23zM592 211v-56l-8 -10l8 -10v-51q1 -5 5 -5h56q25 0 25 43v13l8 10l-8 10v16q0 40 -30 40h-56zM709 188v-25q0 -15 -10 -15v-3q10 -11 10 -12v-31q3 -23 23 -23h35q25 0 25 31v15h-30q0 -18 -8 -18h-10q-3 0 -7 8v18l10 12l-10 13v18q2 7 15 7
h2q8 0 8 -18h30v8q0 38 -30 38h-25q-28 0 -28 -23zM813 211v-56l-10 -12q3 0 10 -10v-26q0 -28 28 -28h33q22 4 22 23v31l10 12q-3 0 -10 10v56h-28v-96q0 -4 -7 -8h-13q-5 0 -5 5v99h-30zM917 211v-28h25q5 -1 5 -5v-23l-8 -10v-2l8 -10v-54h30v54l8 10l-8 10v25q1 5 6 5
h25v28h-91zM1016 211v-28h27q5 -1 5 -5v-23l-10 -12q10 -4 10 -18v-46h28v54l10 12q-3 0 -10 10v23q1 5 5 5h26v28h-91zM1127 211v-56l-10 -12q4 0 10 -10v-54h81v28h-48q-5 0 -5 5v13q1 5 5 5h33v30h-33q-5 0 -5 5v13q1 5 5 5h48v28h-81zM1231 211v-56l-10 -12q4 0 10 -10
v-54h28v38h5q18 -34 18 -38h33v3l-21 40q18 8 18 23v43q0 23 -28 23h-53zM1398 211v-56q0 -1 -10 -12q4 0 10 -10v-54h84v28h-51q-5 0 -5 5v13q1 5 5 5h33v30h-33q-5 0 -5 5v13q1 5 5 5h51v28h-84zM1492 176v-3q9 -9 15 -35q9 -8 31 -8h12q6 -1 6 -5v-13q0 -5 -6 -5h-12
q-8 0 -8 15h-28v-20q0 -23 28 -23h28q28 0 28 28q4 0 10 10q-9 0 -13 31q-9 12 -35 12h-10q-4 0 -8 8v5q0 4 10 10h8q6 0 10 -18l5 3h15l5 -3l3 6v15q0 25 -30 25h-26q-30 0 -30 -33q-5 -2 -8 -2zM410 183h2q4 0 8 -7v-61q0 -4 -8 -8h-10q-4 0 -8 8v61q3 7 16 7zM521 183h3
q3 0 7 -7v-61q0 -4 -7 -8h-11q-3 0 -7 8v61q2 7 15 7zM1264 183h13q3 0 7 -7v-21q0 -3 -7 -7h-13q-5 0 -5 5v25q1 5 5 5zM628 181h15q5 -1 5 -5v-61q0 -4 -8 -8h-12q-5 0 -5 5v64q0 5 5 5zM1338 92q1 -13 7 -13h15q5 0 5 5v16q0 3 -7 7h-5q-15 0 -15 -15zM306 3q20 -6 20 -7
q20 7 25 7q17 0 26 -15l-3 -15l41 -86q13 15 40 91q4 25 26 25q19 -5 22 -5q18 5 31 5q18 -5 18 -10v-13q-13 -13 -13 -22v-56q0 -15 28 -28l2 -13q0 -6 -25 -25q-5 -8 -5 -15v-41q10 -38 10 -40q0 -4 -10 -11h-15q-18 0 -18 5q-9 -5 -20 -5h-11q-13 0 -17 11v7q10 31 10 33
v53l-18 -33q0 -5 -13 -5q-10 0 -20 3q-10 -3 -20 -3h-3q-17 0 -28 36h-2v-53q0 -3 10 -31v-7q-3 -11 -20 -11q-12 0 -26 3q-13 -3 -30 -3q-15 0 -15 18q0 3 10 31v60q-19 6 -31 21q0 11 28 33v7q0 12 3 59q-13 28 -13 30q0 13 26 15zM620 3l20 -7q20 7 26 7q25 -4 25 -18
q-3 -13 -3 -15l41 -83q11 6 38 88l13 23q0 5 15 5q19 -5 23 -5q18 5 28 5q13 0 20 -12v-11l-13 -15v-63q0 -16 28 -28q0 -6 3 -10q0 -9 -26 -28q-5 -8 -5 -15v-46q10 -30 10 -33q-3 -13 -17 -13h-8q-18 0 -18 5q-9 -5 -20 -5h-10q-14 0 -18 11v5q0 6 8 30v56h-3
q-4 -36 -25 -36q-11 0 -20 3q-10 -3 -21 -3h-2q-21 0 -26 33l-5 3v-56q0 -9 10 -23v-12q-3 -11 -20 -11q-12 0 -25 3q-13 -3 -31 -3h-5q-4 0 -10 11v15q10 14 10 23q0 5 -2 10q2 17 2 28v22q-12 0 -30 21q0 12 28 33v22q0 15 2 41q-7 21 -12 28v8q6 12 25 12zM919 3
q19 -7 23 -7l18 7q16 0 28 -15l-3 -13q16 -40 20 -40q18 35 21 61l17 7q6 0 26 -7q20 7 25 7q20 -7 20 -12v-11q-55 -76 -55 -93q20 -15 20 -26q0 -7 -15 -20q23 -56 55 -91v-10q-7 -13 -22 -13l-23 2q-18 -2 -28 -2q-13 0 -20 13v2q0 6 2 10q-19 46 -25 46h-3q0 -6 -17 -33
l-3 -10l3 -15q-10 -9 -23 -13q-3 0 -26 2q-22 -2 -28 -2q-17 3 -17 10v10q56 78 56 96q-9 4 -16 21q12 20 23 20q-40 77 -61 99v5q5 15 28 15zM1150 3l28 -7q12 7 18 7q25 0 25 -25q0 -8 15 -41h3l20 36l-3 12v3q11 15 21 15q25 -4 25 -7q24 7 28 7q20 -4 20 -20
q-28 -35 -58 -96q22 -16 23 -21v-7q-18 -17 -18 -21q36 -65 58 -91v-7q0 -7 -23 -13q-6 0 -20 2q-21 -2 -35 -2q-16 0 -18 38q-18 33 -20 33h-3q-20 -35 -20 -41v-17q0 -8 -26 -13q-18 2 -20 2l-30 -2q-15 5 -15 10v5q0 5 38 63q17 32 17 38q-15 9 -15 23q10 16 20 16v2
q-28 64 -58 96v11q0 6 23 12zM1441 3q23 -3 23 -20q-10 -17 -10 -31v-32q0 -10 -2 -23q0 -5 27 -31v-2q0 -15 -22 -26l-5 -20q2 -21 2 -35v-11q10 -28 10 -32q-10 -11 -23 -11q-25 0 -25 5q-9 -5 -20 -5h-8q-18 0 -18 18q13 28 13 33v23q0 35 -25 61v2q23 21 23 33v56
q-11 28 -11 30v6q0 7 26 10q20 -1 20 -5z" />
    <glyph glyph-name="Ntilde" unicode="&#xd1;" horiz-adv-x="783" 
d="M179 1338h5q73 0 168 -332q24 -172 60 -172h12q17 0 40 184q-4 209 -4 296q7 64 44 64h12q49 -16 60 -16q12 0 48 64h16q21 -10 40 -64q9 -12 56 -36q12 -20 12 -44q-26 -300 -44 -300q-8 -28 -8 -48v-176q0 -55 -16 -340v-88q-10 -280 -36 -280l-16 -4q-17 5 -24 20v124
h-4q-40 -40 -68 -40q-56 0 -108 212q0 39 -68 92l-8 4q-16 -23 -16 -28q4 -138 4 -216v-8q0 -68 -56 -112q-24 -72 -40 -72h-16q-42 23 -104 124q-43 16 -48 16q-4 -86 -4 -120l4 -136q-17 -16 -32 -16q-18 6 -28 24v244q0 85 -12 168q4 284 12 348q-4 176 -4 316
q0 102 8 124q-8 16 -12 64q0 156 64 156q20 4 48 4h3q-4 13 -4 32l4 36q0 7 -4 48q-64 0 -80 164q0 52 84 52h84q100 16 108 16h24q38 -24 56 -24q45 8 64 8h120q41 0 56 -72v-44q-7 -100 -52 -100h-16q-77 0 -228 4v-76q-4 -44 -32 -44q-24 0 -28 32v88q-70 -4 -88 -4
q-4 0 -12 4v-8q0 -27 4 -48q-4 -22 -4 -36z" />
    <glyph glyph-name="Ograve" unicode="&#xd2;" 
d="M402 1364q143 0 288 -228q56 -100 56 -308q36 -118 36 -156q-44 -352 -44 -540v-100q0 -32 -32 -32q-22 0 -28 32q0 38 -4 252q-96 -108 -96 -156q0 -160 -48 -160q-20 0 -44 108q-14 20 -32 20q-99 0 -128 -96q-40 -63 -40 -72q-9 -88 -32 -88h-8q-40 0 -40 132
q0 138 -44 152q-130 141 -144 228q-28 74 -28 240v56q0 155 40 196q32 106 52 252q44 112 124 112q21 0 140 132q28 24 56 24zM330 692h-4q-13 9 -40 88q-7 4 -12 4q-28 0 -60 -132v-48q0 -174 76 -228q32 -40 68 -40h12q76 21 160 116q44 86 44 236q0 163 -52 216
q-21 92 -28 92v-76q0 -34 -8 -188q-2 0 -20 -16h-20q-5 0 -20 20v156q0 40 4 120q-68 -31 -68 -164q-9 -156 -32 -156z" />
    <glyph glyph-name="Oacute" unicode="&#xd3;" 
d="M402 1364q143 0 288 -228q56 -100 56 -308q36 -118 36 -156q-44 -352 -44 -540v-100q0 -32 -32 -32q-22 0 -28 32q0 38 -4 252q-96 -108 -96 -156q0 -160 -48 -160q-20 0 -44 108q-14 20 -32 20q-99 0 -128 -96q-40 -63 -40 -72q-9 -88 -32 -88h-8q-40 0 -40 132
q0 138 -44 152q-130 141 -144 228q-28 74 -28 240v56q0 155 40 196q32 106 52 252q44 112 124 112q21 0 140 132q28 24 56 24zM330 692h-4q-13 9 -40 88q-7 4 -12 4q-28 0 -60 -132v-48q0 -174 76 -228q32 -40 68 -40h12q76 21 160 116q44 86 44 236q0 163 -52 216
q-21 92 -28 92v-76q0 -34 -8 -188q-2 0 -20 -16h-20q-5 0 -20 20v156q0 40 4 120q-68 -31 -68 -164q-9 -156 -32 -156z" />
    <glyph glyph-name="Ocircumflex" unicode="&#xd4;" 
d="M402 1364q143 0 288 -228q56 -100 56 -308q36 -118 36 -156q-44 -352 -44 -540v-100q0 -32 -32 -32q-22 0 -28 32q0 38 -4 252q-96 -108 -96 -156q0 -160 -48 -160q-20 0 -44 108q-14 20 -32 20q-99 0 -128 -96q-40 -63 -40 -72q-9 -88 -32 -88h-8q-40 0 -40 132
q0 138 -44 152q-130 141 -144 228q-28 74 -28 240v56q0 155 40 196q32 106 52 252q44 112 124 112q21 0 140 132q28 24 56 24zM330 692h-4q-13 9 -40 88q-7 4 -12 4q-28 0 -60 -132v-48q0 -174 76 -228q32 -40 68 -40h12q76 21 160 116q44 86 44 236q0 163 -52 216
q-21 92 -28 92v-76q0 -34 -8 -188q-2 0 -20 -16h-20q-5 0 -20 20v156q0 40 4 120q-68 -31 -68 -164q-9 -156 -32 -156z" />
    <glyph glyph-name="Otilde" unicode="&#xd5;" 
d="M402 1364q143 0 288 -228q56 -100 56 -308q36 -118 36 -156q-44 -352 -44 -540v-100q0 -32 -32 -32q-22 0 -28 32q0 38 -4 252q-96 -108 -96 -156q0 -160 -48 -160q-20 0 -44 108q-14 20 -32 20q-99 0 -128 -96q-40 -63 -40 -72q-9 -88 -32 -88h-8q-40 0 -40 132
q0 138 -44 152q-130 141 -144 228q-28 74 -28 240v56q0 155 40 196q32 106 52 252q44 112 124 112q21 0 140 132q28 24 56 24zM330 692h-4q-13 9 -40 88q-7 4 -12 4q-28 0 -60 -132v-48q0 -174 76 -228q32 -40 68 -40h12q76 21 160 116q44 86 44 236q0 163 -52 216
q-21 92 -28 92v-76q0 -34 -8 -188q-2 0 -20 -16h-20q-5 0 -20 20v156q0 40 4 120q-68 -31 -68 -164q-9 -156 -32 -156z" />
    <glyph glyph-name="Odieresis" unicode="&#xd6;" 
d="M402 1364q143 0 288 -228q56 -100 56 -308q36 -118 36 -156q-44 -352 -44 -540v-100q0 -32 -32 -32q-22 0 -28 32q0 38 -4 252q-96 -108 -96 -156q0 -160 -48 -160q-20 0 -44 108q-14 20 -32 20q-99 0 -128 -96q-40 -63 -40 -72q-9 -88 -32 -88h-8q-40 0 -40 132
q0 138 -44 152q-130 141 -144 228q-28 74 -28 240v56q0 155 40 196q32 106 52 252q44 112 124 112q21 0 140 132q28 24 56 24zM330 692h-4q-13 9 -40 88q-7 4 -12 4q-28 0 -60 -132v-48q0 -174 76 -228q32 -40 68 -40h12q76 21 160 116q44 86 44 236q0 163 -52 216
q-21 92 -28 92v-76q0 -34 -8 -188q-2 0 -20 -16h-20q-5 0 -20 20v156q0 40 4 120q-68 -31 -68 -164q-9 -156 -32 -156z" />
    <glyph glyph-name="multiply" unicode="&#xd7;" horiz-adv-x="1382" 
d="M749 1468q259 -50 323 -97q8 -8 155 -86q43 -46 51 -97q-4 -156 -15 -184q15 -101 54 -216q4 -13 4 -32v-62l-18 -252q0 -86 -33 -86h-7q-21 11 -21 40v57h-4q-64 -86 -112 -101q-7 -61 -7 -100v-112q0 -36 4 -108q-16 -14 -18 -14h-7q-33 0 -33 90q-6 38 -11 86
q8 49 8 122q-4 0 -4 4q-25 -9 -65 -14l4 -8v-36q0 -25 -25 -25q-29 0 -29 58q-56 -9 -79 -33l-7 -10v-58q10 -80 10 -97v-36q0 -47 -32 -87q4 -77 4 -108q0 -43 -33 -43q-21 8 -21 29v76q0 26 -11 28h-40q-23 0 -54 -21q4 -20 4 -33l-18 -14h-7q-28 0 -36 47h-8
q-39 0 -39 -51l-18 -14h-11q-32 0 -32 50l-8 -3h-25q-21 0 -61 14q-4 0 -11 -3l-147 36q-36 30 -36 86q8 26 39 76q18 68 18 72q-3 30 -3 50v54q0 10 -18 32h-4v-64q-4 -44 -36 -44t-32 116v7q-4 0 -11 3l3 -25v-75q0 -22 -25 -29q-25 7 -25 21q0 41 -4 152q-8 7 -50 25
q14 -161 14 -223q-7 -17 -14 -18h-22q-19 0 -25 151q0 88 -14 144q0 87 11 209v3q-29 96 -29 141q0 157 183 503q19 13 188 65q140 51 180 51q18 0 36 -18zM475 1029q0 -8 -86 -108q0 -16 -40 -137q2 -36 11 -36q54 27 83 108q43 114 43 130v25l-4 18h-7zM946 1018v-3
q4 -123 4 -137q-4 -68 -22 -68h-17q-22 0 -22 97h-4q0 -72 -57 -177q-15 -14 -22 -14q21 -50 61 -50h15q31 0 39 32q83 111 83 169v18q0 88 -58 133zM551 547h3q90 0 90 18q36 57 36 72v14q-1 8 -18 15q-9 -22 -29 -22q-25 0 -25 25q-15 -24 -39 -47q-18 -38 -18 -75z
M360 165q0 -18 3 -126q-3 -20 -3 -29l18 -10h18q14 57 14 79q0 14 -7 65q14 75 14 93v4q-3 0 -10 3q-44 0 -44 -64q-3 0 -3 -15zM626 18h40q7 0 7 10q0 63 -4 206q-8 0 -14 3q-29 0 -29 -68v-151zM479 43q6 -16 25 -29h3q26 62 26 166v46h-18q-24 0 -33 -147q-3 -19 -3 -36z
M759 205v-33q0 -9 -10 -43v-61h3l11 7h7l25 -7v43q-4 101 -21 101h-7q-8 -1 -8 -7z" />
    <glyph glyph-name="Oslash" unicode="&#xd8;" 
d="M402 1364q143 0 288 -228q56 -100 56 -308q36 -118 36 -156q-44 -352 -44 -540v-100q0 -32 -32 -32q-22 0 -28 32q0 38 -4 252q-96 -108 -96 -156q0 -160 -48 -160q-20 0 -44 108q-14 20 -32 20q-99 0 -128 -96q-40 -63 -40 -72q-9 -88 -32 -88h-8q-40 0 -40 132
q0 138 -44 152q-130 141 -144 228q-28 74 -28 240v56q0 155 40 196q32 106 52 252q44 112 124 112q21 0 140 132q28 24 56 24zM428 966q1 21 2 46q-68 -31 -68 -164q-9 -156 -32 -156h-4q-13 9 -40 88q-7 4 -12 4q-28 0 -60 -132v-48q0 -134 45 -197q29 89 71 194
q24 83 54 236q27 76 44 129zM404 349q11 5 23 13q5 63 5 71v4h-3q-13 -48 -25 -88zM567 795q-7 43 -21 72q-18 -97 -67 -310l-11 -166q30 25 62 61q42 82 44 222q-3 4 -6 11q-1 61 -1 110z" />
    <glyph glyph-name="Ugrave" unicode="&#xd9;" horiz-adv-x="796" 
d="M192 1374h20q20 0 32 -92l16 -12l48 4q20 -21 20 -36v-80q0 -156 -60 -432v-80q0 -188 72 -188h8q124 0 124 164q4 22 4 80v36q-24 217 -24 280v132q0 89 44 124q31 5 72 88q20 12 32 12h12q48 0 64 -88q64 -41 64 -100q-44 -560 -52 -804q12 -174 12 -224v-84
q0 -24 -28 -32q-28 0 -32 44q0 90 -12 264q4 0 4 4h-8q-35 -85 -136 -160q-8 0 -92 -64q-28 -8 -48 -8h-48q-46 0 -80 -68q-27 -22 -48 -92l-16 -12h-12q-31 0 -36 212q-44 80 -80 352q-23 79 -28 116q24 95 24 124q-8 120 -8 164v132q27 312 76 312h12q7 0 44 -8
q14 0 44 20z" />
    <glyph glyph-name="Uacute" unicode="&#xda;" horiz-adv-x="796" 
d="M192 1374h20q20 0 32 -92l16 -12l48 4q20 -21 20 -36v-80q0 -156 -60 -432v-80q0 -188 72 -188h8q124 0 124 164q4 22 4 80v36q-24 217 -24 280v132q0 89 44 124q31 5 72 88q20 12 32 12h12q48 0 64 -88q64 -41 64 -100q-44 -560 -52 -804q12 -174 12 -224v-84
q0 -24 -28 -32q-28 0 -32 44q0 90 -12 264q4 0 4 4h-8q-35 -85 -136 -160q-8 0 -92 -64q-28 -8 -48 -8h-48q-46 0 -80 -68q-27 -22 -48 -92l-16 -12h-12q-31 0 -36 212q-44 80 -80 352q-23 79 -28 116q24 95 24 124q-8 120 -8 164v132q27 312 76 312h12q7 0 44 -8
q14 0 44 20z" />
    <glyph glyph-name="Ucircumflex" unicode="&#xdb;" horiz-adv-x="796" 
d="M192 1374h20q20 0 32 -92l16 -12l48 4q20 -21 20 -36v-80q0 -156 -60 -432v-80q0 -188 72 -188h8q124 0 124 164q4 22 4 80v36q-24 217 -24 280v132q0 89 44 124q31 5 72 88q20 12 32 12h12q48 0 64 -88q64 -41 64 -100q-44 -560 -52 -804q12 -174 12 -224v-84
q0 -24 -28 -32q-28 0 -32 44q0 90 -12 264q4 0 4 4h-8q-35 -85 -136 -160q-8 0 -92 -64q-28 -8 -48 -8h-48q-46 0 -80 -68q-27 -22 -48 -92l-16 -12h-12q-31 0 -36 212q-44 80 -80 352q-23 79 -28 116q24 95 24 124q-8 120 -8 164v132q27 312 76 312h12q7 0 44 -8
q14 0 44 20z" />
    <glyph glyph-name="Udieresis" unicode="&#xdc;" horiz-adv-x="796" 
d="M192 1374h20q20 0 32 -92l16 -12l48 4q20 -21 20 -36v-80q0 -156 -60 -432v-80q0 -188 72 -188h8q124 0 124 164q4 22 4 80v36q-24 217 -24 280v132q0 89 44 124q31 5 72 88q20 12 32 12h12q48 0 64 -88q64 -41 64 -100q-44 -560 -52 -804q12 -174 12 -224v-84
q0 -24 -28 -32q-28 0 -32 44q0 90 -12 264q4 0 4 4h-8q-35 -85 -136 -160q-8 0 -92 -64q-28 -8 -48 -8h-48q-46 0 -80 -68q-27 -22 -48 -92l-16 -12h-12q-31 0 -36 212q-44 80 -80 352q-23 79 -28 116q24 95 24 124q-8 120 -8 164v132q27 312 76 312h12q7 0 44 -8
q14 0 44 20z" />
    <glyph glyph-name="Yacute" unicode="&#xdd;" horiz-adv-x="765" 
d="M124 1382h12q33 0 76 -88q39 -25 72 -144q0 -31 20 -52q20 0 76 100q108 151 152 152h4q19 0 64 -52q132 -13 132 -84v-16q0 -26 -32 -232q-8 -42 -8 -264q0 -58 -28 -156v-36q0 -36 -32 -36q-24 0 -32 40q8 44 16 224q-4 21 -4 40v52q1 85 12 112q-8 59 -8 72
q-160 -162 -160 -204q-4 -35 -4 -60v-88q-16 -106 -16 -128v-20q0 -71 44 -164q8 -21 8 -44q0 -100 -52 -188q-9 -188 -44 -188h-16q-46 0 -60 136q-34 116 -56 116q-4 0 -52 -16h-16q-22 8 -24 76v132q0 55 -12 260q8 83 8 128q0 126 -68 236q8 -38 8 -92q0 -30 -20 -256
q8 -117 8 -128q-4 -160 -4 -240q0 -10 4 -60q-6 -20 -28 -20h-12q-24 13 -24 52q0 60 4 292q-28 257 -28 316v244q0 28 -24 152v4q0 56 80 68q36 52 64 52z" />
    <glyph glyph-name="Thorn" unicode="&#xde;" horiz-adv-x="1382" 
d="M749 1468q259 -50 323 -97q8 -8 155 -86q43 -46 51 -97q-4 -156 -15 -184q15 -101 54 -216q4 -13 4 -32v-62l-18 -252q0 -86 -33 -86h-7q-21 11 -21 40v57h-4q-64 -86 -112 -101q-7 -61 -7 -100v-112q0 -36 4 -108q-16 -14 -18 -14h-7q-33 0 -33 90q-6 38 -11 86
q8 49 8 122q-4 0 -4 4q-25 -9 -65 -14l4 -8v-36q0 -25 -25 -25q-29 0 -29 58q-56 -9 -79 -33l-7 -10v-58q10 -80 10 -97v-36q0 -47 -32 -87q4 -77 4 -108q0 -43 -33 -43q-21 8 -21 29v76q0 26 -11 28h-40q-23 0 -54 -21q4 -20 4 -33l-18 -14h-7q-28 0 -36 47h-8
q-39 0 -39 -51l-18 -14h-11q-32 0 -32 50l-8 -3h-25q-21 0 -61 14q-4 0 -11 -3l-147 36q-36 30 -36 86q8 26 39 76q18 68 18 72q-3 30 -3 50v54q0 10 -18 32h-4v-64q-4 -44 -36 -44t-32 116v7q-4 0 -11 3l3 -25v-75q0 -22 -25 -29q-25 7 -25 21q0 41 -4 152q-8 7 -50 25
q14 -161 14 -223q-7 -17 -14 -18h-22q-19 0 -25 151q0 88 -14 144q0 87 11 209v3q-29 96 -29 141q0 157 183 503q19 13 188 65q140 51 180 51q18 0 36 -18zM475 1029q0 -8 -86 -108q0 -16 -40 -137q2 -36 11 -36q54 27 83 108q43 114 43 130v25l-4 18h-7zM946 1018v-3
q4 -123 4 -137q-4 -68 -22 -68h-17q-22 0 -22 97h-4q0 -72 -57 -177q-15 -14 -22 -14q21 -50 61 -50h15q31 0 39 32q83 111 83 169v18q0 88 -58 133zM551 547h3q90 0 90 18q36 57 36 72v14q-1 8 -18 15q-9 -22 -29 -22q-25 0 -25 25q-15 -24 -39 -47q-18 -38 -18 -75z
M360 165q0 -18 3 -126q-3 -20 -3 -29l18 -10h18q14 57 14 79q0 14 -7 65q14 75 14 93v4q-3 0 -10 3q-44 0 -44 -64q-3 0 -3 -15zM626 18h40q7 0 7 10q0 63 -4 206q-8 0 -14 3q-29 0 -29 -68v-151zM479 43q6 -16 25 -29h3q26 62 26 166v46h-18q-24 0 -33 -147q-3 -19 -3 -36z
M759 205v-33q0 -9 -10 -43v-61h3l11 7h7l25 -7v43q-4 101 -21 101h-7q-8 -1 -8 -7z" />
    <glyph glyph-name="germandbls" unicode="&#xdf;" horiz-adv-x="1251" 
 />
    <glyph glyph-name="agrave" unicode="&#xe0;" 
d="M420 1343q20 -11 20 -24h24q31 0 112 -320q69 -208 92 -348q27 -196 56 -196q48 -76 104 -260q60 -118 60 -192q-40 -168 -88 -168q-28 0 -44 124q-4 0 -12 16q-50 -40 -68 -40h-8q-26 0 -60 96q-27 176 -44 176q0 24 -92 44q-17 0 -76 -52h-4q-7 0 -52 48q-28 0 -40 -60
q-52 -136 -52 -184v-120q0 -96 -48 -96q-52 0 -52 240q-11 27 -32 40q-52 0 -52 -20q0 -9 -4 -16q4 -56 4 -96v-36q16 -89 16 -128q0 -35 -20 -44h-12q-22 0 -28 20l4 36q0 21 -16 96q0 69 -4 152q4 28 4 44q-8 13 -8 24v20q24 127 24 152q-8 66 -8 104v12q32 200 48 340
q10 4 96 168q13 0 40 148q128 243 128 264l64 36h28zM428 719q0 -136 -52 -184v-16q30 -36 56 -36h8q64 22 64 36q-8 236 -40 236h-16q-20 -9 -20 -36z" />
    <glyph glyph-name="aacute" unicode="&#xe1;" 
d="M420 1343q20 -11 20 -24h24q31 0 112 -320q69 -208 92 -348q27 -196 56 -196q48 -76 104 -260q60 -118 60 -192q-40 -168 -88 -168q-28 0 -44 124q-4 0 -12 16q-50 -40 -68 -40h-8q-26 0 -60 96q-27 176 -44 176q0 24 -92 44q-17 0 -76 -52h-4q-7 0 -52 48q-28 0 -40 -60
q-52 -136 -52 -184v-120q0 -96 -48 -96q-52 0 -52 240q-11 27 -32 40q-52 0 -52 -20q0 -9 -4 -16q4 -56 4 -96v-36q16 -89 16 -128q0 -35 -20 -44h-12q-22 0 -28 20l4 36q0 21 -16 96q0 69 -4 152q4 28 4 44q-8 13 -8 24v20q24 127 24 152q-8 66 -8 104v12q32 200 48 340
q10 4 96 168q13 0 40 148q128 243 128 264l64 36h28zM428 719q0 -136 -52 -184v-16q30 -36 56 -36h8q64 22 64 36q-8 236 -40 236h-16q-20 -9 -20 -36z" />
    <glyph glyph-name="acircumflex" unicode="&#xe2;" 
d="M420 1343q20 -11 20 -24h24q31 0 112 -320q69 -208 92 -348q27 -196 56 -196q48 -76 104 -260q60 -118 60 -192q-40 -168 -88 -168q-28 0 -44 124q-4 0 -12 16q-50 -40 -68 -40h-8q-26 0 -60 96q-27 176 -44 176q0 24 -92 44q-17 0 -76 -52h-4q-7 0 -52 48q-28 0 -40 -60
q-52 -136 -52 -184v-120q0 -96 -48 -96q-52 0 -52 240q-11 27 -32 40q-52 0 -52 -20q0 -9 -4 -16q4 -56 4 -96v-36q16 -89 16 -128q0 -35 -20 -44h-12q-22 0 -28 20l4 36q0 21 -16 96q0 69 -4 152q4 28 4 44q-8 13 -8 24v20q24 127 24 152q-8 66 -8 104v12q32 200 48 340
q10 4 96 168q13 0 40 148q128 243 128 264l64 36h28zM428 719q0 -136 -52 -184v-16q30 -36 56 -36h8q64 22 64 36q-8 236 -40 236h-16q-20 -9 -20 -36z" />
    <glyph glyph-name="atilde" unicode="&#xe3;" 
d="M420 1343q20 -11 20 -24h24q31 0 112 -320q69 -208 92 -348q27 -196 56 -196q48 -76 104 -260q60 -118 60 -192q-40 -168 -88 -168q-28 0 -44 124q-4 0 -12 16q-50 -40 -68 -40h-8q-26 0 -60 96q-27 176 -44 176q0 24 -92 44q-17 0 -76 -52h-4q-7 0 -52 48q-28 0 -40 -60
q-52 -136 -52 -184v-120q0 -96 -48 -96q-52 0 -52 240q-11 27 -32 40q-52 0 -52 -20q0 -9 -4 -16q4 -56 4 -96v-36q16 -89 16 -128q0 -35 -20 -44h-12q-22 0 -28 20l4 36q0 21 -16 96q0 69 -4 152q4 28 4 44q-8 13 -8 24v20q24 127 24 152q-8 66 -8 104v12q32 200 48 340
q10 4 96 168q13 0 40 148q128 243 128 264l64 36h28zM428 719q0 -136 -52 -184v-16q30 -36 56 -36h8q64 22 64 36q-8 236 -40 236h-16q-20 -9 -20 -36z" />
    <glyph glyph-name="adieresis" unicode="&#xe4;" 
d="M420 1343q20 -11 20 -24h24q31 0 112 -320q69 -208 92 -348q27 -196 56 -196q48 -76 104 -260q60 -118 60 -192q-40 -168 -88 -168q-28 0 -44 124q-4 0 -12 16q-50 -40 -68 -40h-8q-26 0 -60 96q-27 176 -44 176q0 24 -92 44q-17 0 -76 -52h-4q-7 0 -52 48q-28 0 -40 -60
q-52 -136 -52 -184v-120q0 -96 -48 -96q-52 0 -52 240q-11 27 -32 40q-52 0 -52 -20q0 -9 -4 -16q4 -56 4 -96v-36q16 -89 16 -128q0 -35 -20 -44h-12q-22 0 -28 20l4 36q0 21 -16 96q0 69 -4 152q4 28 4 44q-8 13 -8 24v20q24 127 24 152q-8 66 -8 104v12q32 200 48 340
q10 4 96 168q13 0 40 148q128 243 128 264l64 36h28zM428 719q0 -136 -52 -184v-16q30 -36 56 -36h8q64 22 64 36q-8 236 -40 236h-16q-20 -9 -20 -36z" />
    <glyph glyph-name="aring" unicode="&#xe5;" 
d="M420 1343q20 -11 20 -24h24q31 0 112 -320q69 -208 92 -348q27 -196 56 -196q48 -76 104 -260q60 -118 60 -192q-40 -168 -88 -168q-28 0 -44 124q-4 0 -12 16q-50 -40 -68 -40h-8q-26 0 -60 96q-27 176 -44 176q0 24 -92 44q-17 0 -76 -52h-4q-7 0 -52 48q-28 0 -40 -60
q-52 -136 -52 -184v-120q0 -96 -48 -96q-52 0 -52 240q-11 27 -32 40q-52 0 -52 -20q0 -9 -4 -16q4 -56 4 -96v-36q16 -89 16 -128q0 -35 -20 -44h-12q-22 0 -28 20l4 36q0 21 -16 96q0 69 -4 152q4 28 4 44q-8 13 -8 24v20q24 127 24 152q-8 66 -8 104v12q32 200 48 340
q10 4 96 168q13 0 40 148q128 243 128 264l64 36h28zM428 719q0 -136 -52 -184v-16q30 -36 56 -36h8q64 22 64 36q-8 236 -40 236h-16q-20 -9 -20 -36z" />
    <glyph glyph-name="ae" unicode="&#xe6;" horiz-adv-x="1272" 
d="M428 719q0 -136 -52 -184v-16q30 -36 56 -36h8q64 22 64 36q-8 236 -40 236h-16q-20 -9 -20 -36zM480 249l-8 2q-17 0 -76 -52h-4q-7 0 -52 48q-28 0 -40 -60q-52 -136 -52 -184v-120q0 -96 -48 -96q-52 0 -52 240q-11 27 -32 40q-52 0 -52 -20q0 -9 -4 -16q4 -56 4 -96
v-36q16 -89 16 -128q0 -35 -20 -44h-12q-22 0 -28 20l4 36q0 21 -16 96q0 69 -4 152q4 28 4 44q-8 13 -8 24v20q24 127 24 152q-8 66 -8 104v12q32 200 48 340q10 4 96 168q13 0 40 148q128 243 128 264l64 36l556 39q44 12 64 12q104 0 104 -80q20 -21 20 -40v-64
q0 -33 -12 -116q0 -38 4 -124q-4 -209 -4 -332q0 -20 -20 -32h-20q-22 0 -28 132q4 196 4 260q-52 76 -88 76h-28q-89 -24 -116 -24h-48q-72 0 -72 -92v-8q0 -160 68 -160h12q99 24 104 24q100 -27 100 -96q-32 -59 -32 -140q0 -112 -44 -112q-24 9 -24 32q8 71 8 88v4
q-160 -16 -160 -48q-7 -58 -8 -101q25 -43 52 -115l124 20q29 0 76 -40h4q71 72 116 72q17 24 36 24q52 0 52 -220q8 -111 8 -136q0 -13 -4 -68q12 -118 12 -228q0 -24 -28 -24q-32 0 -32 72l-16 112q4 89 4 96q0 16 -88 28q-104 -12 -140 -12h-21q1 -10 1 -19
q-40 -168 -88 -168q-28 0 -44 124q-4 0 -12 16q-50 -40 -68 -40h-8q-23 0 -52 75h-76q-84 16 -84 112v16q0 42 24 111z" />
    <glyph glyph-name="ccedilla" unicode="&#xe7;" horiz-adv-x="862" 
d="M401 105q-67 -11 -67 -25q-11 -13 -24 -180q-15 -20 -32 -20h-4q-30 0 -40 164q-33 27 -88 164q-120 118 -164 336q-12 21 -12 56v52q0 149 120 368q25 21 72 128q21 43 128 96q0 6 88 64q24 37 180 44h4q132 -15 132 -124q0 -504 -48 -504q0 -8 -20 -8q-28 10 -28 40
l28 284v4q-9 0 -60 20l-8 -4h-32q-100 -20 -100 -56q-64 -84 -64 -200q-11 -27 -24 -32q-10 0 -40 48h-8q-28 0 -28 -128v-64q0 -166 132 -224q14 -4 23 -6q7 26 22 84l8 83q8 84 60 79q162 -33 155 -97l-2 -60l-8 1q2 -4 3 -8q15 10 31 20l28 8h8q71 0 84 -120l4 -40
q-9 -141 -52 -164l-116 -56q-5 -4 -23 -7l-2 -19l-1 -16q-5 -45 -105 -42l-44 5q-65 20 -66 56z" />
    <glyph glyph-name="egrave" unicode="&#xe8;" horiz-adv-x="844" 
d="M584 1395q104 0 104 -80q20 -21 20 -40v-64q0 -34 -12 -116q0 -38 4 -124q-4 -209 -4 -332q0 -21 -20 -32h-20q-22 0 -28 132q4 195 4 260q-52 76 -88 76h-28q-89 -24 -116 -24h-48q-72 0 -72 -92v-8q0 -160 68 -160h12q99 24 104 24q100 -28 100 -96q-32 -60 -32 -140
q0 -112 -44 -112q-24 8 -24 32q8 70 8 88v4q-160 -16 -160 -48q-8 -67 -8 -112q0 -104 44 -104h8l124 20q29 0 76 -40h4q71 72 116 72q17 24 36 24q52 0 52 -220q8 -112 8 -136q0 -14 -4 -68q12 -119 12 -228q0 -24 -28 -24q-32 0 -32 72l-16 112q4 88 4 96q0 15 -88 28
q-104 -12 -140 -12h-88q-80 0 -80 36h-4q-54 -48 -120 -48h-76q-84 15 -84 112v16q0 65 60 200q4 21 4 40v60q0 50 -24 212v188q0 186 -60 260q-8 27 -8 48v52q0 96 168 96q158 20 180 20h36q23 0 136 68q44 12 64 12z" />
    <glyph glyph-name="eacute" unicode="&#xe9;" horiz-adv-x="844" 
d="M584 1395q104 0 104 -80q20 -21 20 -40v-64q0 -34 -12 -116q0 -38 4 -124q-4 -209 -4 -332q0 -21 -20 -32h-20q-22 0 -28 132q4 195 4 260q-52 76 -88 76h-28q-89 -24 -116 -24h-48q-72 0 -72 -92v-8q0 -160 68 -160h12q99 24 104 24q100 -28 100 -96q-32 -60 -32 -140
q0 -112 -44 -112q-24 8 -24 32q8 70 8 88v4q-160 -16 -160 -48q-8 -67 -8 -112q0 -104 44 -104h8l124 20q29 0 76 -40h4q71 72 116 72q17 24 36 24q52 0 52 -220q8 -112 8 -136q0 -14 -4 -68q12 -119 12 -228q0 -24 -28 -24q-32 0 -32 72l-16 112q4 88 4 96q0 15 -88 28
q-104 -12 -140 -12h-88q-80 0 -80 36h-4q-54 -48 -120 -48h-76q-84 15 -84 112v16q0 65 60 200q4 21 4 40v60q0 50 -24 212v188q0 186 -60 260q-8 27 -8 48v52q0 96 168 96q158 20 180 20h36q23 0 136 68q44 12 64 12z" />
    <glyph glyph-name="ecircumflex" unicode="&#xea;" horiz-adv-x="844" 
d="M584 1395q104 0 104 -80q20 -21 20 -40v-64q0 -34 -12 -116q0 -38 4 -124q-4 -209 -4 -332q0 -21 -20 -32h-20q-22 0 -28 132q4 195 4 260q-52 76 -88 76h-28q-89 -24 -116 -24h-48q-72 0 -72 -92v-8q0 -160 68 -160h12q99 24 104 24q100 -28 100 -96q-32 -60 -32 -140
q0 -112 -44 -112q-24 8 -24 32q8 70 8 88v4q-160 -16 -160 -48q-8 -67 -8 -112q0 -104 44 -104h8l124 20q29 0 76 -40h4q71 72 116 72q17 24 36 24q52 0 52 -220q8 -112 8 -136q0 -14 -4 -68q12 -119 12 -228q0 -24 -28 -24q-32 0 -32 72l-16 112q4 88 4 96q0 15 -88 28
q-104 -12 -140 -12h-88q-80 0 -80 36h-4q-54 -48 -120 -48h-76q-84 15 -84 112v16q0 65 60 200q4 21 4 40v60q0 50 -24 212v188q0 186 -60 260q-8 27 -8 48v52q0 96 168 96q158 20 180 20h36q23 0 136 68q44 12 64 12z" />
    <glyph glyph-name="edieresis" unicode="&#xeb;" horiz-adv-x="844" 
d="M584 1395q104 0 104 -80q20 -21 20 -40v-64q0 -34 -12 -116q0 -38 4 -124q-4 -209 -4 -332q0 -21 -20 -32h-20q-22 0 -28 132q4 195 4 260q-52 76 -88 76h-28q-89 -24 -116 -24h-48q-72 0 -72 -92v-8q0 -160 68 -160h12q99 24 104 24q100 -28 100 -96q-32 -60 -32 -140
q0 -112 -44 -112q-24 8 -24 32q8 70 8 88v4q-160 -16 -160 -48q-8 -67 -8 -112q0 -104 44 -104h8l124 20q29 0 76 -40h4q71 72 116 72q17 24 36 24q52 0 52 -220q8 -112 8 -136q0 -14 -4 -68q12 -119 12 -228q0 -24 -28 -24q-32 0 -32 72l-16 112q4 88 4 96q0 15 -88 28
q-104 -12 -140 -12h-88q-80 0 -80 36h-4q-54 -48 -120 -48h-76q-84 15 -84 112v16q0 65 60 200q4 21 4 40v60q0 50 -24 212v188q0 186 -60 260q-8 27 -8 48v52q0 96 168 96q158 20 180 20h36q23 0 136 68q44 12 64 12z" />
    <glyph glyph-name="igrave" unicode="&#xec;" horiz-adv-x="439" 
d="M224 1426h12q15 -13 36 -88q68 -41 68 -116l-36 -208q-8 -53 -8 -152v-28q0 -25 44 -92q32 -121 32 -384q16 -95 16 -132q0 -80 -60 -80q-15 0 -80 24h-8q-14 -2 -36 -84q-48 -46 -48 -144q-14 -52 -48 -52q-40 0 -40 240q-5 0 -12 80q12 283 12 348v12q0 38 -44 388
l-24 316q0 68 44 68q27 0 64 -8q75 0 96 60q0 22 20 32z" />
    <glyph glyph-name="iacute" unicode="&#xed;" horiz-adv-x="439" 
d="M224 1426h12q15 -13 36 -88q68 -41 68 -116l-36 -208q-8 -53 -8 -152v-28q0 -25 44 -92q32 -121 32 -384q16 -95 16 -132q0 -80 -60 -80q-15 0 -80 24h-8q-14 -2 -36 -84q-48 -46 -48 -144q-14 -52 -48 -52q-40 0 -40 240q-5 0 -12 80q12 283 12 348v12q0 38 -44 388
l-24 316q0 68 44 68q27 0 64 -8q75 0 96 60q0 22 20 32z" />
    <glyph glyph-name="icircumflex" unicode="&#xee;" horiz-adv-x="439" 
d="M224 1426h12q15 -13 36 -88q68 -41 68 -116l-36 -208q-8 -53 -8 -152v-28q0 -25 44 -92q32 -121 32 -384q16 -95 16 -132q0 -80 -60 -80q-15 0 -80 24h-8q-14 -2 -36 -84q-48 -46 -48 -144q-14 -52 -48 -52q-40 0 -40 240q-5 0 -12 80q12 283 12 348v12q0 38 -44 388
l-24 316q0 68 44 68q27 0 64 -8q75 0 96 60q0 22 20 32z" />
    <glyph glyph-name="idieresis" unicode="&#xef;" horiz-adv-x="439" 
d="M224 1426h12q15 -13 36 -88q68 -41 68 -116l-36 -208q-8 -53 -8 -152v-28q0 -25 44 -92q32 -121 32 -384q16 -95 16 -132q0 -80 -60 -80q-15 0 -80 24h-8q-14 -2 -36 -84q-48 -46 -48 -144q-14 -52 -48 -52q-40 0 -40 240q-5 0 -12 80q12 283 12 348v12q0 38 -44 388
l-24 316q0 68 44 68q27 0 64 -8q75 0 96 60q0 22 20 32z" />
    <glyph glyph-name="eth" unicode="&#xf0;" horiz-adv-x="1749" 
d="M95 1649h1572q5 -1 5 -5v-1993q0 -5 -5 -5h-1572q-5 0 -5 5v1993q1 5 5 5zM113 1618v-1942h1536v1942h-1536zM1122 1583h25q7 0 13 -26h3l12 3q20 -2 28 -10q0 10 18 10v-3l5 3l18 -3v8q0 18 23 18h22q7 0 13 -26l15 3q26 -3 26 -10v-64q0 -3 -13 -12h-31v-142
q0 -38 -5 -38q3 -3 5 -33q-3 -10 -7 -10h-5q-8 0 -8 43h-2q0 -15 -8 -15q-8 2 -8 15v17h-5v-38q0 -12 3 -38l-5 -2h-5q-5 0 -5 5v13q0 18 2 28l-5 98q3 19 3 46v51h-31q-1 0 -12 12q0 -3 -13 -12h-31v-66q0 -6 3 -10l-3 -5q3 -36 3 -61q0 -11 -5 -36q2 -26 2 -40l-7 -5h-3
q-10 0 -10 43h-2q0 -15 -5 -15q-8 0 -11 32h-2l-3 -15q3 -58 3 -61q-6 -5 -8 -5q-3 0 -7 11q0 16 2 32q-2 49 -2 87q0 11 -3 15q3 14 3 23v76h-28q-15 9 -15 23v45q0 18 22 18h3l18 -3q0 26 20 26zM1008 1578h35q11 -4 11 -18v-25q0 -22 2 -46l-2 -13q2 -21 2 -35
q0 -3 -2 -8l2 -15v-13q0 -14 -2 -17q2 -14 2 -23v-8q0 -51 -15 -51q-5 0 -18 -17h-10v-8q0 -8 -3 -8l3 -12v-20q0 -4 -8 -8h-2q-8 2 -8 15v20q0 28 -7 31q-9 -5 -16 -5q-6 0 -7 10h-3v-31q0 -3 -7 -7q-5 0 -5 5l2 25q-2 14 -2 26q-10 -13 -21 -13q-15 13 -15 51q3 61 3 96
v86q0 20 12 26h21q25 0 25 -31v-172q1 -5 5 -5h10q8 1 8 20v180q0 14 10 18zM219 1575h3q35 0 35 -23q11 -63 11 -73h2q7 86 28 86q2 0 15 -2q13 2 15 2q11 -4 11 -8q-33 -189 -38 -246l-6 -2h-2l-10 8q-6 -6 -10 -6v-27q0 -4 -8 -8q-7 0 -13 63q-12 0 -17 64h-3
q-5 -77 -15 -102q0 -7 -5 -7h-3q-5 0 -5 5v30q0 13 -5 31h-2q-11 -46 -18 -46h-3q-9 0 -15 74q-13 42 -30 177l7 5h36q12 0 25 -84h3q7 89 17 89zM678 1575q65 0 76 -43q3 -17 3 -28v-96q0 -37 -3 -114l-5 -3l-7 5l2 26v15q-8 0 -12 -18l2 -15v-13q0 -3 -8 -7h-2q-5 0 -5 5
v30q0 5 -5 5q0 -3 -8 -7h-5l-13 7l-5 -7v-26q0 -3 -7 -7h-3q-2 0 -7 10l2 12q-2 18 -2 21l-13 -3l-5 10q2 18 2 28v3q-5 -1 -5 -5v-16q0 -22 3 -50q-4 -23 -10 -23q-4 0 -8 8q-2 87 -2 111q0 9 2 23q-2 13 -2 15q2 72 2 124v3q0 20 38 20h10zM404 1573h16q28 0 50 -51
q0 -33 3 -81q0 -12 -3 -59q3 -45 3 -60q-3 -40 -3 -59l-5 -2q-7 0 -10 48q-13 10 -13 28h-2q0 -26 -10 -26l-5 3q-5 -3 -10 -3q-8 10 -8 16q-8 0 -8 -33l3 -10q-3 -13 -8 -13l-5 10l3 25q-2 21 -8 21q-7 -7 -12 -41l-6 -2q-5 0 -10 38q-6 0 -12 25v142q0 84 60 84zM541 1573
h21q29 0 50 -51q0 -23 3 -30q0 -3 -3 -3l3 -30v-168q0 -5 -3 -10q3 -4 3 -10q-4 -10 -8 -10q-7 0 -10 50q-10 4 -10 23h-3q0 -21 -12 -23l-5 3q-5 -3 -10 -3q-6 16 -11 16q-5 -22 -5 -26q3 -14 3 -20q-4 -10 -8 -10q-2 10 -5 10l3 18v7q0 19 -8 21q-7 -8 -13 -41h-5
q-4 0 -12 41q-10 11 -10 23v124q0 99 55 99zM853 1570q48 -19 48 -58v-61q-3 -10 -22 -10q-28 0 -28 7v31l-3 13h-15q-8 0 -8 -66v-61l3 -13h15q7 0 10 36l8 5h20q19 0 20 -8v-25q0 -5 -7 -23q2 -35 2 -46l-5 -2q-7 0 -10 22l-5 -2q-5 0 -5 5v30h-3q-7 -18 -10 -45h-2
q-7 0 -10 25l-13 3l-5 -8v-23q0 -4 -15 -12h-3l-7 5q2 25 2 38v7q-15 0 -15 16h-3l-2 -13v-38q0 -5 -5 -5t-5 5q0 27 -3 101q3 81 3 117q0 30 45 53h33zM1360 1570h112q4 0 10 -10v-53q0 -21 -20 -21h-54v-55h36q4 0 10 -10v-36q0 -18 -18 -18h-28v-20l6 3q42 -3 63 -3
q8 -9 8 -18v-25q0 -5 -6 -5h-2q-4 0 -8 7v13h-5l-10 -18h-2q-7 0 -8 10h-3q0 -20 -7 -20h-5q-7 0 -10 33h-3q-8 -43 -15 -43h-5q-12 14 -23 15q-3 10 -3 18h-2q0 -11 -10 -15q-2 0 -8 7q3 26 3 38v11q0 17 -3 20q3 17 3 28v147q0 19 7 20zM1507 1570h71q49 -11 49 -71v-84
q0 -19 -16 -53q21 -38 21 -45v-8l-8 -28q0 -2 3 -20q-2 0 -13 -10q-4 0 -8 7v36h-5l-2 -13q2 -31 2 -33q-4 -10 -7 -10t-11 10l3 18v5q0 26 -28 79h-8v-23q-5 -25 -5 -28l3 -23q-3 -13 -8 -13h-2q-6 0 -8 13q3 22 3 33l-5 2q0 -5 -5 -5h-3q-5 0 -5 11h-3q0 -15 -2 -18
q2 0 5 -41q-4 -10 -8 -10h-5q-5 0 -7 15q0 6 5 46q-2 15 -5 15q2 64 2 94v122q0 30 10 30zM394 1489v-119l3 -13h15q8 3 8 15v97q0 28 -13 28h-5q-4 0 -8 -8zM536 1481v-12q0 -29 3 -54q-3 -14 -3 -45q2 -13 8 -13h10q4 0 8 8v116q0 14 -8 16h-2q-16 0 -16 -16zM683 1497
q0 -3 -2 -8l2 -5l-2 -5q2 -5 2 -8l-2 -5q2 -4 2 -10l-2 -5q0 -3 2 -3l-2 -12v-79l2 -13q5 3 11 3v124l2 26h-13zM1550 1492v-82h3l13 3v73q0 6 -5 6h-11zM519 1268q72 0 106 -71q25 -34 25 -119q-2 -10 -2 -20q13 -2 13 -8v-10q-8 -22 -8 -35q3 0 20 -23v-8h-5v-12
q0 -12 8 -43q-5 -3 -8 -3q0 -1 10 -30l-5 -3h-2l-5 3q0 -12 -11 -56h-7q0 25 -8 25q-5 -23 -5 -33v-7h-7q0 7 -5 7h-3q0 -27 -18 -30q-2 -28 -10 -28l-10 7q-5 -35 -5 -45h-3q-12 7 -12 15q-4 -3 -13 -23h-5q0 20 -8 20q-7 -22 -12 -22q-8 8 -8 12h-3l-7 -15h-8q-2 18 -7 18
q-7 -16 -13 -18q-5 12 -10 13l-10 -8h-3q-4 0 -18 23q0 -8 -5 -8h-5q-10 39 -10 44l-10 -13q-7 0 -10 51h-3v-6h-7l-10 56l-13 -10q-5 0 -5 5q5 22 5 28q0 10 -5 38l-10 -5q0 3 -3 3q3 25 3 38v17q0 5 17 36v7q-7 24 -7 36q0 2 13 18v25q0 78 65 137q29 23 82 30zM384 1109
v-38q10 -12 10 -13q0 -15 -5 -74q5 0 5 -5v-17h8v-21h2q0 10 6 10q5 0 5 -5v-22q5 -7 5 -11h5q0 32 30 49q5 -1 5 -5q0 -3 -15 -23v-3q8 5 15 5h8l-3 13v15q0 4 8 8q5 -1 5 -5q-3 -5 -3 -8q6 -8 6 -13l5 3h5q11 -13 20 -13h2l16 13h2l13 -3l2 13v3h-2q-5 -3 -8 -3l-2 5
q5 3 7 3v2l-7 13l5 2q18 -10 18 -30v-5l-3 -5l10 -3v13q1 5 5 5q3 -14 36 -51h2v13q1 5 5 5l5 -2v7l-2 18q2 0 2 2l6 -2h5q0 33 5 46l-5 48q12 3 12 35q0 128 -73 170h-3q-6 -2 -20 -30q10 -2 10 -8v-2l-63 -89q-3 5 -3 7q25 60 25 66q-22 5 -22 13l22 51h-2q-54 0 -107 -71
q-20 -50 -20 -76zM316 1230l2 -5q-2 -77 -2 -114l-10 -7q-4 0 -18 78q-7 5 -8 5h-61l-2 -25v-152h56q12 0 20 58h5q4 0 8 -8v-60q0 -3 -3 -3l3 -5v-79q0 -4 -11 -10q-5 4 -15 59l-5 2q-46 3 -58 3v-112q0 -66 20 -66q14 0 18 -10v-15q0 -1 -5 -8l-26 3h-60l-18 -3
q-5 10 -5 21q0 4 28 20q5 13 5 53v281q0 64 -13 64q-20 3 -20 20v8l2 5q51 -3 76 -3h54q22 0 43 5zM1036 1215q25 0 263 -7l3 -6q0 -29 -3 -88q-2 0 -2 -3q-30 3 -43 3h-28q-10 -303 -10 -368q-3 -5 -3 -8q3 0 3 -2l-5 -3q-71 3 -117 3l-5 2l3 6q0 56 10 375h-69q-5 0 -5 7
l3 87zM1000 1197q13 0 16 -25q-3 -30 -3 -46h-3q6 -8 6 -15v-28q0 -20 -39 -28v-5h6q33 0 33 -17q2 -22 5 -94l-3 -26l5 -60q-2 -33 -7 -33h-21l-86 68q-24 28 -101 89l2 -26v-32q0 -3 -2 -3q5 -10 5 -28v-40q0 -15 -23 -33q-48 0 -48 7l-18 -2h-10q-8 0 -8 40v64
q0 14 -2 35l2 5q-2 14 -2 23v15q0 14 2 23q-2 14 -2 20q-3 114 -3 147l5 3h15q16 0 89 -71v-25l-7 -11q3 -2 12 -2q0 4 10 10h13q11 0 66 -48l5 -3v59q0 31 -3 78q0 15 74 15h20zM1408 1152q173 -16 173 -31q38 -24 38 -58v-5q0 -39 -13 -76q-94 15 -101 18q0 6 2 38
q0 9 -63 15q-17 0 -20 -48q0 -22 96 -26q74 -23 74 -76v-2q0 -17 -5 -38l25 -36v-2q-38 -24 -38 -41q-23 -58 -81 -58q-160 14 -160 33q-20 0 -33 61q5 34 5 66q5 2 8 2q79 -5 96 -10q-3 -27 -5 -33q0 -17 61 -20q18 0 18 55q0 9 -109 21q-59 27 -59 68v41l-30 33
q40 23 40 56q27 53 81 53zM415 1142h2v-3q0 -4 3 -30q-4 -10 -8 -10l-5 2l3 13v23q0 5 5 5zM623 1129l2 -5v-3q0 -9 -2 -22q2 -5 2 -8l-5 -3q-5 0 -5 5v3q0 33 8 33zM430 1104h15q8 -6 36 -13v-5q-18 0 -49 10q-7 0 -7 5zM584 1093q16 -2 16 -7q-10 0 -38 -13l-3 5
q14 14 25 15zM422 1086h3q8 0 50 -23v-8h-12v-2q8 0 15 -13v-2q0 -3 -3 -3l3 -5q-11 -15 -33 -15h-3q-32 3 -32 25q0 18 22 18v2h-7q-13 -7 -26 -7h-2v10q0 19 25 23zM501 1083q7 -9 7 -17v-3q0 -4 -7 -8l-3 5l3 6q-5 10 -5 15zM516 1083q5 -14 5 -33l-5 -2q-5 9 -5 20v10
q1 5 5 5zM612 1081l18 -21v-2q0 -5 -5 -5h-5q-5 0 -5 5q-4 0 -28 -5v-3q23 -6 23 -17q-9 -26 -33 -26q-10 4 -10 8l2 5q-28 4 -28 13v2q6 10 13 10l-5 8v2q0 13 63 26zM374 1063q1 -5 5 -5h3v5h-8zM478 1055q15 -5 15 -10q-3 -12 -7 -12q-5 0 -5 5l2 5q-6 5 -10 5v2q1 5 5 5
zM372 1048l5 -31h5l-3 13v20h-2zM422 1045q0 -4 10 -10h3l-3 5v5l3 5h-8q-5 0 -5 -5zM458 1048v-15q8 5 12 5q-1 5 -12 10zM643 1048v-5q5 2 7 2v3h-7zM584 1043q3 -5 3 -8q-3 -5 -3 -7q12 4 13 10q-8 5 -13 5zM552 1033l5 -3h5v10q-10 -4 -10 -7zM643 1035v-7h2v7h-2z
M524 1030q12 -3 22 -43q-2 0 -2 -3q-23 0 -23 21zM498 1028l3 -6v-15q0 -14 2 -35q-5 -15 -10 -15l-5 2q3 9 3 10l-3 26q4 33 10 33zM473 1022h5l5 -2q0 2 3 2l2 -5v-10q-9 -15 -13 -15q-2 5 -2 8q8 11 8 15v2h-3q0 -18 -33 -22h-10q-14 0 -25 17v3q0 5 5 5q8 -15 22 -15h13
q23 4 23 17zM544 1022q18 -20 38 -20q19 0 33 13l2 -5q0 -15 -35 -21q-28 0 -43 31zM521 886l-5 2q-17 -2 -28 -2h-7q-6 -1 -6 -6q24 -5 26 -5l45 13v3h-5q-7 0 -20 -5zM569 891q0 -15 -17 -36q4 -11 10 -13q8 0 17 33v8q0 4 -10 8zM445 868q0 -29 20 -38q7 0 10 20v3
q-12 0 -12 25v5q-13 0 -18 -15zM442 703q6 0 18 -96q28 44 38 48q50 -17 54 -23l-3 -36q0 -12 13 -65v-3q-11 -15 -61 -43q-81 9 -81 15l5 31q-18 129 -36 162l8 5h18q3 0 27 5zM1081 703h51q5 0 5 -8q-7 -22 -7 -30v-8h20q5 0 5 -5v-2q0 -21 -10 -21l-18 3q-2 -5 -2 -8
q-3 -34 -3 -73q20 -11 20 -15q-11 -23 -25 -33q-56 32 -56 38q15 28 15 96q-15 0 -15 8v5q2 15 8 15q5 -3 7 -3q3 5 3 8q-3 26 -3 30zM846 680h2q26 -29 26 -40q-17 -36 -23 -38h-3q-4 0 -15 27h-8q-5 -27 -7 -27q0 -44 15 -44q35 -4 35 -12q-15 -31 -22 -33h-3l-73 18
q-3 4 -3 7l8 28q0 71 -26 71q-2 0 -2 3q2 17 20 38q51 -15 51 -41h2q20 42 26 43zM957 678q43 -23 71 -28l3 -5q-10 -43 -10 -74q0 -13 20 -28v-2q-19 -31 -28 -31q-38 20 -38 38h-3q-40 -35 -43 -35q-40 20 -40 43q0 46 17 46q14 2 16 2v5l-21 23v3q43 43 56 43zM645 670h3
q38 -13 73 -20q0 -3 3 -3q-3 -17 -3 -28q0 -50 8 -81q-33 -15 -63 -38q-39 15 -71 20l-3 6q0 7 3 17q-3 43 -16 84v2q4 7 49 26q0 4 17 15zM1249 657q16 -13 68 -38v-5q-9 0 -20 -94q2 -4 2 -7l-73 -26q-37 26 -63 33v6q10 42 10 81q0 6 -3 20q0 12 48 18q22 12 31 12z
M176 645q5 -1 5 -5v-11q33 -159 46 -159q7 0 13 -10v-3q-2 -33 -10 -33h-6q-50 12 -50 15q0 38 -48 180q-3 0 -3 3v10q8 0 53 13zM922 642v-10q29 -41 53 -41q2 5 2 11v17q-26 23 -55 23zM633 635v-3q5 -84 15 -84q30 -7 33 -7l-3 17v26q0 48 -38 48q-2 0 -7 3zM1368 637
q38 -24 38 -41v-10h2q30 36 33 36h3q18 -26 18 -43v-3q-28 -33 -31 -33q-7 0 -12 33h-5q-10 0 -21 -58q0 -10 43 -25v-6q0 -3 -28 -27h-2q-4 0 -71 35q20 48 20 89q0 11 -20 18q0 12 33 35zM1223 624v-2q-5 -29 -5 -81q23 -15 33 -15q10 55 10 68v5q-10 15 -38 25zM463 586
q7 -55 12 -55q24 -5 38 -5q-13 83 -15 83l-15 3h-2q-6 0 -18 -26zM290 612q40 -10 61 -10l5 2q13 -3 13 -8v-17q4 -74 28 -74q7 0 7 -5q0 -13 -17 -35h-3q-45 9 -45 25h-3q-30 -46 -35 -46q-51 10 -51 51q-5 16 -5 20q19 16 28 16v2q0 2 -28 23q34 56 45 56zM1502 607
q15 0 43 -31v-5q-25 -63 -25 -89q15 -12 18 -12q22 0 35 73q5 0 5 18v18l3 5q56 -12 56 -20q-24 -42 -59 -180l-5 -3h-40q-5 0 -5 8q10 15 22 73h-2l-38 -28q-48 35 -48 41q15 20 28 86l-11 18v2q0 21 23 26zM937 594q-3 -4 -3 -10v-10q0 -20 13 -26h8q20 15 20 28
q-26 18 -38 18zM262 566q8 -21 61 -38h3l2 5q0 36 -33 36q-18 2 -20 2zM290 528v-10q0 -36 26 -36q17 21 17 33q-8 6 -43 13zM524 475q43 0 88 -59q4 0 8 -7q0 -16 -13 -33q-9 5 -20 5q36 -34 36 -53q0 -34 -46 -41h-15q-37 0 -61 36q-28 21 -28 35v23q0 5 8 5q7 -5 30 -10
v2q-38 34 -38 59q0 31 51 38zM835 472h36q17 0 68 -63l38 -119l-5 -3h-38q-21 23 -38 23q-6 -23 -10 -23h-40q-4 0 -56 56q39 129 45 129zM980 472l10 -2l18 2q7 0 61 -58v-43q0 -24 2 -58q-2 -9 -2 -26h-41q-53 47 -53 61v86l-3 31q4 0 8 7zM1094 472q9 0 23 -2q4 2 10 2
q8 0 43 -35v28q0 5 20 7v-2l6 2q2 0 2 -2l5 2q9 0 61 -61v-119q0 -5 -5 -5h-46l-35 33v-28q0 -5 -5 -5h-33q-56 52 -56 58v117q0 4 10 10zM481 432q0 -25 48 -43l2 -5v-8q-1 -8 -18 -8q-8 0 -32 8v-20q0 -6 35 -11q43 7 43 33v11q0 20 -38 33q-13 10 -13 12q4 10 8 10h10
q5 0 26 -5q5 7 5 21q-15 5 -33 7q-43 -4 -43 -35zM638 470h48q28 0 86 -69q13 -11 13 -30q0 -41 -56 -46v-33q0 -5 -5 -5h-30q-13 0 -44 38q-3 0 -17 18v122q0 5 5 5zM640 462l-2 -30v-79q1 -5 5 -5h25v33q0 4 36 10q17 13 17 28v10q0 33 -35 33h-46zM835 462l-35 -114h30
q5 23 11 23h33q7 0 10 -23h30v3q-35 106 -35 111h-44zM980 462v-114h28v114h-28zM1092 462v-114h25v48l-3 31l5 2q43 -80 46 -81h38v114h-25v-78h-3q-4 0 -43 78h-40zM858 444q5 -7 13 -48q0 -5 -5 -5h-18q-5 0 -5 5q9 48 15 48zM676 442q18 -4 18 -10v-5q0 -18 -18 -18h-3
q-5 0 -5 5v23q0 5 8 5zM171 269h1420q36 -3 36 -30v-162q0 -27 -36 -31h-1420q-35 4 -35 31v162q0 26 35 30zM199 211v-58l-8 -10l8 -10v-23q0 -4 31 -31h25l13 10h2l13 -10h25q4 0 31 31v23l7 10l-7 10v58h-31v-91q0 -5 -5 -5h-15q-5 0 -5 5v13l10 12q-4 0 -10 10v56h-28
v-56l-10 -12q4 0 10 -10v-13q0 -5 -5 -5h-15q-5 0 -5 5v91h-31zM366 188v-33q0 -1 -10 -12l10 -13v-36q8 -15 23 -15h36q25 0 25 38v16l8 10l-8 10v20q0 38 -30 38h-26q-28 0 -28 -23zM478 188v-33l-10 -12l10 -13v-28q3 -23 23 -23h35q26 0 26 38v16l7 10l-7 10v15
q0 43 -26 43h-30q-28 0 -28 -23zM592 211v-56l-8 -10l8 -10v-51q1 -5 5 -5h56q25 0 25 43v13l8 10l-8 10v16q0 40 -30 40h-56zM709 188v-25q0 -15 -10 -15v-3q10 -11 10 -12v-31q3 -23 23 -23h35q25 0 25 31v15h-30q0 -18 -8 -18h-10q-3 0 -7 8v18l10 12l-10 13v18q2 7 15 7
h2q8 0 8 -18h30v8q0 38 -30 38h-25q-28 0 -28 -23zM813 211v-56l-10 -12q3 0 10 -10v-26q0 -28 28 -28h33q22 4 22 23v31l10 12q-3 0 -10 10v56h-28v-96q0 -4 -7 -8h-13q-5 0 -5 5v99h-30zM917 211v-28h25q5 -1 5 -5v-23l-8 -10v-2l8 -10v-54h30v54l8 10l-8 10v25q1 5 6 5
h25v28h-91zM1016 211v-28h27q5 -1 5 -5v-23l-10 -12q10 -4 10 -18v-46h28v54l10 12q-3 0 -10 10v23q1 5 5 5h26v28h-91zM1127 211v-56l-10 -12q4 0 10 -10v-54h81v28h-48q-5 0 -5 5v13q1 5 5 5h33v30h-33q-5 0 -5 5v13q1 5 5 5h48v28h-81zM1231 211v-56l-10 -12q4 0 10 -10
v-54h28v38h5q18 -34 18 -38h33v3l-21 40q18 8 18 23v43q0 23 -28 23h-53zM1398 211v-56q0 -1 -10 -12q4 0 10 -10v-54h84v28h-51q-5 0 -5 5v13q1 5 5 5h33v30h-33q-5 0 -5 5v13q1 5 5 5h51v28h-84zM1492 176v-3q9 -9 15 -35q9 -8 31 -8h12q6 -1 6 -5v-13q0 -5 -6 -5h-12
q-8 0 -8 15h-28v-20q0 -23 28 -23h28q28 0 28 28q4 0 10 10q-9 0 -13 31q-9 12 -35 12h-10q-4 0 -8 8v5q0 4 10 10h8q6 0 10 -18l5 3h15l5 -3l3 6v15q0 25 -30 25h-26q-30 0 -30 -33q-5 -2 -8 -2zM410 183h2q4 0 8 -7v-61q0 -4 -8 -8h-10q-4 0 -8 8v61q3 7 16 7zM521 183h3
q3 0 7 -7v-61q0 -4 -7 -8h-11q-3 0 -7 8v61q2 7 15 7zM1264 183h13q3 0 7 -7v-21q0 -3 -7 -7h-13q-5 0 -5 5v25q1 5 5 5zM628 181h15q5 -1 5 -5v-61q0 -4 -8 -8h-12q-5 0 -5 5v64q0 5 5 5zM1338 92q1 -13 7 -13h15q5 0 5 5v16q0 3 -7 7h-5q-15 0 -15 -15zM306 3q20 -6 20 -7
q20 7 25 7q17 0 26 -15l-3 -15l41 -86q13 15 40 91q4 25 26 25q19 -5 22 -5q18 5 31 5q18 -5 18 -10v-13q-13 -13 -13 -22v-56q0 -15 28 -28l2 -13q0 -6 -25 -25q-5 -8 -5 -15v-41q10 -38 10 -40q0 -4 -10 -11h-15q-18 0 -18 5q-9 -5 -20 -5h-11q-13 0 -17 11v7q10 31 10 33
v53l-18 -33q0 -5 -13 -5q-10 0 -20 3q-10 -3 -20 -3h-3q-17 0 -28 36h-2v-53q0 -3 10 -31v-7q-3 -11 -20 -11q-12 0 -26 3q-13 -3 -30 -3q-15 0 -15 18q0 3 10 31v60q-19 6 -31 21q0 11 28 33v7q0 12 3 59q-13 28 -13 30q0 13 26 15zM620 3l20 -7q20 7 26 7q25 -4 25 -18
q-3 -13 -3 -15l41 -83q11 6 38 88l13 23q0 5 15 5q19 -5 23 -5q18 5 28 5q13 0 20 -12v-11l-13 -15v-63q0 -16 28 -28q0 -6 3 -10q0 -9 -26 -28q-5 -8 -5 -15v-46q10 -30 10 -33q-3 -13 -17 -13h-8q-18 0 -18 5q-9 -5 -20 -5h-10q-14 0 -18 11v5q0 6 8 30v56h-3
q-4 -36 -25 -36q-11 0 -20 3q-10 -3 -21 -3h-2q-21 0 -26 33l-5 3v-56q0 -9 10 -23v-12q-3 -11 -20 -11q-12 0 -25 3q-13 -3 -31 -3h-5q-4 0 -10 11v15q10 14 10 23q0 5 -2 10q2 17 2 28v22q-12 0 -30 21q0 12 28 33v22q0 15 2 41q-7 21 -12 28v8q6 12 25 12zM919 3
q19 -7 23 -7l18 7q16 0 28 -15l-3 -13q16 -40 20 -40q18 35 21 61l17 7q6 0 26 -7q20 7 25 7q20 -7 20 -12v-11q-55 -76 -55 -93q20 -15 20 -26q0 -7 -15 -20q23 -56 55 -91v-10q-7 -13 -22 -13l-23 2q-18 -2 -28 -2q-13 0 -20 13v2q0 6 2 10q-19 46 -25 46h-3q0 -6 -17 -33
l-3 -10l3 -15q-10 -9 -23 -13q-3 0 -26 2q-22 -2 -28 -2q-17 3 -17 10v10q56 78 56 96q-9 4 -16 21q12 20 23 20q-40 77 -61 99v5q5 15 28 15zM1150 3l28 -7q12 7 18 7q25 0 25 -25q0 -8 15 -41h3l20 36l-3 12v3q11 15 21 15q25 -4 25 -7q24 7 28 7q20 -4 20 -20
q-28 -35 -58 -96q22 -16 23 -21v-7q-18 -17 -18 -21q36 -65 58 -91v-7q0 -7 -23 -13q-6 0 -20 2q-21 -2 -35 -2q-16 0 -18 38q-18 33 -20 33h-3q-20 -35 -20 -41v-17q0 -8 -26 -13q-18 2 -20 2l-30 -2q-15 5 -15 10v5q0 5 38 63q17 32 17 38q-15 9 -15 23q10 16 20 16v2
q-28 64 -58 96v11q0 6 23 12zM1441 3q23 -3 23 -20q-10 -17 -10 -31v-32q0 -10 -2 -23q0 -5 27 -31v-2q0 -15 -22 -26l-5 -20q2 -21 2 -35v-11q10 -28 10 -32q-10 -11 -23 -11q-25 0 -25 5q-9 -5 -20 -5h-8q-18 0 -18 18q13 28 13 33v23q0 35 -25 61v2q23 21 23 33v56
q-11 28 -11 30v6q0 7 26 10q20 -1 20 -5z" />
    <glyph glyph-name="ntilde" unicode="&#xf1;" horiz-adv-x="783" 
d="M179 1338h5q73 0 168 -332q24 -172 60 -172h12q17 0 40 184q-4 209 -4 296q7 64 44 64h12q49 -16 60 -16q12 0 48 64h16q21 -10 40 -64q9 -12 56 -36q12 -20 12 -44q-26 -300 -44 -300q-8 -28 -8 -48v-176q0 -55 -16 -340v-88q-10 -280 -36 -280l-16 -4q-17 5 -24 20v124
h-4q-40 -40 -68 -40q-56 0 -108 212q0 39 -68 92l-8 4q-16 -23 -16 -28q4 -138 4 -216v-8q0 -68 -56 -112q-24 -72 -40 -72h-16q-42 23 -104 124q-43 16 -48 16q-4 -86 -4 -120l4 -136q-17 -16 -32 -16q-18 6 -28 24v244q0 85 -12 168q4 284 12 348q-4 176 -4 316
q0 102 8 124q-8 16 -12 64q0 156 64 156q20 4 48 4h3q-4 13 -4 32l4 36q0 7 -4 48q-64 0 -80 164q0 52 84 52h84q100 16 108 16h24q38 -24 56 -24q45 8 64 8h120q41 0 56 -72v-44q-7 -100 -52 -100h-16q-77 0 -228 4v-76q-4 -44 -32 -44q-24 0 -28 32v88q-70 -4 -88 -4
q-4 0 -12 4v-8q0 -27 4 -48q-4 -22 -4 -36z" />
    <glyph glyph-name="ograve" unicode="&#xf2;" 
d="M402 1364q143 0 288 -228q56 -100 56 -308q36 -118 36 -156q-44 -352 -44 -540v-100q0 -32 -32 -32q-22 0 -28 32q0 38 -4 252q-96 -108 -96 -156q0 -160 -48 -160q-20 0 -44 108q-14 20 -32 20q-99 0 -128 -96q-40 -63 -40 -72q-9 -88 -32 -88h-8q-40 0 -40 132
q0 138 -44 152q-130 141 -144 228q-28 74 -28 240v56q0 155 40 196q32 106 52 252q44 112 124 112q21 0 140 132q28 24 56 24zM330 692h-4q-13 9 -40 88q-7 4 -12 4q-28 0 -60 -132v-48q0 -174 76 -228q32 -40 68 -40h12q76 21 160 116q44 86 44 236q0 163 -52 216
q-21 92 -28 92v-76q0 -34 -8 -188q-2 0 -20 -16h-20q-5 0 -20 20v156q0 40 4 120q-68 -31 -68 -164q-9 -156 -32 -156z" />
    <glyph glyph-name="oacute" unicode="&#xf3;" 
d="M402 1364q143 0 288 -228q56 -100 56 -308q36 -118 36 -156q-44 -352 -44 -540v-100q0 -32 -32 -32q-22 0 -28 32q0 38 -4 252q-96 -108 -96 -156q0 -160 -48 -160q-20 0 -44 108q-14 20 -32 20q-99 0 -128 -96q-40 -63 -40 -72q-9 -88 -32 -88h-8q-40 0 -40 132
q0 138 -44 152q-130 141 -144 228q-28 74 -28 240v56q0 155 40 196q32 106 52 252q44 112 124 112q21 0 140 132q28 24 56 24zM330 692h-4q-13 9 -40 88q-7 4 -12 4q-28 0 -60 -132v-48q0 -174 76 -228q32 -40 68 -40h12q76 21 160 116q44 86 44 236q0 163 -52 216
q-21 92 -28 92v-76q0 -34 -8 -188q-2 0 -20 -16h-20q-5 0 -20 20v156q0 40 4 120q-68 -31 -68 -164q-9 -156 -32 -156z" />
    <glyph glyph-name="ocircumflex" unicode="&#xf4;" 
d="M402 1364q143 0 288 -228q56 -100 56 -308q36 -118 36 -156q-44 -352 -44 -540v-100q0 -32 -32 -32q-22 0 -28 32q0 38 -4 252q-96 -108 -96 -156q0 -160 -48 -160q-20 0 -44 108q-14 20 -32 20q-99 0 -128 -96q-40 -63 -40 -72q-9 -88 -32 -88h-8q-40 0 -40 132
q0 138 -44 152q-130 141 -144 228q-28 74 -28 240v56q0 155 40 196q32 106 52 252q44 112 124 112q21 0 140 132q28 24 56 24zM330 692h-4q-13 9 -40 88q-7 4 -12 4q-28 0 -60 -132v-48q0 -174 76 -228q32 -40 68 -40h12q76 21 160 116q44 86 44 236q0 163 -52 216
q-21 92 -28 92v-76q0 -34 -8 -188q-2 0 -20 -16h-20q-5 0 -20 20v156q0 40 4 120q-68 -31 -68 -164q-9 -156 -32 -156z" />
    <glyph glyph-name="otilde" unicode="&#xf5;" 
d="M402 1364q143 0 288 -228q56 -100 56 -308q36 -118 36 -156q-44 -352 -44 -540v-100q0 -32 -32 -32q-22 0 -28 32q0 38 -4 252q-96 -108 -96 -156q0 -160 -48 -160q-20 0 -44 108q-14 20 -32 20q-99 0 -128 -96q-40 -63 -40 -72q-9 -88 -32 -88h-8q-40 0 -40 132
q0 138 -44 152q-130 141 -144 228q-28 74 -28 240v56q0 155 40 196q32 106 52 252q44 112 124 112q21 0 140 132q28 24 56 24zM330 692h-4q-13 9 -40 88q-7 4 -12 4q-28 0 -60 -132v-48q0 -174 76 -228q32 -40 68 -40h12q76 21 160 116q44 86 44 236q0 163 -52 216
q-21 92 -28 92v-76q0 -34 -8 -188q-2 0 -20 -16h-20q-5 0 -20 20v156q0 40 4 120q-68 -31 -68 -164q-9 -156 -32 -156z" />
    <glyph glyph-name="odieresis" unicode="&#xf6;" 
d="M402 1364q143 0 288 -228q56 -100 56 -308q36 -118 36 -156q-44 -352 -44 -540v-100q0 -32 -32 -32q-22 0 -28 32q0 38 -4 252q-96 -108 -96 -156q0 -160 -48 -160q-20 0 -44 108q-14 20 -32 20q-99 0 -128 -96q-40 -63 -40 -72q-9 -88 -32 -88h-8q-40 0 -40 132
q0 138 -44 152q-130 141 -144 228q-28 74 -28 240v56q0 155 40 196q32 106 52 252q44 112 124 112q21 0 140 132q28 24 56 24zM330 692h-4q-13 9 -40 88q-7 4 -12 4q-28 0 -60 -132v-48q0 -174 76 -228q32 -40 68 -40h12q76 21 160 116q44 86 44 236q0 163 -52 216
q-21 92 -28 92v-76q0 -34 -8 -188q-2 0 -20 -16h-20q-5 0 -20 20v156q0 40 4 120q-68 -31 -68 -164q-9 -156 -32 -156z" />
    <glyph glyph-name="divide" unicode="&#xf7;" horiz-adv-x="1382" 
d="M749 1468q259 -50 323 -97q8 -8 155 -86q43 -46 51 -97q-4 -156 -15 -184q15 -101 54 -216q4 -13 4 -32v-62l-18 -252q0 -86 -33 -86h-7q-21 11 -21 40v57h-4q-64 -86 -112 -101q-7 -61 -7 -100v-112q0 -36 4 -108q-16 -14 -18 -14h-7q-33 0 -33 90q-6 38 -11 86
q8 49 8 122q-4 0 -4 4q-25 -9 -65 -14l4 -8v-36q0 -25 -25 -25q-29 0 -29 58q-56 -9 -79 -33l-7 -10v-58q10 -80 10 -97v-36q0 -47 -32 -87q4 -77 4 -108q0 -43 -33 -43q-21 8 -21 29v76q0 26 -11 28h-40q-23 0 -54 -21q4 -20 4 -33l-18 -14h-7q-28 0 -36 47h-8
q-39 0 -39 -51l-18 -14h-11q-32 0 -32 50l-8 -3h-25q-21 0 -61 14q-4 0 -11 -3l-147 36q-36 30 -36 86q8 26 39 76q18 68 18 72q-3 30 -3 50v54q0 10 -18 32h-4v-64q-4 -44 -36 -44t-32 116v7q-4 0 -11 3l3 -25v-75q0 -22 -25 -29q-25 7 -25 21q0 41 -4 152q-8 7 -50 25
q14 -161 14 -223q-7 -17 -14 -18h-22q-19 0 -25 151q0 88 -14 144q0 87 11 209v3q-29 96 -29 141q0 157 183 503q19 13 188 65q140 51 180 51q18 0 36 -18zM475 1029q0 -8 -86 -108q0 -16 -40 -137q2 -36 11 -36q54 27 83 108q43 114 43 130v25l-4 18h-7zM946 1018v-3
q4 -123 4 -137q-4 -68 -22 -68h-17q-22 0 -22 97h-4q0 -72 -57 -177q-15 -14 -22 -14q21 -50 61 -50h15q31 0 39 32q83 111 83 169v18q0 88 -58 133zM551 547h3q90 0 90 18q36 57 36 72v14q-1 8 -18 15q-9 -22 -29 -22q-25 0 -25 25q-15 -24 -39 -47q-18 -38 -18 -75z
M360 165q0 -18 3 -126q-3 -20 -3 -29l18 -10h18q14 57 14 79q0 14 -7 65q14 75 14 93v4q-3 0 -10 3q-44 0 -44 -64q-3 0 -3 -15zM626 18h40q7 0 7 10q0 63 -4 206q-8 0 -14 3q-29 0 -29 -68v-151zM479 43q6 -16 25 -29h3q26 62 26 166v46h-18q-24 0 -33 -147q-3 -19 -3 -36z
M759 205v-33q0 -9 -10 -43v-61h3l11 7h7l25 -7v43q-4 101 -21 101h-7q-8 -1 -8 -7z" />
    <glyph glyph-name="oslash" unicode="&#xf8;" 
d="M402 1364q143 0 288 -228q56 -100 56 -308q36 -118 36 -156q-44 -352 -44 -540v-100q0 -32 -32 -32q-22 0 -28 32q0 38 -4 252q-96 -108 -96 -156q0 -160 -48 -160q-20 0 -44 108q-14 20 -32 20q-99 0 -128 -96q-40 -63 -40 -72q-9 -88 -32 -88h-8q-40 0 -40 132
q0 138 -44 152q-130 141 -144 228q-28 74 -28 240v56q0 155 40 196q32 106 52 252q44 112 124 112q21 0 140 132q28 24 56 24zM428 966q1 21 2 46q-68 -31 -68 -164q-9 -156 -32 -156h-4q-13 9 -40 88q-7 4 -12 4q-28 0 -60 -132v-48q0 -134 45 -197q29 89 71 194
q24 83 54 236q27 76 44 129zM404 349q11 5 23 13q5 63 5 71v4h-3q-13 -48 -25 -88zM567 795q-7 43 -21 72q-18 -97 -67 -310l-11 -166q30 25 62 61q42 82 44 222q-3 4 -6 11q-1 61 -1 110z" />
    <glyph glyph-name="ugrave" unicode="&#xf9;" horiz-adv-x="796" 
d="M192 1374h20q20 0 32 -92l16 -12l48 4q20 -21 20 -36v-80q0 -156 -60 -432v-80q0 -188 72 -188h8q124 0 124 164q4 22 4 80v36q-24 217 -24 280v132q0 89 44 124q31 5 72 88q20 12 32 12h12q48 0 64 -88q64 -41 64 -100q-44 -560 -52 -804q12 -174 12 -224v-84
q0 -24 -28 -32q-28 0 -32 44q0 90 -12 264q4 0 4 4h-8q-35 -85 -136 -160q-8 0 -92 -64q-28 -8 -48 -8h-48q-46 0 -80 -68q-27 -22 -48 -92l-16 -12h-12q-31 0 -36 212q-44 80 -80 352q-23 79 -28 116q24 95 24 124q-8 120 -8 164v132q27 312 76 312h12q7 0 44 -8
q14 0 44 20z" />
    <glyph glyph-name="uacute" unicode="&#xfa;" horiz-adv-x="796" 
d="M192 1374h20q20 0 32 -92l16 -12l48 4q20 -21 20 -36v-80q0 -156 -60 -432v-80q0 -188 72 -188h8q124 0 124 164q4 22 4 80v36q-24 217 -24 280v132q0 89 44 124q31 5 72 88q20 12 32 12h12q48 0 64 -88q64 -41 64 -100q-44 -560 -52 -804q12 -174 12 -224v-84
q0 -24 -28 -32q-28 0 -32 44q0 90 -12 264q4 0 4 4h-8q-35 -85 -136 -160q-8 0 -92 -64q-28 -8 -48 -8h-48q-46 0 -80 -68q-27 -22 -48 -92l-16 -12h-12q-31 0 -36 212q-44 80 -80 352q-23 79 -28 116q24 95 24 124q-8 120 -8 164v132q27 312 76 312h12q7 0 44 -8
q14 0 44 20z" />
    <glyph glyph-name="ucircumflex" unicode="&#xfb;" horiz-adv-x="796" 
d="M192 1374h20q20 0 32 -92l16 -12l48 4q20 -21 20 -36v-80q0 -156 -60 -432v-80q0 -188 72 -188h8q124 0 124 164q4 22 4 80v36q-24 217 -24 280v132q0 89 44 124q31 5 72 88q20 12 32 12h12q48 0 64 -88q64 -41 64 -100q-44 -560 -52 -804q12 -174 12 -224v-84
q0 -24 -28 -32q-28 0 -32 44q0 90 -12 264q4 0 4 4h-8q-35 -85 -136 -160q-8 0 -92 -64q-28 -8 -48 -8h-48q-46 0 -80 -68q-27 -22 -48 -92l-16 -12h-12q-31 0 -36 212q-44 80 -80 352q-23 79 -28 116q24 95 24 124q-8 120 -8 164v132q27 312 76 312h12q7 0 44 -8
q14 0 44 20z" />
    <glyph glyph-name="udieresis" unicode="&#xfc;" horiz-adv-x="796" 
d="M192 1374h20q20 0 32 -92l16 -12l48 4q20 -21 20 -36v-80q0 -156 -60 -432v-80q0 -188 72 -188h8q124 0 124 164q4 22 4 80v36q-24 217 -24 280v132q0 89 44 124q31 5 72 88q20 12 32 12h12q48 0 64 -88q64 -41 64 -100q-44 -560 -52 -804q12 -174 12 -224v-84
q0 -24 -28 -32q-28 0 -32 44q0 90 -12 264q4 0 4 4h-8q-35 -85 -136 -160q-8 0 -92 -64q-28 -8 -48 -8h-48q-46 0 -80 -68q-27 -22 -48 -92l-16 -12h-12q-31 0 -36 212q-44 80 -80 352q-23 79 -28 116q24 95 24 124q-8 120 -8 164v132q27 312 76 312h12q7 0 44 -8
q14 0 44 20z" />
    <glyph glyph-name="yacute" unicode="&#xfd;" horiz-adv-x="765" 
d="M124 1382h12q33 0 76 -88q39 -25 72 -144q0 -31 20 -52q20 0 76 100q108 151 152 152h4q19 0 64 -52q132 -13 132 -84v-16q0 -26 -32 -232q-8 -42 -8 -264q0 -58 -28 -156v-36q0 -36 -32 -36q-24 0 -32 40q8 44 16 224q-4 21 -4 40v52q1 85 12 112q-8 59 -8 72
q-160 -162 -160 -204q-4 -35 -4 -60v-88q-16 -106 -16 -128v-20q0 -71 44 -164q8 -21 8 -44q0 -100 -52 -188q-9 -188 -44 -188h-16q-46 0 -60 136q-34 116 -56 116q-4 0 -52 -16h-16q-22 8 -24 76v132q0 55 -12 260q8 83 8 128q0 126 -68 236q8 -38 8 -92q0 -30 -20 -256
q8 -117 8 -128q-4 -160 -4 -240q0 -10 4 -60q-6 -20 -28 -20h-12q-24 13 -24 52q0 60 4 292q-28 257 -28 316v244q0 28 -24 152v4q0 56 80 68q36 52 64 52z" />
    <glyph glyph-name="thorn" unicode="&#xfe;" horiz-adv-x="1382" 
d="M749 1468q259 -50 323 -97q8 -8 155 -86q43 -46 51 -97q-4 -156 -15 -184q15 -101 54 -216q4 -13 4 -32v-62l-18 -252q0 -86 -33 -86h-7q-21 11 -21 40v57h-4q-64 -86 -112 -101q-7 -61 -7 -100v-112q0 -36 4 -108q-16 -14 -18 -14h-7q-33 0 -33 90q-6 38 -11 86
q8 49 8 122q-4 0 -4 4q-25 -9 -65 -14l4 -8v-36q0 -25 -25 -25q-29 0 -29 58q-56 -9 -79 -33l-7 -10v-58q10 -80 10 -97v-36q0 -47 -32 -87q4 -77 4 -108q0 -43 -33 -43q-21 8 -21 29v76q0 26 -11 28h-40q-23 0 -54 -21q4 -20 4 -33l-18 -14h-7q-28 0 -36 47h-8
q-39 0 -39 -51l-18 -14h-11q-32 0 -32 50l-8 -3h-25q-21 0 -61 14q-4 0 -11 -3l-147 36q-36 30 -36 86q8 26 39 76q18 68 18 72q-3 30 -3 50v54q0 10 -18 32h-4v-64q-4 -44 -36 -44t-32 116v7q-4 0 -11 3l3 -25v-75q0 -22 -25 -29q-25 7 -25 21q0 41 -4 152q-8 7 -50 25
q14 -161 14 -223q-7 -17 -14 -18h-22q-19 0 -25 151q0 88 -14 144q0 87 11 209v3q-29 96 -29 141q0 157 183 503q19 13 188 65q140 51 180 51q18 0 36 -18zM475 1029q0 -8 -86 -108q0 -16 -40 -137q2 -36 11 -36q54 27 83 108q43 114 43 130v25l-4 18h-7zM946 1018v-3
q4 -123 4 -137q-4 -68 -22 -68h-17q-22 0 -22 97h-4q0 -72 -57 -177q-15 -14 -22 -14q21 -50 61 -50h15q31 0 39 32q83 111 83 169v18q0 88 -58 133zM551 547h3q90 0 90 18q36 57 36 72v14q-1 8 -18 15q-9 -22 -29 -22q-25 0 -25 25q-15 -24 -39 -47q-18 -38 -18 -75z
M360 165q0 -18 3 -126q-3 -20 -3 -29l18 -10h18q14 57 14 79q0 14 -7 65q14 75 14 93v4q-3 0 -10 3q-44 0 -44 -64q-3 0 -3 -15zM626 18h40q7 0 7 10q0 63 -4 206q-8 0 -14 3q-29 0 -29 -68v-151zM479 43q6 -16 25 -29h3q26 62 26 166v46h-18q-24 0 -33 -147q-3 -19 -3 -36z
M759 205v-33q0 -9 -10 -43v-61h3l11 7h7l25 -7v43q-4 101 -21 101h-7q-8 -1 -8 -7z" />
    <glyph glyph-name="ydieresis" unicode="&#xff;" horiz-adv-x="765" 
d="M124 1382h12q33 0 76 -88q39 -25 72 -144q0 -31 20 -52q20 0 76 100q108 151 152 152h4q19 0 64 -52q132 -13 132 -84v-16q0 -26 -32 -232q-8 -42 -8 -264q0 -58 -28 -156v-36q0 -36 -32 -36q-24 0 -32 40q8 44 16 224q-4 21 -4 40v52q1 85 12 112q-8 59 -8 72
q-160 -162 -160 -204q-4 -35 -4 -60v-88q-16 -106 -16 -128v-20q0 -71 44 -164q8 -21 8 -44q0 -100 -52 -188q-9 -188 -44 -188h-16q-46 0 -60 136q-34 116 -56 116q-4 0 -52 -16h-16q-22 8 -24 76v132q0 55 -12 260q8 83 8 128q0 126 -68 236q8 -38 8 -92q0 -30 -20 -256
q8 -117 8 -128q-4 -160 -4 -240q0 -10 4 -60q-6 -20 -28 -20h-12q-24 13 -24 52q0 60 4 292q-28 257 -28 316v244q0 28 -24 152v4q0 56 80 68q36 52 64 52z" />
    <glyph glyph-name="dotlessi" unicode="&#x131;" horiz-adv-x="514" 
 />
    <glyph glyph-name="circumflex" unicode="&#x2c6;" horiz-adv-x="1024" 
 />
    <glyph glyph-name="caron" unicode="&#x2c7;" horiz-adv-x="1024" 
 />
    <glyph glyph-name="uni02C9" unicode="&#x2c9;" horiz-adv-x="1024" 
 />
    <glyph glyph-name="breve" unicode="&#x2d8;" horiz-adv-x="1024" 
 />
    <glyph glyph-name="dotaccent" unicode="&#x2d9;" horiz-adv-x="1024" 
 />
    <glyph glyph-name="ring" unicode="&#x2da;" horiz-adv-x="1024" 
 />
    <glyph glyph-name="ogonek" unicode="&#x2db;" horiz-adv-x="1024" 
 />
    <glyph glyph-name="tilde" unicode="&#x2dc;" horiz-adv-x="1024" 
 />
    <glyph glyph-name="hungarumlaut" unicode="&#x2dd;" horiz-adv-x="1024" 
 />
    <glyph glyph-name="endash" unicode="&#x2013;" horiz-adv-x="1108" 
 />
    <glyph glyph-name="emdash" unicode="&#x2014;" horiz-adv-x="2048" 
 />
    <glyph glyph-name="quoteleft" unicode="&#x2018;" horiz-adv-x="470" 
d="M203 1208h-20q-92 0 -136 116q-12 40 -12 92v36q0 45 24 56q0 44 64 80q68 72 100 72q16 -4 16 -16q-20 -46 -20 -80v-24q5 -54 80 -132q26 0 44 -112q-51 -88 -140 -88z" />
    <glyph glyph-name="quoteright" unicode="&#x2019;" horiz-adv-x="470" 
d="M175 1660h20q92 0 136 -116q12 -40 12 -92v-36q0 -45 -24 -56q0 -44 -64 -80q-68 -72 -100 -72q-16 4 -16 16q20 46 20 80v24q-5 54 -80 132q-25 0 -44 112q51 88 140 88z" />
    <glyph glyph-name="quotesinglbase" unicode="&#x201a;" horiz-adv-x="470" 
d="M175 240h20q92 0 136 -116q12 -40 12 -92v-36q0 -45 -24 -56q0 -44 -64 -80q-69 -72 -100 -72q-16 4 -16 16q20 46 20 80v24q-6 54 -80 132q-26 0 -44 112q51 88 140 88z" />
    <glyph glyph-name="quotedblleft" unicode="&#x201c;" horiz-adv-x="765" 
d="M530 1209h-20q-92 0 -136 116q-12 40 -12 92v36q0 45 24 56q0 44 64 80q68 72 100 72q16 -4 16 -16q-20 -46 -20 -80v-24q5 -54 80 -132q26 0 44 -112q-51 -88 -140 -88zM203 1209h-20q-92 0 -136 116q-12 40 -12 92v36q0 45 24 56q0 44 64 80q69 72 100 72q16 -4 16 -16
q-20 -46 -20 -80v-24q6 -54 80 -132q26 0 44 -112q-51 -88 -140 -88z" />
    <glyph glyph-name="quotedblright" unicode="&#x201d;" horiz-adv-x="765" 
d="M175 1660h20q92 0 136 -116q12 -40 12 -92v-36q0 -45 -24 -56q0 -44 -64 -80q-68 -72 -100 -72q-16 4 -16 16q20 46 20 80v24q-5 54 -80 132q-25 0 -44 112q51 88 140 88zM502 1660h20q92 0 136 -116q12 -40 12 -92v-36q0 -45 -24 -56q0 -44 -64 -80q-69 -72 -100 -72
q-16 4 -16 16q20 46 20 80v24q-6 54 -80 132q-26 0 -44 112q51 88 140 88z" />
    <glyph glyph-name="quotedblbase" unicode="&#x201e;" horiz-adv-x="765" 
d="M175 254h20q92 0 136 -116q12 -41 12 -92v-36q0 -46 -24 -56q0 -44 -64 -80q-68 -72 -100 -72q-16 4 -16 16q20 45 20 80v24q-5 53 -80 132q-25 0 -44 112q51 88 140 88zM502 254h20q92 0 136 -116q12 -41 12 -92v-36q0 -46 -24 -56q0 -44 -64 -80q-68 -72 -100 -72
q-16 4 -16 16q20 45 20 80v24q-6 53 -80 132q-26 0 -44 112q51 88 140 88z" />
    <glyph glyph-name="dagger" unicode="&#x2020;" horiz-adv-x="1014" 
 />
    <glyph glyph-name="daggerdbl" unicode="&#x2021;" horiz-adv-x="1014" 
 />
    <glyph glyph-name="bullet" unicode="&#x2022;" horiz-adv-x="1024" 
 />
    <glyph glyph-name="ellipsis" unicode="&#x2026;" horiz-adv-x="2048" 
 />
    </font>
</defs>
</svg>
